<mxfile host="app.diagrams.net" modified="2023-07-18T08:28:42.907Z" agent="Mozilla/5.0 (Windows NT 10.0; Win64; x64) AppleWebKit/537.36 (KHTML, like Gecko) Chrome/114.0.0.0 Safari/537.36" etag="BnVHKNbi8_-VGoGe2oJ8" version="21.3.7" type="device">
  <diagram name="Page-1" id="hqodU8zewru9tfOePxg9">
    <mxGraphModel dx="2569" dy="943" grid="1" gridSize="10" guides="1" tooltips="1" connect="1" arrows="1" fold="1" page="1" pageScale="1" pageWidth="827" pageHeight="1169" math="0" shadow="0">
      <root>
        <mxCell id="0" />
        <mxCell id="1" parent="0" />
        <mxCell id="MDKrXGUxuNkiesA0UJKx-27" value="" style="edgeStyle=orthogonalEdgeStyle;rounded=0;orthogonalLoop=1;jettySize=auto;html=1;" edge="1" parent="1" source="MDKrXGUxuNkiesA0UJKx-2" target="MDKrXGUxuNkiesA0UJKx-16">
          <mxGeometry relative="1" as="geometry" />
        </mxCell>
        <mxCell id="MDKrXGUxuNkiesA0UJKx-4" value="" style="shape=image;verticalLabelPosition=bottom;labelBackgroundColor=#ffffff;verticalAlign=top;aspect=fixed;imageAspect=0;image=data:image/svg+xml,PHN2ZyB4bWxuczpjYz0iaHR0cDovL2NyZWF0aXZlY29tbW9ucy5vcmcvbnMjIiB4bWxuczpkYz0iaHR0cDovL3B1cmwub3JnL2RjL2VsZW1lbnRzLzEuMS8iIHhtbG5zOmlua3NjYXBlPSJodHRwOi8vd3d3Lmlua3NjYXBlLm9yZy9uYW1lc3BhY2VzL2lua3NjYXBlIiB4bWxuczpyZGY9Imh0dHA6Ly93d3cudzMub3JnLzE5OTkvMDIvMjItcmRmLXN5bnRheC1ucyMiIHhtbG5zOnNvZGlwb2RpPSJodHRwOi8vc29kaXBvZGkuc291cmNlZm9yZ2UubmV0L0RURC9zb2RpcG9kaS0wLmR0ZCIgeG1sbnM6c3ZnPSJodHRwOi8vd3d3LnczLm9yZy8yMDAwL3N2ZyIgeG1sbnM9Imh0dHA6Ly93d3cudzMub3JnLzIwMDAvc3ZnIiB4bWxuczp4bGluaz0iaHR0cDovL3d3dy53My5vcmcvMTk5OS94bGluayIgdmVyc2lvbj0iMS4xIiBpZD0ic3ZnNTUzNjYiIGlua3NjYXBlOnZlcnNpb249IjAuOTIuMyAoMjQwNTU0NiwgMjAxOC0wMy0xMSkiIHNvZGlwb2RpOmRvY25hbWU9ImF6dXJlX2Jsb2Jfc3RvcmFnZS5zdmciIHg9IjBweCIgeT0iMHB4IiB2aWV3Qm94PSIwIDAgNDggNDAuOTkiIHN0eWxlPSJlbmFibGUtYmFja2dyb3VuZDpuZXcgMCAwIDQ4IDQwLjk5OyIgeG1sOnNwYWNlPSJwcmVzZXJ2ZSI+JiN4YTs8c29kaXBvZGk6bmFtZWR2aWV3IGJvcmRlcmNvbG9yPSIjNjY2NjY2IiBib3JkZXJvcGFjaXR5PSIxIiBmaXQtbWFyZ2luLWJvdHRvbT0iMCIgZml0LW1hcmdpbi1sZWZ0PSIwIiBmaXQtbWFyZ2luLXJpZ2h0PSIwIiBmaXQtbWFyZ2luLXRvcD0iMCIgZ3JpZHRvbGVyYW5jZT0iMTAiIGd1aWRldG9sZXJhbmNlPSIxMCIgaWQ9Im5hbWVkdmlldzU1MzY4IiBpbmtzY2FwZTpjdXJyZW50LWxheWVyPSJzdmc1NTM2NiIgaW5rc2NhcGU6Y3g9IjQ5LjQ2MTI0NiIgaW5rc2NhcGU6Y3k9IjIzLjk2Nzc0MiIgaW5rc2NhcGU6cGFnZW9wYWNpdHk9IjAiIGlua3NjYXBlOnBhZ2VzaGFkb3c9IjIiIGlua3NjYXBlOndpbmRvdy1oZWlnaHQ9IjEwMTciIGlua3NjYXBlOndpbmRvdy1tYXhpbWl6ZWQ9IjEiIGlua3NjYXBlOndpbmRvdy13aWR0aD0iMTkyMCIgaW5rc2NhcGU6d2luZG93LXg9Ii04IiBpbmtzY2FwZTp3aW5kb3cteT0iLTgiIGlua3NjYXBlOnpvb209IjEwLjgyMDc2NSIgb2JqZWN0dG9sZXJhbmNlPSIxMCIgcGFnZWNvbG9yPSIjZmZmZmZmIiBzaG93Z3JpZD0iZmFsc2UiPiYjeGE7CTwvc29kaXBvZGk6bmFtZWR2aWV3PiYjeGE7PGcgaWQ9Imc1NTM2NCIgdHJhbnNmb3JtPSJ0cmFuc2xhdGUoLTAuNzUsLTAuNzU0KSI+JiN4YTsJPHRpdGxlIGlkPSJ0aXRsZTU1MzI0Ij5QYWdlLTE8L3RpdGxlPiYjeGE7CTxnIGlkPSJncm91cDUyMTYtMSIgdHJhbnNmb3JtPSJ0cmFuc2xhdGUoMC43NSwtMC43NSkiPiYjeGE7CQk8dGl0bGUgaWQ9InRpdGxlNTUzMjYiPkF6dXJlIEJsb2IgU3RvcmFnZTwvdGl0bGU+JiN4YTsJCTxnIGlkPSJzaGFwZTUyMTctMiI+JiN4YTsJCQk8dGl0bGUgaWQ9InRpdGxlNTUzMjgiPlNoZWV0LjUyMTc8L3RpdGxlPiYjeGE7CQkJPHBhdGggaWQ9InBhdGg1NTMzMCIgaW5rc2NhcGU6Y29ubmVjdG9yLWN1cnZhdHVyZT0iMCIgc3R5bGU9ImZpbGw6I0EwQTFBMjsiIGQ9Ik0wLDQwLjY3YzAsMC45NiwwLjc3LDEuODIsMS43MywxLjgyaDQ0LjQ1ICAgICBjMC45NiwwLDEuODItMC43NywxLjgyLTEuODJWOC44OUgwVjQwLjY3eiIvPiYjeGE7CQk8L2c+JiN4YTsJCTxnIGlkPSJzaGFwZTUyMTgtNCIgdHJhbnNmb3JtPSJ0cmFuc2xhdGUoMCwtMzMuNjk2KSI+JiN4YTsJCQk8dGl0bGUgaWQ9InRpdGxlNTUzMzMiPlNoZWV0LjUyMTg8L3RpdGxlPiYjeGE7CQkJPHBhdGggaWQ9InBhdGg1NTMzNSIgaW5rc2NhcGU6Y29ubmVjdG9yLWN1cnZhdHVyZT0iMCIgc3R5bGU9ImZpbGw6IzdBN0E3QTsiIGQ9Ik00Ni4xOCwzNS4ySDEuNzNDMC43NywzNS4yLDAsMzYuMDYsMCwzNy4wMiAgICAgdjUuNDdoNDh2LTUuNDdDNDgsMzYuMDYsNDcuMjMsMzUuMiw0Ni4xOCwzNS4yeiIvPiYjeGE7CQk8L2c+JiN4YTsJCTxnIGlkPSJzaGFwZTUyMTktNiIgdHJhbnNmb3JtPSJ0cmFuc2xhdGUoMy41NTIsLTE3Ljg1NikiPiYjeGE7CQkJPHRpdGxlIGlkPSJ0aXRsZTU1MzM4Ij5TaGVldC41MjE5PC90aXRsZT4mI3hhOwkJCTxyZWN0IGlkPSJyZWN0NTUzNDAiIHg9IjAiIHk9IjMwLjAxIiBzdHlsZT0iZmlsbDojMDA3MkM2OyIgd2lkdGg9IjE5LjU4IiBoZWlnaHQ9IjEyLjQ4Ii8+JiN4YTsJCTwvZz4mI3hhOwkJPGcgaWQ9InNoYXBlNTIyMC04IiB0cmFuc2Zvcm09InRyYW5zbGF0ZSgzLjU1MiwtMy42NDgpIj4mI3hhOwkJCTx0aXRsZSBpZD0idGl0bGU1NTM0MyI+U2hlZXQuNTIyMDwvdGl0bGU+JiN4YTsJCQk8cmVjdCBpZD0icmVjdDU1MzQ1IiB4PSIwIiB5PSIzMC4wMSIgc3R5bGU9ImZpbGw6IzAwNzJDNjsiIHdpZHRoPSIxOS41OCIgaGVpZ2h0PSIxMi40OCIvPiYjeGE7CQk8L2c+JiN4YTsJCTxnIGlkPSJzaGFwZTUyMjEtMTAiIHRyYW5zZm9ybT0idHJhbnNsYXRlKDI0Ljg2NCwtMTcuODU2KSI+JiN4YTsJCQk8dGl0bGUgaWQ9InRpdGxlNTUzNDgiPlNoZWV0LjUyMjE8L3RpdGxlPiYjeGE7CQkJPHJlY3QgaWQ9InJlY3Q1NTM1MCIgeD0iMCIgeT0iMzAuMDEiIHN0eWxlPSJmaWxsOiNGRkZGRkY7IiB3aWR0aD0iMTkuNDkiIGhlaWdodD0iMTIuNDgiLz4mI3hhOwkJPC9nPiYjeGE7CQk8ZyBpZD0ic2hhcGU1MjIyLTEyIiB0cmFuc2Zvcm09InRyYW5zbGF0ZSgyNC44NjQsLTMuNjQ4KSI+JiN4YTsJCQk8dGl0bGUgaWQ9InRpdGxlNTUzNTMiPlNoZWV0LjUyMjI8L3RpdGxlPiYjeGE7CQkJPHJlY3QgaWQ9InJlY3Q1NTM1NSIgeD0iMCIgeT0iMzAuMDEiIHN0eWxlPSJmaWxsOiMwMDcyQzY7IiB3aWR0aD0iMTkuNDkiIGhlaWdodD0iMTIuNDgiLz4mI3hhOwkJPC9nPiYjeGE7CQk8ZyBpZD0ic2hhcGU1MjIzLTE0IiB0cmFuc2Zvcm09InRyYW5zbGF0ZSgwLC0wLjA5NikiPiYjeGE7CQkJPHRpdGxlIGlkPSJ0aXRsZTU1MzU4Ij5TaGVldC41MjIzPC90aXRsZT4mI3hhOwkJCTxwYXRoIGlkPSJwYXRoNTUzNjAiIGlua3NjYXBlOmNvbm5lY3Rvci1jdXJ2YXR1cmU9IjAiIHN0eWxlPSJmaWxsOiNGRkZGRkY7ZmlsbC1vcGFjaXR5OjAuMjsiIGQ9Ik0xLjkyLDEuNiAgICAgQzAuODYsMS42LDAsMi40NiwwLDMuNTJ2N3YzLjE3djI2Ljg4YzAsMS4wNiwwLjg2LDEuOTIsMS45MiwxLjkyaDIuMTFMNDEuODYsMS42SDEuOTJ6Ii8+JiN4YTsJCTwvZz4mI3hhOwk8L2c+JiN4YTs8L2c+JiN4YTs8L3N2Zz4=;" vertex="1" parent="1">
          <mxGeometry x="200" y="620" width="93.66" height="80" as="geometry" />
        </mxCell>
        <mxCell id="MDKrXGUxuNkiesA0UJKx-6" value="" style="shape=image;verticalLabelPosition=bottom;labelBackgroundColor=#ffffff;verticalAlign=top;aspect=fixed;imageAspect=0;image=data:image/svg+xml,PHN2ZyB4bWxuczpkYz0iaHR0cDovL3B1cmwub3JnL2RjL2VsZW1lbnRzLzEuMS8iIHhtbG5zOmNjPSJodHRwOi8vY3JlYXRpdmVjb21tb25zLm9yZy9ucyMiIHhtbG5zOnJkZj0iaHR0cDovL3d3dy53My5vcmcvMTk5OS8wMi8yMi1yZGYtc3ludGF4LW5zIyIgeG1sbnM6c3ZnPSJodHRwOi8vd3d3LnczLm9yZy8yMDAwL3N2ZyIgeG1sbnM9Imh0dHA6Ly93d3cudzMub3JnLzIwMDAvc3ZnIiB4bWxuczpzb2RpcG9kaT0iaHR0cDovL3NvZGlwb2RpLnNvdXJjZWZvcmdlLm5ldC9EVEQvc29kaXBvZGktMC5kdGQiIHhtbG5zOmlua3NjYXBlPSJodHRwOi8vd3d3Lmlua3NjYXBlLm9yZy9uYW1lc3BhY2VzL2lua3NjYXBlIiB2ZXJzaW9uPSIxLjEiIGlkPSJzdmc1MjI2OCIgaW5rc2NhcGU6dmVyc2lvbj0iMC45Mi4zICgyNDA1NTQ2LCAyMDE4LTAzLTExKSIgc29kaXBvZGk6ZG9jbmFtZT0iYXp1cmVfYmFja3VwLnN2ZyIgeD0iMHB4IiB5PSIwcHgiIHZpZXdCb3g9IjAgMCA3NS41MyA2Mi45MyIgeG1sOnNwYWNlPSJwcmVzZXJ2ZSIgd2lkdGg9Ijc1LjUyOTk5OSIgaGVpZ2h0PSI2Mi45MyI+PG1ldGFkYXRhIGlkPSJtZXRhZGF0YTMxODQiPjxyZGY6UkRGPjxjYzpXb3JrIHJkZjphYm91dD0iIj48ZGM6Zm9ybWF0PmltYWdlL3N2Zyt4bWw8L2RjOmZvcm1hdD48ZGM6dHlwZSByZGY6cmVzb3VyY2U9Imh0dHA6Ly9wdXJsLm9yZy9kYy9kY21pdHlwZS9TdGlsbEltYWdlIi8+PGRjOnRpdGxlLz48L2NjOldvcms+PC9yZGY6UkRGPjwvbWV0YWRhdGE+PGRlZnMgaWQ9ImRlZnMzMTgyIj4mI3hhOwkmI3hhOyYjeGE7CSYjeGE7JiN4YTsJCSYjeGE7CSYjeGE7CQkmI3hhOwk8L2RlZnM+JiN4YTs8ZmlsdGVyIGlkPSJmaWx0ZXJfMiI+JiN4YTsJPGZlR2F1c3NpYW5CbHVyIGlkPSJmZUdhdXNzaWFuQmx1cjUyMjQxIiBzdGREZXZpYXRpb249IjIiLz4mI3hhOzwvZmlsdGVyPiYjeGE7PHNvZGlwb2RpOm5hbWVkdmlldyBib3JkZXJjb2xvcj0iIzY2NjY2NiIgYm9yZGVyb3BhY2l0eT0iMSIgZml0LW1hcmdpbi1ib3R0b209IjAiIGZpdC1tYXJnaW4tbGVmdD0iMCIgZml0LW1hcmdpbi1yaWdodD0iMCIgZml0LW1hcmdpbi10b3A9IjAiIGdyaWR0b2xlcmFuY2U9IjEwIiBndWlkZXRvbGVyYW5jZT0iMTAiIGlkPSJuYW1lZHZpZXc1MjI3MCIgaW5rc2NhcGU6Y3VycmVudC1sYXllcj0ic3ZnNTIyNjgiIGlua3NjYXBlOmN4PSItNDEuMjQ4MDI3IiBpbmtzY2FwZTpjeT0iMjkuMzkzODkiIGlua3NjYXBlOnBhZ2VvcGFjaXR5PSIwIiBpbmtzY2FwZTpwYWdlc2hhZG93PSIyIiBpbmtzY2FwZTp3aW5kb3ctaGVpZ2h0PSIxMDE3IiBpbmtzY2FwZTp3aW5kb3ctbWF4aW1pemVkPSIxIiBpbmtzY2FwZTp3aW5kb3ctd2lkdGg9IjE5MjAiIGlua3NjYXBlOndpbmRvdy14PSItOCIgaW5rc2NhcGU6d2luZG93LXk9Ii04IiBpbmtzY2FwZTp6b29tPSI1LjI1OTk5NzkiIG9iamVjdHRvbGVyYW5jZT0iMTAiIHBhZ2Vjb2xvcj0iI2ZmZmZmZiIgc2hvd2dyaWQ9ImZhbHNlIj4mI3hhOwk8L3NvZGlwb2RpOm5hbWVkdmlldz4mI3hhOyYjeGE7PHBhdGggaWQ9InBhdGg1MjI1NCIgaW5rc2NhcGU6Y29ubmVjdG9yLWN1cnZhdHVyZT0iMCIgc3R5bGU9ImZpbGw6IzAwNzJjNiIgZD0ibSA2OC4xLDE3LjU3IGMgMC4wNSwtMC41MyAwLjA3LC0xLjA4IDAuMDcsLTEuNjMgQyA2OC4xNyw3LjE1IDYwLjk1LDAgNTIuMDksMCA0Ni44MywwIDQxLjk5LDIuNTIgMzkuMDIsNi42NSAzNy4xMSw1LjQ2IDM0Ljg5LDQuODEgMzIuNTgsNC44MSBjIC02LjMyLDAgLTExLjUzLDQuODEgLTEyLjExLDEwLjkzIDAuOTgsLTAuMTMgMS45NiwtMC4yMyAyLjk3LC0wLjIzIDQuNjYsMCA5LjE0LDEuNTEgMTIuNzksNC4xOCAyLjc0LC02LjMyIDkuNzIsLTEwLjM3IDE3LjQ0LC0xMC42IFYgMy42OCBsIDkuNDQsOC4wOCAtOS40NCw4LjAzIFYgMTQuNSBjIC00LjQzLDAuMTggLTguNzMsMS44NCAtMTEuMjIsNS44NyBsIDAuNSwtMC4wNSBjIDkuMDEsMCAxNi40Niw2Ljc1IDE3LjUyLDE1LjM4IDIuMTQsMS42MSAzLjgzLDMuNTUgNS4wNCw1Ljc2IDUuODQsLTEuNTYgMTAuMDIsLTYuNTkgMTAuMDIsLTEyLjc2IDAsLTQuOTYgLTIuNjcsLTguOTEgLTcuNDMsLTExLjEzIHoiLz4mI3hhOyYjeGE7PHBhdGggaWQ9InBhdGg1MjI2MiIgaW5rc2NhcGU6Y29ubmVjdG9yLWN1cnZhdHVyZT0iMCIgc3R5bGU9ImZpbGw6IzU5YjRkOSIgZD0ibSA3LjQzLDM4LjUxIGMgLTAuMDUsLTAuNTUgLTAuMDgsLTEuMSAtMC4wOCwtMS42NiAwLC04Ljc4IDcuMjMsLTE1LjkxIDE2LjA5LC0xNS45MSA1LjI2LDAgMTAuMDksMi41MiAxMy4wNiw2LjYyIDEuOTIsLTEuMTggNC4xMywtMS44MSA2LjQ1LC0xLjgxIDYuNjksMCAxMi4xNiw1LjQxIDEyLjE2LDEyLjA2IGwgLTAuMDMsMC45NiBjIDQuNTMsMi4yOSA2Ljk4LDYuMDkgNi45OCwxMC44NSAwLDcuNDcgLTYuMSwxMy4zMSAtMTMuODgsMTMuMzEgSCAxMy44NyBDIDYuMDksNjIuOTMgMCw1Ny4wOSAwLDQ5LjYyIDAsNDQuNjggMi42Nyw0MC43MyA3LjQzLDM4LjUxIFoiLz4mI3hhOzwvc3ZnPg==;" vertex="1" parent="1">
          <mxGeometry x="337.5" y="620" width="96.51" height="80" as="geometry" />
        </mxCell>
        <mxCell id="MDKrXGUxuNkiesA0UJKx-9" value="" style="shape=image;verticalLabelPosition=bottom;labelBackgroundColor=#ffffff;verticalAlign=top;aspect=fixed;imageAspect=0;image=data:image/svg+xml,PHN2ZyB4bWxuczpkYz0iaHR0cDovL3B1cmwub3JnL2RjL2VsZW1lbnRzLzEuMS8iIHhtbG5zOmNjPSJodHRwOi8vY3JlYXRpdmVjb21tb25zLm9yZy9ucyMiIHhtbG5zOnJkZj0iaHR0cDovL3d3dy53My5vcmcvMTk5OS8wMi8yMi1yZGYtc3ludGF4LW5zIyIgeG1sbnM6c3ZnPSJodHRwOi8vd3d3LnczLm9yZy8yMDAwL3N2ZyIgeG1sbnM9Imh0dHA6Ly93d3cudzMub3JnLzIwMDAvc3ZnIiB4bWxuczpzb2RpcG9kaT0iaHR0cDovL3NvZGlwb2RpLnNvdXJjZWZvcmdlLm5ldC9EVEQvc29kaXBvZGktMC5kdGQiIHhtbG5zOmlua3NjYXBlPSJodHRwOi8vd3d3Lmlua3NjYXBlLm9yZy9uYW1lc3BhY2VzL2lua3NjYXBlIiB2ZXJzaW9uPSIxLjEiIGlkPSJzdmc4MjQ1OSIgaW5rc2NhcGU6dmVyc2lvbj0iMC45Mi4zICgyNDA1NTQ2LCAyMDE4LTAzLTExKSIgc29kaXBvZGk6ZG9jbmFtZT0ia2V5X3ZhdWx0LnN2ZyIgeD0iMHB4IiB5PSIwcHgiIHZpZXdCb3g9IjAgMCA4OS42OSAxMDAuMTEiIHN0eWxlPSJlbmFibGUtYmFja2dyb3VuZDpuZXcgMCAwIDg5LjY5IDEwMC4xMTsiIHhtbDpzcGFjZT0icHJlc2VydmUiPjxtZXRhZGF0YSBpZD0ibWV0YWRhdGEyMzQ4Ij48cmRmOlJERj48Y2M6V29yayByZGY6YWJvdXQ9IiI+PGRjOmZvcm1hdD5pbWFnZS9zdmcreG1sPC9kYzpmb3JtYXQ+PGRjOnR5cGUgcmRmOnJlc291cmNlPSJodHRwOi8vcHVybC5vcmcvZGMvZGNtaXR5cGUvU3RpbGxJbWFnZSIvPjxkYzp0aXRsZS8+PC9jYzpXb3JrPjwvcmRmOlJERj48L21ldGFkYXRhPjxkZWZzIGlkPSJkZWZzMjM0NiIvPiYjeGE7PGZpbHRlciBpZD0iZmlsdGVyXzIiPiYjeGE7CTxmZUdhdXNzaWFuQmx1ciBpZD0iZmVHYXVzc2lhbkJsdXI4MjQzMiIgc3RkRGV2aWF0aW9uPSIyIi8+JiN4YTs8L2ZpbHRlcj4mI3hhOzxzb2RpcG9kaTpuYW1lZHZpZXcgYm9yZGVyY29sb3I9IiM2NjY2NjYiIGJvcmRlcm9wYWNpdHk9IjEiIGZpdC1tYXJnaW4tYm90dG9tPSIwIiBmaXQtbWFyZ2luLWxlZnQ9IjAiIGZpdC1tYXJnaW4tcmlnaHQ9IjAiIGZpdC1tYXJnaW4tdG9wPSIwIiBncmlkdG9sZXJhbmNlPSIxMCIgZ3VpZGV0b2xlcmFuY2U9IjEwIiBpZD0ibmFtZWR2aWV3ODI0NjEiIGlua3NjYXBlOmN1cnJlbnQtbGF5ZXI9InN2ZzgyNDU5IiBpbmtzY2FwZTpjeD0iNzMuODY0NzI3IiBpbmtzY2FwZTpjeT0iNTIuMzM5MjAxIiBpbmtzY2FwZTpwYWdlb3BhY2l0eT0iMCIgaW5rc2NhcGU6cGFnZXNoYWRvdz0iMiIgaW5rc2NhcGU6d2luZG93LWhlaWdodD0iMTAxNyIgaW5rc2NhcGU6d2luZG93LW1heGltaXplZD0iMSIgaW5rc2NhcGU6d2luZG93LXdpZHRoPSIxOTIwIiBpbmtzY2FwZTp3aW5kb3cteD0iLTgiIGlua3NjYXBlOndpbmRvdy15PSItOCIgaW5rc2NhcGU6em9vbT0iMy42OTA2MTY0IiBvYmplY3R0b2xlcmFuY2U9IjEwIiBwYWdlY29sb3I9IiNmZmZmZmYiIHNob3dncmlkPSJmYWxzZSI+JiN4YTsJPC9zb2RpcG9kaTpuYW1lZHZpZXc+JiN4YTsmI3hhOzxwYXRoIGlkPSJwYXRoODI0NDUiIGlua3NjYXBlOmNvbm5lY3Rvci1jdXJ2YXR1cmU9IjAiIHN0eWxlPSJmaWxsOiM3RkJBMDA7IiBkPSJNODkuNjksNTUuMjZjMC0xNC42Mi03LTI3LjQzLTE3LjYxLTM1LjY0ICBjMCwwLjQsMCwxLDAsMS40YzAsNC40MS0xLjIxLDguNjEtMy4wMSwxMi4yMWM1LjIxLDUuODEsOC40MSwxMy40Miw4LjQxLDIxLjgzYzAsMTguMDItMTQuNjEsMzIuNjMtMzIuNjMsMzIuNjMgIFMxMi4yMSw3My4wOCwxMi4yMSw1NS4wNmMwLTkuMDEsMy42MS0xNy4wMiw5LjQxLTIzLjAzYy0xLjYtMy40LTIuNi03LjItMi42LTExLjIxYzAtMC44LDAtMS44LDAuMi0yLjZDNy42MSwyNi4yMywwLDM5Ljg0LDAsNTUuMDYgIGMwLDI1LjAyLDIwLjAyLDQ1LjA1LDQ0Ljg1LDQ1LjA1QzY5LjY3LDEwMC4xMSw4OS42OSw4MC4wOCw4OS42OSw1NS4yNnoiLz4mI3hhOyYjeGE7PHBhdGggaWQ9InBhdGg4MjQ1MyIgaW5rc2NhcGU6Y29ubmVjdG9yLWN1cnZhdHVyZT0iMCIgc3R5bGU9ImZpbGw6I0ZDRDExNjsiIGQ9Ik00NS40NSwwQzM0LjA0LDAsMjQuODMsOS4yMSwyNC44MywyMC42MiAgYzAsOS40MSw2LjIxLDE3LjIyLDE0LjgyLDE5LjgydjIwLjQzaC05LjYxdjEwLjQxaDkuNjF2Ny42MWgxMS40MVY0MC4yNGM4LjYxLTIuNCwxNC44MS0xMC40MSwxNC44MS0xOS44MiAgQzY2LjA3LDkuMjEsNTYuODYsMCw0NS40NSwweiBNNDUuNDUsMTAuODFjNS40MSwwLDkuODEsNC40MSw5LjgxLDkuODFjMCw1LjQxLTQuNCw5LjgxLTkuODEsOS44MWMtNS40LDAtOS44MS00LjQtOS44MS05LjgxICBDMzUuNjQsMTUuMjIsNDAuMDUsMTAuODEsNDUuNDUsMTAuODF6Ii8+JiN4YTs8L3N2Zz4=;" vertex="1" parent="1">
          <mxGeometry x="70" y="600" width="90" height="100" as="geometry" />
        </mxCell>
        <mxCell id="MDKrXGUxuNkiesA0UJKx-16" value="" style="shape=image;verticalLabelPosition=bottom;labelBackgroundColor=#ffffff;verticalAlign=top;aspect=fixed;imageAspect=0;image=data:image/svg+xml,PHN2ZyB4bWxuczpjYz0iaHR0cDovL2NyZWF0aXZlY29tbW9ucy5vcmcvbnMjIiB4bWxuczpkYz0iaHR0cDovL3B1cmwub3JnL2RjL2VsZW1lbnRzLzEuMS8iIHhtbG5zOmlua3NjYXBlPSJodHRwOi8vd3d3Lmlua3NjYXBlLm9yZy9uYW1lc3BhY2VzL2lua3NjYXBlIiB4bWxuczpyZGY9Imh0dHA6Ly93d3cudzMub3JnLzE5OTkvMDIvMjItcmRmLXN5bnRheC1ucyMiIHhtbG5zOnNvZGlwb2RpPSJodHRwOi8vc29kaXBvZGkuc291cmNlZm9yZ2UubmV0L0RURC9zb2RpcG9kaS0wLmR0ZCIgeG1sbnM6c3ZnPSJodHRwOi8vd3d3LnczLm9yZy8yMDAwL3N2ZyIgeG1sbnM9Imh0dHA6Ly93d3cudzMub3JnLzIwMDAvc3ZnIiB4bWxuczp4bGluaz0iaHR0cDovL3d3dy53My5vcmcvMTk5OS94bGluayIgdmVyc2lvbj0iMS4xIiBpZD0ic3ZnODc5NzciIGlua3NjYXBlOnZlcnNpb249IjAuOTIuMyAoMjQwNTU0NiwgMjAxOC0wMy0xMSkiIHNvZGlwb2RpOmRvY25hbWU9Im5ldHdvcmtpbmdfdm5ldF9pbnRlZ3JhdGlvbi5zdmciIHg9IjBweCIgeT0iMHB4IiB2aWV3Qm94PSIwIDAgNDAuMzMgMjEuNjEiIHN0eWxlPSJlbmFibGUtYmFja2dyb3VuZDpuZXcgMCAwIDQwLjMzIDIxLjYxOyIgeG1sOnNwYWNlPSJwcmVzZXJ2ZSI+JiN4YTs8c29kaXBvZGk6bmFtZWR2aWV3IGJvcmRlcmNvbG9yPSIjNjY2NjY2IiBib3JkZXJvcGFjaXR5PSIxIiBmaXQtbWFyZ2luLWJvdHRvbT0iMCIgZml0LW1hcmdpbi1sZWZ0PSIwIiBmaXQtbWFyZ2luLXJpZ2h0PSIwIiBmaXQtbWFyZ2luLXRvcD0iMCIgZ3JpZHRvbGVyYW5jZT0iMTAiIGd1aWRldG9sZXJhbmNlPSIxMCIgaWQ9Im5hbWVkdmlldzg3OTc5IiBpbmtzY2FwZTpjdXJyZW50LWxheWVyPSJzdmc4Nzk3NyIgaW5rc2NhcGU6Y3g9IjE1Ljg1MTY2MSIgaW5rc2NhcGU6Y3k9IjcuOTY2NDg0OSIgaW5rc2NhcGU6cGFnZW9wYWNpdHk9IjAiIGlua3NjYXBlOnBhZ2VzaGFkb3c9IjIiIGlua3NjYXBlOndpbmRvdy1oZWlnaHQ9IjEwMTciIGlua3NjYXBlOndpbmRvdy1tYXhpbWl6ZWQ9IjEiIGlua3NjYXBlOndpbmRvdy13aWR0aD0iMTkyMCIgaW5rc2NhcGU6d2luZG93LXg9Ii04IiBpbmtzY2FwZTp3aW5kb3cteT0iLTgiIGlua3NjYXBlOnpvb209IjE1LjA0NjUxNiIgb2JqZWN0dG9sZXJhbmNlPSIxMCIgcGFnZWNvbG9yPSIjZmZmZmZmIiBzaG93Z3JpZD0iZmFsc2UiPiYjeGE7CTwvc29kaXBvZGk6bmFtZWR2aWV3PiYjeGE7PGcgaWQ9Imc4Nzk3NSI+JiN4YTsJPHRpdGxlIGlkPSJ0aXRsZTg3OTQ1Ij5QYWdlLTE8L3RpdGxlPiYjeGE7CTxnIGlkPSJncm91cDQ2MzgtMSI+JiN4YTsJCTx0aXRsZSBpZD0idGl0bGU4Nzk0NyI+TmV0d29ya2luZy9WTkVUIEludGVncmF0aW9uPC90aXRsZT4mI3hhOwkJPGcgaWQ9InNoYXBlNDYzOS0yIiB0cmFuc2Zvcm09InRyYW5zbGF0ZSgyOC4xMDIzKSI+JiN4YTsJCQk8dGl0bGUgaWQ9InRpdGxlODc5NDkiPlNoZWV0LjQ2Mzk8L3RpdGxlPiYjeGE7CQkJPHBhdGggaWQ9InBhdGg4Nzk1MSIgaW5rc2NhcGU6Y29ubmVjdG9yLWN1cnZhdHVyZT0iMCIgc3R5bGU9ImZpbGw6IzM5OTlDNjsiIGQ9Ik0xMi4yMywxMC42OEw5Ljg0LDguMjlMMS4zOSwwTDAsMS4yNmw5LjU4LDkuNDIgICAgIEwwLDIwLjM1bDEuMzksMS4yNmw4LjQ1LTguM0wxMi4yMywxMC42OHoiLz4mI3hhOwkJPC9nPiYjeGE7CQk8ZyBpZD0ic2hhcGU0NjQwLTQiPiYjeGE7CQkJPHRpdGxlIGlkPSJ0aXRsZTg3OTU0Ij5TaGVldC40NjQwPC90aXRsZT4mI3hhOwkJCTxwYXRoIGlkPSJwYXRoODc5NTYiIGlua3NjYXBlOmNvbm5lY3Rvci1jdXJ2YXR1cmU9IjAiIHN0eWxlPSJmaWxsOiMzOTk5QzY7IiBkPSJNMCwxMC42OGwyLjM5LTIuMzlMMTAuODQsMGwxLjM5LDEuMjYgICAgIGwtOS41OCw5LjQybDkuNTgsOS42N2wtMS4zOSwxLjI2bC04LjQ1LTguM0wwLDEwLjY4eiIvPiYjeGE7CQk8L2c+JiN4YTsJCTxnIGlkPSJzaGFwZTQ2NDEtNiIgdHJhbnNmb3JtPSJ0cmFuc2xhdGUoMTAuMzI5MiwtOC41MzE5NykiPiYjeGE7CQkJPHRpdGxlIGlkPSJ0aXRsZTg3OTU5Ij5TaGVldC40NjQxPC90aXRsZT4mI3hhOwkJCTxwYXRoIGlkPSJwYXRoODc5NjEiIGlua3NjYXBlOmNvbm5lY3Rvci1jdXJ2YXR1cmU9IjAiIHN0eWxlPSJmaWxsOiM3RkJBMDA7IiBkPSJNNC45MywxOS4yMWMwLDEuMzgtMS4xNCwyLjQtMi40MSwyLjQgICAgIGMtMS4yNiwwLTIuNTItMS4xNS0yLjUyLTIuNGMwLTEuMjYsMS4wMi0yLjM4LDIuNTItMi4zOEMzLjkxLDE2LjgzLDQuOTMsMTcuOTUsNC45MywxOS4yMXoiLz4mI3hhOwkJPC9nPiYjeGE7CQk8ZyBpZD0ic2hhcGU0NjQyLTgiIHRyYW5zZm9ybT0idHJhbnNsYXRlKDE3LjY0NTcsLTguNTMxOTcpIj4mI3hhOwkJCTx0aXRsZSBpZD0idGl0bGU4Nzk2NCI+U2hlZXQuNDY0MjwvdGl0bGU+JiN4YTsJCQk8cGF0aCBpZD0icGF0aDg3OTY2IiBpbmtzY2FwZTpjb25uZWN0b3ItY3VydmF0dXJlPSIwIiBzdHlsZT0iZmlsbDojN0ZCQTAwOyIgZD0iTTQuOTEsMTkuMjFjMCwxLjM4LTEuMTMsMi40LTIuMzksMi40ICAgICBTMCwyMC40NiwwLDE5LjIxYzAtMS4yNiwxLjEzLTIuMzgsMi41Mi0yLjM4UzQuOTEsMTcuOTUsNC45MSwxOS4yMXoiLz4mI3hhOwkJPC9nPiYjeGE7CQk8ZyBpZD0ic2hhcGU0NjQzLTEwIiB0cmFuc2Zvcm09InRyYW5zbGF0ZSgyNS4yMDEyLC04LjUzMTk3KSI+JiN4YTsJCQk8dGl0bGUgaWQ9InRpdGxlODc5NjkiPlNoZWV0LjQ2NDM8L3RpdGxlPiYjeGE7CQkJPHBhdGggaWQ9InBhdGg4Nzk3MSIgaW5rc2NhcGU6Y29ubmVjdG9yLWN1cnZhdHVyZT0iMCIgc3R5bGU9ImZpbGw6IzdGQkEwMDsiIGQ9Ik00LjgsMTkuMjFjMC0xLjMyLTEuMDktMi4zOC0yLjQxLTIuMzggICAgIEMxLjA4LDE2LjgzLDAsMTcuODksMCwxOS4yMXMxLjA4LDIuNCwyLjM5LDIuNEMzLjcxLDIxLjYxLDQuOCwyMC41Myw0LjgsMTkuMjF6Ii8+JiN4YTsJCTwvZz4mI3hhOwk8L2c+JiN4YTs8L2c+JiN4YTs8L3N2Zz4=;" vertex="1" parent="1">
          <mxGeometry x="350" y="376.08" width="130" height="71.51" as="geometry" />
        </mxCell>
        <mxCell id="MDKrXGUxuNkiesA0UJKx-25" value="" style="swimlane;startSize=0;" vertex="1" parent="1">
          <mxGeometry x="480" y="214" width="400" height="370" as="geometry" />
        </mxCell>
        <mxCell id="MDKrXGUxuNkiesA0UJKx-29" value="" style="edgeStyle=orthogonalEdgeStyle;rounded=0;orthogonalLoop=1;jettySize=auto;html=1;" edge="1" parent="MDKrXGUxuNkiesA0UJKx-25" source="MDKrXGUxuNkiesA0UJKx-7" target="MDKrXGUxuNkiesA0UJKx-11">
          <mxGeometry relative="1" as="geometry" />
        </mxCell>
        <mxCell id="MDKrXGUxuNkiesA0UJKx-7" value="" style="shape=image;verticalLabelPosition=bottom;labelBackgroundColor=#ffffff;verticalAlign=top;aspect=fixed;imageAspect=0;image=data:image/svg+xml,PHN2ZyB4bWxuczpkYz0iaHR0cDovL3B1cmwub3JnL2RjL2VsZW1lbnRzLzEuMS8iIHhtbG5zOmNjPSJodHRwOi8vY3JlYXRpdmVjb21tb25zLm9yZy9ucyMiIHhtbG5zOnJkZj0iaHR0cDovL3d3dy53My5vcmcvMTk5OS8wMi8yMi1yZGYtc3ludGF4LW5zIyIgeG1sbnM6c3ZnPSJodHRwOi8vd3d3LnczLm9yZy8yMDAwL3N2ZyIgeG1sbnM9Imh0dHA6Ly93d3cudzMub3JnLzIwMDAvc3ZnIiB4bWxuczpzb2RpcG9kaT0iaHR0cDovL3NvZGlwb2RpLnNvdXJjZWZvcmdlLm5ldC9EVEQvc29kaXBvZGktMC5kdGQiIHhtbG5zOmlua3NjYXBlPSJodHRwOi8vd3d3Lmlua3NjYXBlLm9yZy9uYW1lc3BhY2VzL2lua3NjYXBlIiB2ZXJzaW9uPSIxLjEiIGlkPSJzdmc2MTAxMSIgaW5rc2NhcGU6dmVyc2lvbj0iMC45Mi4zICgyNDA1NTQ2LCAyMDE4LTAzLTExKSIgc29kaXBvZGk6ZG9jbmFtZT0iYXp1cmVfcG9ydGFsX3ZpcnR1YWxfbWFjaGluZXMuc3ZnIiB4PSIwcHgiIHk9IjBweCIgdmlld0JveD0iMCAwIDU3LjY0IDUzLjIwMDAwMiIgeG1sOnNwYWNlPSJwcmVzZXJ2ZSIgd2lkdGg9IjU3LjYzOTk5OSIgaGVpZ2h0PSI1My4yMDAwMDEiPjxtZXRhZGF0YSBpZD0ibWV0YWRhdGExMDk5MCI+PHJkZjpSREY+PGNjOldvcmsgcmRmOmFib3V0PSIiPjxkYzpmb3JtYXQ+aW1hZ2Uvc3ZnK3htbDwvZGM6Zm9ybWF0PjxkYzp0eXBlIHJkZjpyZXNvdXJjZT0iaHR0cDovL3B1cmwub3JnL2RjL2RjbWl0eXBlL1N0aWxsSW1hZ2UiLz48ZGM6dGl0bGUvPjwvY2M6V29yaz48L3JkZjpSREY+PC9tZXRhZGF0YT48ZGVmcyBpZD0iZGVmczEwOTg4Ii8+JiN4YTs8ZmlsdGVyIGlkPSJmaWx0ZXJfMiI+JiN4YTsJPGZlR2F1c3NpYW5CbHVyIGlkPSJmZUdhdXNzaWFuQmx1cjYwOTIwIiBzdGREZXZpYXRpb249IjIiLz4mI3hhOzwvZmlsdGVyPiYjeGE7PHNvZGlwb2RpOm5hbWVkdmlldyBib3JkZXJjb2xvcj0iIzY2NjY2NiIgYm9yZGVyb3BhY2l0eT0iMSIgZml0LW1hcmdpbi1ib3R0b209IjAiIGZpdC1tYXJnaW4tbGVmdD0iMCIgZml0LW1hcmdpbi1yaWdodD0iMCIgZml0LW1hcmdpbi10b3A9IjAiIGdyaWR0b2xlcmFuY2U9IjEwIiBndWlkZXRvbGVyYW5jZT0iMTAiIGlkPSJuYW1lZHZpZXc2MTAxMyIgaW5rc2NhcGU6Y3VycmVudC1sYXllcj0ic3ZnNjEwMTEiIGlua3NjYXBlOmN4PSItMzMuMTQzMzAzIiBpbmtzY2FwZTpjeT0iMjQuNjk2NTQ0IiBpbmtzY2FwZTpwYWdlb3BhY2l0eT0iMCIgaW5rc2NhcGU6cGFnZXNoYWRvdz0iMiIgaW5rc2NhcGU6d2luZG93LWhlaWdodD0iMTAxNyIgaW5rc2NhcGU6d2luZG93LW1heGltaXplZD0iMSIgaW5rc2NhcGU6d2luZG93LXdpZHRoPSIxOTIwIiBpbmtzY2FwZTp3aW5kb3cteD0iLTgiIGlua3NjYXBlOndpbmRvdy15PSItOCIgaW5rc2NhcGU6em9vbT0iNS45MTg3NzA5IiBvYmplY3R0b2xlcmFuY2U9IjEwIiBwYWdlY29sb3I9IiNmZmZmZmYiIHNob3dncmlkPSJmYWxzZSI+JiN4YTsJPC9zb2RpcG9kaTpuYW1lZHZpZXc+JiN4YTsmI3hhOzxwYXRoIGlkPSJwYXRoNjA5MzMiIGlua3NjYXBlOmNvbm5lY3Rvci1jdXJ2YXR1cmU9IjAiIHN0eWxlPSJmaWxsOiM3YTdhN2EiIGQ9Ik0gMzcuMzksNDIuMTIgSCAzNi4wMSAyMi40MiAyMS43MSBjIDEuODgsNi42NSAtMC42NSw3LjYgLTExLjczLDcuNiB2IDMuNDggaCAxNC4xIDEwLjI5IDEzLjMgdiAtMy40OCBjIC0xMS4wOCwwIC0xMi4xNywtMC45NSAtMTAuMjgsLTcuNiB6Ii8+JiN4YTsmI3hhOzxwYXRoIGlkPSJwYXRoNjA5NDEiIGlua3NjYXBlOmNvbm5lY3Rvci1jdXJ2YXR1cmU9IjAiIHN0eWxlPSJmaWxsOiNhMGExYTIiIGQ9Ik0gNTQuMTYsMCBIIDMuMTMgQyAxLjQsMCAwLDEuNTUgMCwzLjI4IHYgMzUuNTkgYyAwLDEuNzIgMS40LDMuMjUgMy4xMywzLjI1IGggNTEuMDMgYyAxLjczLDAgMy40OCwtMS41MyAzLjQ4LC0zLjI1IFYgMy4yOCBDIDU3LjY0LDEuNTUgNTUuODksMCA1NC4xNiwwIFoiLz4mI3hhOyYjeGE7PHBhdGggaWQ9InBhdGg2MDk0OSIgaW5rc2NhcGU6Y29ubmVjdG9yLWN1cnZhdHVyZT0iMCIgc3R5bGU9ImZpbGw6I2ZmZmZmZjtmaWxsLW9wYWNpdHk6MC4yIiBkPSJNIDU0LjIsMCBDIDU0LjE5LDAgNTQuMTcsMCA1NC4xNiwwIEggMy4xMyBDIDEuNCwwIDAsMS41NSAwLDMuMjggdiAzNS41OSBjIDAsMS43MiAxLjQsMy4yNSAzLjEzLDMuMjUgaCAxLjIyIHoiLz4mI3hhOyYjeGE7PHJlY3QgaWQ9InJlY3Q2MDk1NyIgeD0iNC4zNjk5OTUxIiB5PSI0LjQ0MDAwMDEiIHN0eWxlPSJmaWxsOiM1OWI0ZDkiIHdpZHRoPSI0OC43Nzk5OTkiIGhlaWdodD0iMzMuMjUiLz4mI3hhOyYjeGE7JiN4YTsmI3hhOzxyZWN0IGlkPSJyZWN0NjA5NzMiIHg9IjkuOTc5OTk1NyIgeT0iNDkuNzIwMDAxIiBzdHlsZT0iZmlsbDojYTBhMWEyIiB3aWR0aD0iMzcuNjg5OTk5IiBoZWlnaHQ9IjMuNDgiLz4mI3hhOyYjeGE7PHBhdGggaWQ9InBhdGg2MDk4MSIgaW5rc2NhcGU6Y29ubmVjdG9yLWN1cnZhdHVyZT0iMCIgc3R5bGU9ImZpbGw6I2I4ZDQzMiIgZD0ibSAyOS40MiwyLjQyIGMgMCwwLjQ1IC0wLjM3LDAuODEgLTAuODIsMC44MSAtMC40NiwwIC0wLjgyLC0wLjM2IC0wLjgyLC0wLjgxIDAsLTAuNDYgMC4zNiwtMC44MiAwLjgyLC0wLjgyIDAuNDUsMCAwLjgyLDAuMzYgMC44MiwwLjgyIHoiLz4mI3hhOyYjeGE7PHBhdGggaWQ9InBhdGg2MDk4OSIgaW5rc2NhcGU6Y29ubmVjdG9yLWN1cnZhdHVyZT0iMCIgc3R5bGU9ImZpbGw6I2ZmZmZmZiIgZD0ibSAyOS40NSwyMC4wNSBjIC0wLjA2LDAgLTAuMTEsLTAuMDEgLTAuMTYsLTAuMDQgTCAxOS4xNCwxNC4xNSBjIC0wLjA5LC0wLjA1IC0wLjE1LC0wLjE2IC0wLjE1LC0wLjI2IDAsLTAuMTEgMC4wNiwtMC4yMiAwLjE1LC0wLjI3IEwgMjkuMjMsNy44IGMgMC4xLC0wLjA1IDAuMjEsLTAuMDUgMC4zLDAgbCAxMC4xNiw1Ljg2IGMgMC4wOSwwLjA1IDAuMTUsMC4xNiAwLjE1LDAuMjcgMCwwLjExIC0wLjA2LDAuMjEgLTAuMTUsMC4yNiBMIDI5LjYsMjAuMDEgYyAtMC4wNSwwLjAzIC0wLjEsMC4wNCAtMC4xNSwwLjA0IHoiLz4mI3hhOyYjeGE7PHBhdGggaWQ9InBhdGg2MDk5NyIgaW5rc2NhcGU6Y29ubmVjdG9yLWN1cnZhdHVyZT0iMCIgc3R5bGU9ImZpbGw6I2ZmZmZmZjtmaWxsLW9wYWNpdHk6MC43IiBkPSJtIDI3Ljk5LDM0LjI5IGMgLTAuMDYsMCAtMC4xMSwtMC4wMSAtMC4xNSwtMC4wNCBMIDE3LjcyLDI4LjQxIGMgLTAuMSwtMC4wNSAtMC4xNiwtMC4xNSAtMC4xNiwtMC4yNiBWIDE2LjQzIGMgMCwtMC4xMSAwLjA2LC0wLjIyIDAuMTYsLTAuMjcgMC4wOSwtMC4wNiAwLjIxLC0wLjA2IDAuMzEsMCBMIDI4LjE0LDIyIGMgMC4wOSwwLjA2IDAuMTUsMC4xNiAwLjE1LDAuMjcgdiAxMS43MiBjIDAsMC4xMSAtMC4wNiwwLjIxIC0wLjE1LDAuMjYgLTAuMDUsMC4wMyAtMC4xLDAuMDQgLTAuMTUsMC4wNCB6Ii8+JiN4YTsmI3hhOzxwYXRoIGlkPSJwYXRoNjEwMDUiIGlua3NjYXBlOmNvbm5lY3Rvci1jdXJ2YXR1cmU9IjAiIHN0eWxlPSJmaWxsOiNmZmZmZmY7ZmlsbC1vcGFjaXR5OjAuNCIgZD0iTSAzMC44NiwzNC4yOSBDIDMwLjgsMzQuMjkgMzAuNzUsMzQuMjggMzAuNywzNC4yNSAzMC42MSwzNC4yIDMwLjU1LDM0LjEgMzAuNTUsMzMuOTkgViAyMi4zNCBjIDAsLTAuMTEgMC4wNiwtMC4yMSAwLjE1LC0wLjI3IGwgMTAuMTIsLTUuODMgYyAwLjA5LC0wLjA2IDAuMjEsLTAuMDYgMC4zLDAgMC4xLDAuMDUgMC4xNiwwLjE1IDAuMTYsMC4yNiB2IDExLjY1IGMgMCwwLjExIC0wLjA2LDAuMjEgLTAuMTYsMC4yNiBsIC0xMC4xMSw1Ljg0IGMgLTAuMDQsMC4wMyAtMC4xLDAuMDQgLTAuMTUsMC4wNCB6Ii8+JiN4YTs8L3N2Zz4=;" vertex="1" parent="MDKrXGUxuNkiesA0UJKx-25">
          <mxGeometry x="221.5" y="136" width="93" height="84.98" as="geometry" />
        </mxCell>
        <mxCell id="MDKrXGUxuNkiesA0UJKx-15" value="" style="shape=image;verticalLabelPosition=bottom;labelBackgroundColor=#ffffff;verticalAlign=top;aspect=fixed;imageAspect=0;image=data:image/svg+xml,PHN2ZyB4bWxuczpjYz0iaHR0cDovL2NyZWF0aXZlY29tbW9ucy5vcmcvbnMjIiB4bWxuczpkYz0iaHR0cDovL3B1cmwub3JnL2RjL2VsZW1lbnRzLzEuMS8iIHhtbG5zOmlua3NjYXBlPSJodHRwOi8vd3d3Lmlua3NjYXBlLm9yZy9uYW1lc3BhY2VzL2lua3NjYXBlIiB4bWxuczpyZGY9Imh0dHA6Ly93d3cudzMub3JnLzE5OTkvMDIvMjItcmRmLXN5bnRheC1ucyMiIHhtbG5zOnNvZGlwb2RpPSJodHRwOi8vc29kaXBvZGkuc291cmNlZm9yZ2UubmV0L0RURC9zb2RpcG9kaS0wLmR0ZCIgeG1sbnM6c3ZnPSJodHRwOi8vd3d3LnczLm9yZy8yMDAwL3N2ZyIgeG1sbnM9Imh0dHA6Ly93d3cudzMub3JnLzIwMDAvc3ZnIiB4bWxuczp4bGluaz0iaHR0cDovL3d3dy53My5vcmcvMTk5OS94bGluayIgdmVyc2lvbj0iMS4xIiBpZD0ic3ZnODc3MDAiIGlua3NjYXBlOnZlcnNpb249IjAuOTIuMyAoMjQwNTU0NiwgMjAxOC0wMy0xMSkiIHNvZGlwb2RpOmRvY25hbWU9Im5ldHdvcmtfc2VjdXJpdHlfZ3JvdXAuc3ZnIiB4PSIwcHgiIHk9IjBweCIgdmlld0JveD0iMCAwIDIyLjgzIDMxLjEyIiBzdHlsZT0iZW5hYmxlLWJhY2tncm91bmQ6bmV3IDAgMCAyMi44MyAzMS4xMjsiIHhtbDpzcGFjZT0icHJlc2VydmUiPiYjeGE7PHNvZGlwb2RpOm5hbWVkdmlldyBib3JkZXJjb2xvcj0iIzY2NjY2NiIgYm9yZGVyb3BhY2l0eT0iMSIgZml0LW1hcmdpbi1ib3R0b209IjAiIGZpdC1tYXJnaW4tbGVmdD0iMCIgZml0LW1hcmdpbi1yaWdodD0iMCIgZml0LW1hcmdpbi10b3A9IjAiIGdyaWR0b2xlcmFuY2U9IjEwIiBndWlkZXRvbGVyYW5jZT0iMTAiIGlkPSJuYW1lZHZpZXc4NzcwMiIgaW5rc2NhcGU6Y3VycmVudC1sYXllcj0ic3ZnODc3MDAiIGlua3NjYXBlOmN4PSI3Ljc4MzU0ODIiIGlua3NjYXBlOmN5PSIxNi4yMjc2MjMiIGlua3NjYXBlOnBhZ2VvcGFjaXR5PSIwIiBpbmtzY2FwZTpwYWdlc2hhZG93PSIyIiBpbmtzY2FwZTp3aW5kb3ctaGVpZ2h0PSIxMDE3IiBpbmtzY2FwZTp3aW5kb3ctbWF4aW1pemVkPSIxIiBpbmtzY2FwZTp3aW5kb3ctd2lkdGg9IjE5MjAiIGlua3NjYXBlOndpbmRvdy14PSItOCIgaW5rc2NhcGU6d2luZG93LXk9Ii04IiBpbmtzY2FwZTp6b29tPSIxNC4wOTU3MzQiIG9iamVjdHRvbGVyYW5jZT0iMTAiIHBhZ2Vjb2xvcj0iI2ZmZmZmZiIgc2hvd2dyaWQ9ImZhbHNlIj4mI3hhOwk8L3NvZGlwb2RpOm5hbWVkdmlldz4mI3hhOzxnIGlkPSJnODc2OTgiIHRyYW5zZm9ybT0idHJhbnNsYXRlKC0wLjc1LC0wLjc1KSI+JiN4YTsJPHRpdGxlIGlkPSJ0aXRsZTg3NjQyIj5QYWdlLTE8L3RpdGxlPiYjeGE7CTxnIGlkPSJncm91cDU2NjktMSIgdHJhbnNmb3JtPSJ0cmFuc2xhdGUoMC43NSwtMC43NSkiPiYjeGE7CQk8dGl0bGUgaWQ9InRpdGxlODc2NDQiPk5ldHdvcmsgU2VjdXJpdHkgR3JvdXA8L3RpdGxlPiYjeGE7CQk8ZyBpZD0ic2hhcGU1NjcwLTIiPiYjeGE7CQkJPHRpdGxlIGlkPSJ0aXRsZTg3NjQ2Ij5TaGVldC41NjcwPC90aXRsZT4mI3hhOwkJCTxwYXRoIGlkPSJwYXRoODc2NDgiIGlua3NjYXBlOmNvbm5lY3Rvci1jdXJ2YXR1cmU9IjAiIHN0eWxlPSJmaWxsOiMzOTk5QzY7IiBkPSJNMTkuNDYsNS4yNEMxMi42LDQuNDksMTEuNDEsMS41LDExLjQxLDEuNSAgICAgUzkuODUsNS4zNywwLDUuMzd2MTUuOTZjMCwxLjkzLDEuMDYsMy43NCwyLjU2LDUuM2MzLjM2LDMuNTYsOC44NSw1Ljk5LDguODUsNS45OXMxMS40Mi00Ljk5LDExLjQyLTExLjI5VjUuMzcgICAgIEMyMS41OCw1LjM3LDIwLjQ2LDUuMywxOS40Niw1LjI0eiIvPiYjeGE7CQk8L2c+JiN4YTsJCTxnIGlkPSJzaGFwZTU2NzEtNCIgdHJhbnNmb3JtPSJ0cmFuc2xhdGUoMCwtNS45ODY5MikiPiYjeGE7CQkJPHRpdGxlIGlkPSJ0aXRsZTg3NjUxIj5TaGVldC41NjcxPC90aXRsZT4mI3hhOwkJCTxwYXRoIGlkPSJwYXRoODc2NTMiIGlua3NjYXBlOmNvbm5lY3Rvci1jdXJ2YXR1cmU9IjAiIHN0eWxlPSJmaWxsOiM1OUI0RDk7ZmlsbC1vcGFjaXR5OjAuNDsiIGQ9Ik0xNC4yOCwxNy43OGw1LjE4LTYuNTUgICAgIGMtNi44Ni0wLjc1LTguMDUtMy43NC04LjA1LTMuNzRTOS44NSwxMS4zNSwwLDExLjM1djE1Ljk3YzAsMS45MywxLjA2LDMuNzQsMi41Niw1LjNsMy44Ni00Ljg2TDE0LjI4LDE3Ljc4eiIvPiYjeGE7CQk8L2c+JiN4YTsJCTxnIGlkPSJncm91cDU2NzItNiIgdHJhbnNmb3JtPSJ0cmFuc2xhdGUoMi4zMDc0NiwtMy4xMTgxOSkiPiYjeGE7CQkJPHRpdGxlIGlkPSJ0aXRsZTg3NjU2Ij5TaGVldC41NjcyPC90aXRsZT4mI3hhOwkJCTxnIGlkPSJzaGFwZTU2NzMtNyIgdHJhbnNmb3JtPSJ0cmFuc2xhdGUoMC4wNjIzNjM3KSI+JiN4YTsJCQkJPHRpdGxlIGlkPSJ0aXRsZTg3NjU4Ij5TaGVldC41NjczPC90aXRsZT4mI3hhOwkJCQk8cGF0aCBpZD0icGF0aDg3NjYwIiBpbmtzY2FwZTpjb25uZWN0b3ItY3VydmF0dXJlPSIwIiBzdHlsZT0iZmlsbDojRkZGRkZGO2ZpbGwtb3BhY2l0eTowLjM7IiBkPSJNMCwxOS44M3YzLjgxICAgICAgYzAsMS41NiwwLjg3LDIuOTksMi4wNiw0LjI0YzIuNjgsMi44Nyw3LjA1LDQuNzQsNy4wNSw0Ljc0VjE5LjgzSDB6Ii8+JiN4YTsJCQk8L2c+JiN4YTsJCQk8ZyBpZD0ic2hhcGU1Njc0LTkiIHRyYW5zZm9ybT0idHJhbnNsYXRlKDkuMTA1MSkiPiYjeGE7CQkJCTx0aXRsZSBpZD0idGl0bGU4NzY2MyI+U2hlZXQuNTY3NDwvdGl0bGU+JiN4YTsJCQkJPHBhdGggaWQ9InBhdGg4NzY2NSIgaW5rc2NhcGU6Y29ubmVjdG9yLWN1cnZhdHVyZT0iMCIgc3R5bGU9ImZpbGw6I0ZGRkZGRjtmaWxsLW9wYWNpdHk6MC43OyIgZD0iTTAsMzIuNjIgICAgICBjMCwwLDkuMTEtMy45OSw5LjExLTguOTh2LTMuODFIMFYzMi42MnoiLz4mI3hhOwkJCTwvZz4mI3hhOwkJCTxnIGlkPSJzaGFwZTU2NzUtMTEiIHRyYW5zZm9ybT0idHJhbnNsYXRlKDAsLTEyLjc4NDYpIj4mI3hhOwkJCQk8dGl0bGUgaWQ9InRpdGxlODc2NjgiPlNoZWV0LjU2NzU8L3RpdGxlPiYjeGE7CQkJCTxwYXRoIGlkPSJwYXRoODc2NzAiIGlua3NjYXBlOmNvbm5lY3Rvci1jdXJ2YXR1cmU9IjAiIHN0eWxlPSJmaWxsOiNGRkZGRkY7ZmlsbC1vcGFjaXR5OjAuNzsiIGQ9Ik05LjExLDIwLjU4ICAgICAgYzAsMC0xLjI1LDMuMTItOS4xMSwzLjEydjguOTJoOS4xMVYyMC41OHoiLz4mI3hhOwkJCTwvZz4mI3hhOwkJCTxnIGlkPSJzaGFwZTU2NzYtMTMiIHRyYW5zZm9ybT0idHJhbnNsYXRlKDkuMTA1MSwtMTIuNzg0NikiPiYjeGE7CQkJCTx0aXRsZSBpZD0idGl0bGU4NzY3MyI+U2hlZXQuNTY3NjwvdGl0bGU+JiN4YTsJCQkJPHBhdGggaWQ9InBhdGg4NzY3NSIgaW5rc2NhcGU6Y29ubmVjdG9yLWN1cnZhdHVyZT0iMCIgc3R5bGU9ImZpbGw6I0ZGRkZGRjtmaWxsLW9wYWNpdHk6MC4zOyIgZD0iTTYuMzYsMjMuNTggICAgICBDMC45NCwyMi45NSwwLDIwLjY1LDAsMjAuNjV2MTEuOTdoOS4xMVYyMy43QzguMTEsMjMuNyw3LjE3LDIzLjY0LDYuMzYsMjMuNTh6Ii8+JiN4YTsJCQk8L2c+JiN4YTsJCTwvZz4mI3hhOwkJPGcgaWQ9Imdyb3VwNTY3Ny0xNSIgdHJhbnNmb3JtPSJ0cmFuc2xhdGUoMy4xMjQ0MiwtMTIuNzc0NikiPiYjeGE7CQkJPHRpdGxlIGlkPSJ0aXRsZTg3Njc5Ij5TaGVldC41Njc3PC90aXRsZT4mI3hhOwkJCTxnIGlkPSJzaGFwZTU2NzgtMTYiIHRyYW5zZm9ybT0idHJhbnNsYXRlKDAsLTAuMTAyOSkiPiYjeGE7CQkJCTx0aXRsZSBpZD0idGl0bGU4NzY4MSI+U2hlZXQuNTY3ODwvdGl0bGU+JiN4YTsJCQkJPHBhdGggaWQ9InBhdGg4NzY4MyIgaW5rc2NhcGU6Y29ubmVjdG9yLWN1cnZhdHVyZT0iMCIgc3R5bGU9ImZpbGw6IzNFM0UzRTsiIGQ9Ik01LjE4LDMyLjYyaC0xLjFsLTIuOTMtNC40OSAgICAgIGMtMC4wNy0wLjEyLTAuMTMtMC4yNC0wLjE4LTAuMzZIMC45NWMwLjAyLDAuMTMsMC4wMywwLjQxLDAuMDMsMC44NHY0LjAxSDB2LTYuMTFoMS4xOEw0LDMwLjg5YzAuMTIsMC4xOCwwLjIsMC4zMSwwLjIzLDAuMzggICAgICBoMC4wMmMtMC4wMy0wLjE2LTAuMDQtMC40NC0wLjA0LTAuODJ2LTMuOTRoMC45N0w1LjE4LDMyLjYyeiIvPiYjeGE7CQkJPC9nPiYjeGE7CQkJPGcgaWQ9InNoYXBlNTY3OS0xOCIgdHJhbnNmb3JtPSJ0cmFuc2xhdGUoNi40MTA5OSkiPiYjeGE7CQkJCTx0aXRsZSBpZD0idGl0bGU4NzY4NiI+U2hlZXQuNTY3OTwvdGl0bGU+JiN4YTsJCQkJPHBhdGggaWQ9InBhdGg4NzY4OCIgaW5rc2NhcGU6Y29ubmVjdG9yLWN1cnZhdHVyZT0iMCIgc3R5bGU9ImZpbGw6IzNFM0UzRTsiIGQ9Ik0wLDMyLjI3di0xLjA0YzAuMSwwLjA4LDAuMjEsMC4xNiwwLjM0LDAuMjMgICAgICBzMC4yNywwLjEyLDAuNDEsMC4xN2MwLjE1LDAuMDUsMC4yOSwwLjA4LDAuNDQsMC4xMWMwLjE0LDAuMDMsMC4yNywwLjA0LDAuNCwwLjA0YzAuNDIsMCwwLjc0LTAuMDcsMC45NS0wLjIyICAgICAgYzAuMjEtMC4xNCwwLjMxLTAuMzQsMC4zMS0wLjYxYzAtMC4xNS0wLjAzLTAuMjctMC4xLTAuMzhjLTAuMDctMC4xMS0wLjE3LTAuMi0wLjI5LTAuMjljLTAuMTMtMC4wOS0wLjI4LTAuMTgtMC40NS0wLjI2ICAgICAgYy0wLjE2LTAuMDgtMC4zNS0wLjE2LTAuNTQtMC4yNWMtMC4yMS0wLjExLTAuNC0wLjIyLTAuNTgtMC4zNGMtMC4xOC0wLjExLTAuMzMtMC4yNC0wLjQ3LTAuMzdjLTAuMTMtMC4xNC0wLjIzLTAuMy0wLjMxLTAuNDcgICAgICBDMC4wNCwyOC40MiwwLDI4LjIxLDAsMjcuOThjMC0wLjI5LDAuMDYtMC41NCwwLjE5LTAuNzVjMC4xMy0wLjIxLDAuMy0wLjM5LDAuNTItMC41MmMwLjIxLTAuMTQsMC40NS0wLjI0LDAuNzItMC4zMSAgICAgIHMwLjU0LTAuMSwwLjgzLTAuMWMwLjYzLDAsMS4xLDAuMDcsMS4zOSwwLjIydjFjLTAuMzQtMC4yNS0wLjc5LTAuMzgtMS4zNC0wLjM4Yy0wLjE1LDAtMC4zLDAuMDItMC40NCwwLjA1ICAgICAgYy0wLjE1LDAuMDItMC4yOSwwLjA3LTAuNDEsMC4xNGMtMC4xMSwwLjA2LTAuMjEsMC4xNS0wLjI4LDAuMjVjLTAuMDgsMC4xLTAuMTEsMC4yMy0wLjExLDAuMzdjMCwwLjE0LDAuMDIsMC4yNSwwLjA4LDAuMzUgICAgICBjMC4wNiwwLjEsMC4xNCwwLjE5LDAuMjUsMC4yOGMwLjExLDAuMDgsMC4yNCwwLjE2LDAuNCwwLjI0czAuMzQsMC4xNiwwLjU1LDAuMjVjMC4yMSwwLjExLDAuNDEsMC4yMywwLjYsMC4zNSAgICAgIGMwLjE5LDAuMTIsMC4zNiwwLjI2LDAuNSwwLjQxYzAuMTUsMC4xNCwwLjI2LDAuMzEsMC4zNCwwLjQ5YzAuMDksMC4xOCwwLjEzLDAuMzgsMC4xMywwLjYyYzAsMC4zLTAuMDYsMC41Ny0wLjE5LDAuNzggICAgICBjLTAuMTIsMC4yMS0wLjI5LDAuMzktMC41LDAuNTJjLTAuMjIsMC4xMy0wLjQ2LDAuMjMtMC43NCwwLjI5Yy0wLjI3LDAuMDYtMC41NiwwLjA5LTAuODcsMC4wOWMtMC4xLDAtMC4yMy0wLjAxLTAuMzgtMC4wMiAgICAgIGMtMC4xNS0wLjAyLTAuMy0wLjA0LTAuNDUtMC4wN2MtMC4xNi0wLjAzLTAuMzEtMC4wNy0wLjQ1LTAuMTFDMC4yLDMyLjM4LDAuMDksMzIuMzMsMCwzMi4yN3oiLz4mI3hhOwkJCTwvZz4mI3hhOwkJCTxnIGlkPSJzaGFwZTU2ODAtMjAiIHRyYW5zZm9ybT0idHJhbnNsYXRlKDExLjA1ODMsLTAuMDAxMjQ3MjcpIj4mI3hhOwkJCQk8dGl0bGUgaWQ9InRpdGxlODc2OTEiPlNoZWV0LjU2ODA8L3RpdGxlPiYjeGE7CQkJCTxwYXRoIGlkPSJwYXRoODc2OTMiIGlua3NjYXBlOmNvbm5lY3Rvci1jdXJ2YXR1cmU9IjAiIHN0eWxlPSJmaWxsOiMzRTNFM0U7IiBkPSJNNS4xNiwzMi4xYy0wLjYzLDAuMzUtMS4zNCwwLjUyLTIuMTIsMC41MiAgICAgIGMtMC45MSwwLTEuNjQtMC4yOC0yLjItMC44NEMwLjI4LDMxLjIxLDAsMzAuNDcsMCwyOS41NGMwLTAuOTUsMC4zMS0xLjcyLDAuOTItMi4zM2MwLjYxLTAuNjEsMS4zOS0wLjkxLDIuMzMtMC45MSAgICAgIGMwLjY4LDAsMS4yNSwwLjEsMS43MiwwLjN2MS4wNGMtMC40Ny0wLjMxLTEuMDMtMC40Ni0xLjY4LTAuNDZzLTEuMTgsMC4yMS0xLjYsMC42NHMtMC42MiwwLjk4LTAuNjIsMS42NyAgICAgIGMwLDAuNywwLjE3LDEuMjUsMC41MywxLjY1czAuODUsMC42MSwxLjQ2LDAuNjFjMC40MiwwLDAuNzktMC4wOSwxLjA5LTAuMjV2LTEuNDVIMi44NlYyOS4yaDIuM0M1LjE2LDI5LjIsNS4xNiwzMi4xLDUuMTYsMzIuMSAgICAgIHoiLz4mI3hhOwkJCTwvZz4mI3hhOwkJPC9nPiYjeGE7CTwvZz4mI3hhOzwvZz4mI3hhOzwvc3ZnPg==;" vertex="1" parent="MDKrXGUxuNkiesA0UJKx-25">
          <mxGeometry x="181.5" y="71.5" width="23" height="31" as="geometry" />
        </mxCell>
        <mxCell id="MDKrXGUxuNkiesA0UJKx-51" value="" style="edgeStyle=orthogonalEdgeStyle;rounded=0;orthogonalLoop=1;jettySize=auto;html=1;" edge="1" parent="MDKrXGUxuNkiesA0UJKx-25" source="MDKrXGUxuNkiesA0UJKx-17" target="MDKrXGUxuNkiesA0UJKx-33">
          <mxGeometry relative="1" as="geometry" />
        </mxCell>
        <mxCell id="MDKrXGUxuNkiesA0UJKx-17" value="" style="shape=image;verticalLabelPosition=bottom;labelBackgroundColor=#ffffff;verticalAlign=top;aspect=fixed;imageAspect=0;image=data:image/svg+xml,PHN2ZyB4bWxuczpjYz0iaHR0cDovL2NyZWF0aXZlY29tbW9ucy5vcmcvbnMjIiB4bWxuczpkYz0iaHR0cDovL3B1cmwub3JnL2RjL2VsZW1lbnRzLzEuMS8iIHhtbG5zOmlua3NjYXBlPSJodHRwOi8vd3d3Lmlua3NjYXBlLm9yZy9uYW1lc3BhY2VzL2lua3NjYXBlIiB4bWxuczpyZGY9Imh0dHA6Ly93d3cudzMub3JnLzE5OTkvMDIvMjItcmRmLXN5bnRheC1ucyMiIHhtbG5zOnNvZGlwb2RpPSJodHRwOi8vc29kaXBvZGkuc291cmNlZm9yZ2UubmV0L0RURC9zb2RpcG9kaS0wLmR0ZCIgeG1sbnM6c3ZnPSJodHRwOi8vd3d3LnczLm9yZy8yMDAwL3N2ZyIgeG1sbnM9Imh0dHA6Ly93d3cudzMub3JnLzIwMDAvc3ZnIiB4bWxuczp4bGluaz0iaHR0cDovL3d3dy53My5vcmcvMTk5OS94bGluayIgdmVyc2lvbj0iMS4xIiBpZD0ic3ZnOTkyNDkiIGlua3NjYXBlOnZlcnNpb249IjAuOTIuMyAoMjQwNTU0NiwgMjAxOC0wMy0xMSkiIHNvZGlwb2RpOmRvY25hbWU9InN1Ym5ldHMuc3ZnIiB4PSIwcHgiIHk9IjBweCIgdmlld0JveD0iMCAwIDM0Ljg0IDIxLjYxIiBzdHlsZT0iZW5hYmxlLWJhY2tncm91bmQ6bmV3IDAgMCAzNC44NCAyMS42MTsiIHhtbDpzcGFjZT0icHJlc2VydmUiPiYjeGE7PHNvZGlwb2RpOm5hbWVkdmlldyBib3JkZXJjb2xvcj0iIzY2NjY2NiIgYm9yZGVyb3BhY2l0eT0iMSIgZml0LW1hcmdpbi1ib3R0b209IjAiIGZpdC1tYXJnaW4tbGVmdD0iMCIgZml0LW1hcmdpbi1yaWdodD0iMCIgZml0LW1hcmdpbi10b3A9IjAiIGdyaWR0b2xlcmFuY2U9IjEwIiBndWlkZXRvbGVyYW5jZT0iMTAiIGlkPSJuYW1lZHZpZXc5OTI1MSIgaW5rc2NhcGU6Y3VycmVudC1sYXllcj0ic3ZnOTkyNDkiIGlua3NjYXBlOmN4PSI0MC45MTcxNDUiIGlua3NjYXBlOmN5PSIwLjYzNzUyNTg2IiBpbmtzY2FwZTpwYWdlb3BhY2l0eT0iMCIgaW5rc2NhcGU6cGFnZXNoYWRvdz0iMiIgaW5rc2NhcGU6d2luZG93LWhlaWdodD0iMTAxNyIgaW5rc2NhcGU6d2luZG93LW1heGltaXplZD0iMSIgaW5rc2NhcGU6d2luZG93LXdpZHRoPSIxOTIwIiBpbmtzY2FwZTp3aW5kb3cteD0iLTgiIGlua3NjYXBlOndpbmRvdy15PSItOCIgaW5rc2NhcGU6em9vbT0iMTAuNjM5NDk0IiBvYmplY3R0b2xlcmFuY2U9IjEwIiBwYWdlY29sb3I9IiNmZmZmZmYiIHNob3dncmlkPSJmYWxzZSI+JiN4YTsJPC9zb2RpcG9kaTpuYW1lZHZpZXc+JiN4YTs8ZyBpZD0iZzk5MjQ3IiB0cmFuc2Zvcm09InRyYW5zbGF0ZSgtNC4yMzMxNzQ5ZS01KSI+JiN4YTsJPHRpdGxlIGlkPSJ0aXRsZTk5MjI3Ij5QYWdlLTE8L3RpdGxlPiYjeGE7CTxnIGlkPSJncm91cDQ2NTQtMSI+JiN4YTsJCTx0aXRsZSBpZD0idGl0bGU5OTIyOSI+U3VibmV0czwvdGl0bGU+JiN4YTsJCTxnIGlkPSJzaGFwZTQ2NTUtMiIgdHJhbnNmb3JtPSJ0cmFuc2xhdGUoMjIuNjEzKSI+JiN4YTsJCQk8dGl0bGUgaWQ9InRpdGxlOTkyMzEiPlNoZWV0LjQ2NTU8L3RpdGxlPiYjeGE7CQkJPHBhdGggaWQ9InBhdGg5OTIzMyIgaW5rc2NhcGU6Y29ubmVjdG9yLWN1cnZhdHVyZT0iMCIgc3R5bGU9ImZpbGw6IzM5OTlDNjsiIGQ9Ik0xMi4yMywxMC42OEw5Ljg0LDguMjlMMS4zOSwwTDAsMS4yNmw5LjU4LDkuNDIgICAgIEwwLDIwLjM1bDEuMzksMS4yNmw4LjQ1LTguM0wxMi4yMywxMC42OHoiLz4mI3hhOwkJPC9nPiYjeGE7CQk8ZyBpZD0ic2hhcGU0NjU2LTQiPiYjeGE7CQkJPHRpdGxlIGlkPSJ0aXRsZTk5MjM2Ij5TaGVldC40NjU2PC90aXRsZT4mI3hhOwkJCTxwYXRoIGlkPSJwYXRoOTkyMzgiIGlua3NjYXBlOmNvbm5lY3Rvci1jdXJ2YXR1cmU9IjAiIHN0eWxlPSJmaWxsOiMzOTk5QzY7IiBkPSJNMCwxMC42OGwyLjM5LTIuMzlMMTAuODQsMGwxLjM5LDEuMjYgICAgIGwtOS41OCw5LjQybDkuNTgsOS42N2wtMS4zOSwxLjI2bC04LjQ1LTguM0wwLDEwLjY4eiIvPiYjeGE7CQk8L2c+JiN4YTsJCTxnIGlkPSJzaGFwZTQ2NTctNiIgdHJhbnNmb3JtPSJ0cmFuc2xhdGUoMTQuODY4NSwtOC41MzE5NykiPiYjeGE7CQkJPHRpdGxlIGlkPSJ0aXRsZTk5MjQxIj5TaGVldC40NjU3PC90aXRsZT4mI3hhOwkJCTxwYXRoIGlkPSJwYXRoOTkyNDMiIGlua3NjYXBlOmNvbm5lY3Rvci1jdXJ2YXR1cmU9IjAiIHN0eWxlPSJmaWxsOiM3RkJBMDA7IiBkPSJNNC45MSwxOS4yMWMwLDEuMzgtMS4xMywyLjQtMi4zOSwyLjQgICAgIFMwLDIwLjQ2LDAsMTkuMjFjMC0xLjI2LDEuMTMtMi4zOCwyLjUyLTIuMzhTNC45MSwxNy45NSw0LjkxLDE5LjIxeiIvPiYjeGE7CQk8L2c+JiN4YTsJPC9nPiYjeGE7PC9nPiYjeGE7PC9zdmc+;" vertex="1" parent="MDKrXGUxuNkiesA0UJKx-25">
          <mxGeometry x="175.5" y="76" width="35" height="22" as="geometry" />
        </mxCell>
        <mxCell id="MDKrXGUxuNkiesA0UJKx-32" value="" style="edgeStyle=orthogonalEdgeStyle;rounded=0;orthogonalLoop=1;jettySize=auto;html=1;" edge="1" parent="MDKrXGUxuNkiesA0UJKx-25" source="MDKrXGUxuNkiesA0UJKx-11" target="MDKrXGUxuNkiesA0UJKx-30">
          <mxGeometry relative="1" as="geometry" />
        </mxCell>
        <mxCell id="MDKrXGUxuNkiesA0UJKx-49" style="edgeStyle=orthogonalEdgeStyle;rounded=0;orthogonalLoop=1;jettySize=auto;html=1;" edge="1" parent="MDKrXGUxuNkiesA0UJKx-25" source="MDKrXGUxuNkiesA0UJKx-11" target="MDKrXGUxuNkiesA0UJKx-17">
          <mxGeometry relative="1" as="geometry" />
        </mxCell>
        <mxCell id="MDKrXGUxuNkiesA0UJKx-11" value="" style="shape=image;verticalLabelPosition=bottom;labelBackgroundColor=#ffffff;verticalAlign=top;aspect=fixed;imageAspect=0;image=data:image/svg+xml,PHN2ZyB4bWxuczpjYz0iaHR0cDovL2NyZWF0aXZlY29tbW9ucy5vcmcvbnMjIiB4bWxuczpkYz0iaHR0cDovL3B1cmwub3JnL2RjL2VsZW1lbnRzLzEuMS8iIHhtbG5zOmlua3NjYXBlPSJodHRwOi8vd3d3Lmlua3NjYXBlLm9yZy9uYW1lc3BhY2VzL2lua3NjYXBlIiB4bWxuczpyZGY9Imh0dHA6Ly93d3cudzMub3JnLzE5OTkvMDIvMjItcmRmLXN5bnRheC1ucyMiIHhtbG5zOnNvZGlwb2RpPSJodHRwOi8vc29kaXBvZGkuc291cmNlZm9yZ2UubmV0L0RURC9zb2RpcG9kaS0wLmR0ZCIgeG1sbnM6c3ZnPSJodHRwOi8vd3d3LnczLm9yZy8yMDAwL3N2ZyIgeG1sbnM9Imh0dHA6Ly93d3cudzMub3JnLzIwMDAvc3ZnIiB4bWxuczp4bGluaz0iaHR0cDovL3d3dy53My5vcmcvMTk5OS94bGluayIgdmVyc2lvbj0iMS4xIiBpZD0ic3ZnODc0MzQiIGlua3NjYXBlOnZlcnNpb249IjAuOTIuMyAoMjQwNTU0NiwgMjAxOC0wMy0xMSkiIHNvZGlwb2RpOmRvY25hbWU9Im5ldHdvcmtfaW50ZXJmYWNlLnN2ZyIgeD0iMHB4IiB5PSIwcHgiIHZpZXdCb3g9IjAgMCAzMy44OCAzNy44OSIgc3R5bGU9ImVuYWJsZS1iYWNrZ3JvdW5kOm5ldyAwIDAgMzMuODggMzcuODk7IiB4bWw6c3BhY2U9InByZXNlcnZlIj4mI3hhOzxzb2RpcG9kaTpuYW1lZHZpZXcgYm9yZGVyY29sb3I9IiM2NjY2NjYiIGJvcmRlcm9wYWNpdHk9IjEiIGZpdC1tYXJnaW4tYm90dG9tPSIwIiBmaXQtbWFyZ2luLWxlZnQ9IjAiIGZpdC1tYXJnaW4tcmlnaHQ9IjAiIGZpdC1tYXJnaW4tdG9wPSIwIiBncmlkdG9sZXJhbmNlPSIxMCIgZ3VpZGV0b2xlcmFuY2U9IjEwIiBpZD0ibmFtZWR2aWV3ODc0MzYiIGlua3NjYXBlOmN1cnJlbnQtbGF5ZXI9InN2Zzg3NDM0IiBpbmtzY2FwZTpjeD0iMTMuMTgxMzciIGlua3NjYXBlOmN5PSIyMC4yOTk0NTQiIGlua3NjYXBlOnBhZ2VvcGFjaXR5PSIwIiBpbmtzY2FwZTpwYWdlc2hhZG93PSIyIiBpbmtzY2FwZTp3aW5kb3ctaGVpZ2h0PSIxMDE3IiBpbmtzY2FwZTp3aW5kb3ctbWF4aW1pemVkPSIxIiBpbmtzY2FwZTp3aW5kb3ctd2lkdGg9IjE5MjAiIGlua3NjYXBlOndpbmRvdy14PSItOCIgaW5rc2NhcGU6d2luZG93LXk9Ii04IiBpbmtzY2FwZTp6b29tPSIxMi4xMzQ5MTIiIG9iamVjdHRvbGVyYW5jZT0iMTAiIHBhZ2Vjb2xvcj0iI2ZmZmZmZiIgc2hvd2dyaWQ9ImZhbHNlIj4mI3hhOwk8L3NvZGlwb2RpOm5hbWVkdmlldz4mI3hhOzxnIGlkPSJnODc0MzIiIHRyYW5zZm9ybT0idHJhbnNsYXRlKC0yLjQ5Mzc1NjFlLTUpIj4mI3hhOwk8dGl0bGUgaWQ9InRpdGxlODczMzciPlBhZ2UtMTwvdGl0bGU+JiN4YTsJPGcgaWQ9Imdyb3VwNDY5MC0xIj4mI3hhOwkJPHRpdGxlIGlkPSJ0aXRsZTg3MzM5Ij5OZXR3b3JrIEludGVyZmFjZTwvdGl0bGU+JiN4YTsJCTxnIGlkPSJzaGFwZTQ2OTEtMiI+JiN4YTsJCQk8dGl0bGUgaWQ9InRpdGxlODczNDEiPlNoZWV0LjQ2OTE8L3RpdGxlPiYjeGE7CQkJPHBhdGggaWQ9InBhdGg4NzM0MyIgaW5rc2NhcGU6Y29ubmVjdG9yLWN1cnZhdHVyZT0iMCIgc3R5bGU9ImZpbGw6IzdGQkEwMDsiIGQ9Ik0wLDB2MzcuODloMzAuMzVWMEgweiIvPiYjeGE7CQk8L2c+JiN4YTsJCTxnIGlkPSJzaGFwZTQ2OTItNCIgdHJhbnNmb3JtPSJ0cmFuc2xhdGUoMzAuMzQ3NCwtMjguMjI2KSI+JiN4YTsJCQk8dGl0bGUgaWQ9InRpdGxlODczNDYiPlNoZWV0LjQ2OTI8L3RpdGxlPiYjeGE7CQkJPHBhdGggaWQ9InBhdGg4NzM0OCIgaW5rc2NhcGU6Y29ubmVjdG9yLWN1cnZhdHVyZT0iMCIgc3R5bGU9ImZpbGw6I0ZDRDExNjsiIGQ9Ik0wLDMwLjk5djYuOWgzLjUzdi02LjlIMHoiLz4mI3hhOwkJPC9nPiYjeGE7CQk8ZyBpZD0ic2hhcGU0NjkzLTYiIHRyYW5zZm9ybT0idHJhbnNsYXRlKDMwLjM0NzQsLTguNDM3MTMpIj4mI3hhOwkJCTx0aXRsZSBpZD0idGl0bGU4NzM1MSI+U2hlZXQuNDY5MzwvdGl0bGU+JiN4YTsJCQk8cGF0aCBpZD0icGF0aDg3MzUzIiBpbmtzY2FwZTpjb25uZWN0b3ItY3VydmF0dXJlPSIwIiBzdHlsZT0iZmlsbDojRkNEMTE2OyIgZD0iTTAsMjAuNHYxNy40OWgzLjUzVjIwLjRIMHoiLz4mI3hhOwkJPC9nPiYjeGE7CQk8ZyBpZD0ic2hhcGU0Njk0LTgiIHRyYW5zZm9ybT0idHJhbnNsYXRlKDEyLjEwODMsLTI1LjE1OCkiPiYjeGE7CQkJPHRpdGxlIGlkPSJ0aXRsZTg3MzU2Ij5TaGVldC40Njk0PC90aXRsZT4mI3hhOwkJCTxwYXRoIGlkPSJwYXRoODczNTgiIGlua3NjYXBlOmNvbm5lY3Rvci1jdXJ2YXR1cmU9IjAiIHN0eWxlPSJmaWxsOiMyRDMyMzk7IiBkPSJNMCwyOC44NHY5LjA1aDE0LjQxdi05LjA1SDB6Ii8+JiN4YTsJCTwvZz4mI3hhOwkJPGcgaWQ9InNoYXBlNDY5NS0xMCIgdHJhbnNmb3JtPSJ0cmFuc2xhdGUoOS41MDI3MywtMy41MjgyNSkiPiYjeGE7CQkJPHRpdGxlIGlkPSJ0aXRsZTg3MzYxIj5TaGVldC40Njk1PC90aXRsZT4mI3hhOwkJCTxwYXRoIGlkPSJwYXRoODczNjMiIGlua3NjYXBlOmNvbm5lY3Rvci1jdXJ2YXR1cmU9IjAiIHN0eWxlPSJmaWxsOiMyRDMyMzk7IiBkPSJNMCwyNy42MXYxMC4yOGgyLjNWMjcuNjFIMHoiLz4mI3hhOwkJPC9nPiYjeGE7CQk8ZyBpZD0ic2hhcGU0Njk2LTEyIiB0cmFuc2Zvcm09InRyYW5zbGF0ZSgxMy40ODc3LC0zLjUyODI1KSI+JiN4YTsJCQk8dGl0bGUgaWQ9InRpdGxlODczNjYiPlNoZWV0LjQ2OTY8L3RpdGxlPiYjeGE7CQkJPHBhdGggaWQ9InBhdGg4NzM2OCIgaW5rc2NhcGU6Y29ubmVjdG9yLWN1cnZhdHVyZT0iMCIgc3R5bGU9ImZpbGw6IzJEMzIzOTsiIGQ9Ik0wLDI3LjYxdjEwLjI4aDIuNDVWMjcuNjFIMHoiLz4mI3hhOwkJPC9nPiYjeGE7CQk8ZyBpZD0ic2hhcGU0Njk3LTE0IiB0cmFuc2Zvcm09InRyYW5zbGF0ZSgyMi4zNzc0LC0zLjk4ODQ2KSI+JiN4YTsJCQk8dGl0bGUgaWQ9InRpdGxlODczNzEiPlNoZWV0LjQ2OTc8L3RpdGxlPiYjeGE7CQkJPHBhdGggaWQ9InBhdGg4NzM3MyIgaW5rc2NhcGU6Y29ubmVjdG9yLWN1cnZhdHVyZT0iMCIgc3R5bGU9ImZpbGw6I0U1RTVFNTsiIGQ9Ik0wLDI4LjUzdjkuMzZoMy41M3YtOS4zNkwwLDI4LjUzeiIvPiYjeGE7CQk8L2c+JiN4YTsJCTxnIGlkPSJzaGFwZTQ2OTgtMTYiIHRyYW5zZm9ybT0idHJhbnNsYXRlKDExLjM0MiwtMTcuNjQxMykiPiYjeGE7CQkJPHRpdGxlIGlkPSJ0aXRsZTg3Mzc2Ij5TaGVldC40Njk4PC90aXRsZT4mI3hhOwkJCTxwYXRoIGlkPSJwYXRoODczNzgiIGlua3NjYXBlOmNvbm5lY3Rvci1jdXJ2YXR1cmU9IjAiIHN0eWxlPSJmaWxsOiNFNUU1RTU7IiBkPSJNMCwzNS45N2MwLTEuMDUsMC44Mi0xLjkxLDEuODQtMS45MSAgICAgczEuODQsMC44NiwxLjg0LDEuOTFjMCwxLjA3LTAuODIsMS45Mi0xLjg0LDEuOTJTMCwzNy4wNCwwLDM1Ljk3eiIvPiYjeGE7CQk8L2c+JiN4YTsJCTxnIGlkPSJzaGFwZTQ2OTktMTgiIHRyYW5zZm9ybT0idHJhbnNsYXRlKDIxLjc2NDMsLTE5LjAyMTkpIj4mI3hhOwkJCTx0aXRsZSBpZD0idGl0bGU4NzM4MSI+U2hlZXQuNDY5OTwvdGl0bGU+JiN4YTsJCQk8cGF0aCBpZD0icGF0aDg3MzgzIiBpbmtzY2FwZTpjb25uZWN0b3ItY3VydmF0dXJlPSIwIiBzdHlsZT0iZmlsbDojNkU5RTBCOyIgZD0iTTAsMzEuNzV2Ni4xNGgxLjUzdi02LjE0SDB6Ii8+JiN4YTsJCTwvZz4mI3hhOwkJPGcgaWQ9InNoYXBlNDcwMC0yMCIgdHJhbnNmb3JtPSJ0cmFuc2xhdGUoMTguMjM5MSwtNy41MTY3MikiPiYjeGE7CQkJPHRpdGxlIGlkPSJ0aXRsZTg3Mzg2Ij5TaGVldC40NzAwPC90aXRsZT4mI3hhOwkJCTxwYXRoIGlkPSJwYXRoODczODgiIGlua3NjYXBlOmNvbm5lY3Rvci1jdXJ2YXR1cmU9IjAiIHN0eWxlPSJmaWxsOiM2RTlFMEI7IiBkPSJNMCwyNS4xMnYxMi43N2gxLjUzVjI1LjEySDB6Ii8+JiN4YTsJCTwvZz4mI3hhOwkJPGcgaWQ9InNoYXBlNDcwMS0yMiIgdHJhbnNmb3JtPSJ0cmFuc2xhdGUoNi4yODQwNiwtOS4zNTc1NCkiPiYjeGE7CQkJPHRpdGxlIGlkPSJ0aXRsZTg3MzkxIj5TaGVldC40NzAxPC90aXRsZT4mI3hhOwkJCTxwYXRoIGlkPSJwYXRoODczOTMiIGlua3NjYXBlOmNvbm5lY3Rvci1jdXJ2YXR1cmU9IjAiIHN0eWxlPSJmaWxsOiM2RTlFMEI7IiBkPSJNMCwxOC41NnYxOS4zM2gxLjUzVjE4LjU2SDB6Ii8+JiN4YTsJCTwvZz4mI3hhOwkJPGcgaWQ9InNoYXBlNDcwMi0yNCIgdHJhbnNmb3JtPSJ0cmFuc2xhdGUoMy4wNjU0LC01LjgyOTI5KSI+JiN4YTsJCQk8dGl0bGUgaWQ9InRpdGxlODczOTYiPlNoZWV0LjQ3MDI8L3RpdGxlPiYjeGE7CQkJPHBhdGggaWQ9InBhdGg4NzM5OCIgaW5rc2NhcGU6Y29ubmVjdG9yLWN1cnZhdHVyZT0iMCIgc3R5bGU9ImZpbGw6IzZFOUUwQjsiIGQ9Ik0wLDExLjgxdjI2LjA4aDEuNjlWMTEuODFIMHoiLz4mI3hhOwkJPC9nPiYjeGE7CQk8ZyBpZD0ic2hhcGU0NzAzLTI2IiB0cmFuc2Zvcm09InRyYW5zbGF0ZSgxOC4yMzkxLC0xOS4wMjE5KSI+JiN4YTsJCQk8dGl0bGUgaWQ9InRpdGxlODc0MDEiPlNoZWV0LjQ3MDM8L3RpdGxlPiYjeGE7CQkJPHBhdGggaWQ9InBhdGg4NzQwMyIgaW5rc2NhcGU6Y29ubmVjdG9yLWN1cnZhdHVyZT0iMCIgc3R5bGU9ImZpbGw6IzZFOUUwQjsiIGQ9Ik01LjA2LDM2LjM2djEuNTNIMHYtMS41M0g1LjA2eiIvPiYjeGE7CQk8L2c+JiN4YTsJCTxnIGlkPSJzaGFwZTQ3MDQtMjgiIHRyYW5zZm9ybT0idHJhbnNsYXRlKDE4LjM0NDMsLTcuNTE2NzIpIj4mI3hhOwkJCTx0aXRsZSBpZD0idGl0bGU4NzQwNiI+U2hlZXQuNDcwNDwvdGl0bGU+JiN4YTsJCQk8cGF0aCBpZD0icGF0aDg3NDA4IiBpbmtzY2FwZTpjb25uZWN0b3ItY3VydmF0dXJlPSIwIiBzdHlsZT0iZmlsbDojNkU5RTBCOyIgZD0iTTQuMDMsMzYuMzZ2MS41M0gwdi0xLjUzSDQuMDN6Ii8+JiN4YTsJCTwvZz4mI3hhOwkJPGcgaWQ9InNoYXBlNDcwNS0zMCIgdHJhbnNmb3JtPSJ0cmFuc2xhdGUoMy4wNjU0LC01LjgyOTI5KSI+JiN4YTsJCQk8dGl0bGUgaWQ9InRpdGxlODc0MTEiPlNoZWV0LjQ3MDU8L3RpdGxlPiYjeGE7CQkJPHBhdGggaWQ9InBhdGg4NzQxMyIgaW5rc2NhcGU6Y29ubmVjdG9yLWN1cnZhdHVyZT0iMCIgc3R5bGU9ImZpbGw6IzZFOUUwQjsiIGQ9Ik02LjQ0LDM2LjJ2MS42OUgwVjM2LjJINi40NHoiLz4mI3hhOwkJPC9nPiYjeGE7CQk8ZyBpZD0ic2hhcGU0NzA2LTMyIiB0cmFuc2Zvcm09InRyYW5zbGF0ZSg2LjI4NDA2LC05LjM1NzU0KSI+JiN4YTsJCQk8dGl0bGUgaWQ9InRpdGxlODc0MTYiPlNoZWV0LjQ3MDY8L3RpdGxlPiYjeGE7CQkJPHBhdGggaWQ9InBhdGg4NzQxOCIgaW5rc2NhcGU6Y29ubmVjdG9yLWN1cnZhdHVyZT0iMCIgc3R5bGU9ImZpbGw6IzZFOUUwQjsiIGQ9Ik0zLjIyLDM2LjJ2MS42OUgwVjM2LjJIMy4yMnoiLz4mI3hhOwkJPC9nPiYjeGE7CQk8ZyBpZD0ic2hhcGU0NzA3LTM0IiB0cmFuc2Zvcm09InRyYW5zbGF0ZSgzLjA2NTQsLTMwLjM3MzcpIj4mI3hhOwkJCTx0aXRsZSBpZD0idGl0bGU4NzQyMSI+U2hlZXQuNDcwNzwvdGl0bGU+JiN4YTsJCQk8cGF0aCBpZD0icGF0aDg3NDIzIiBpbmtzY2FwZTpjb25uZWN0b3ItY3VydmF0dXJlPSIwIiBzdHlsZT0iZmlsbDojNkU5RTBCOyIgZD0iTTkuMDQsMzYuMnYxLjY5SDBWMzYuMkg5LjA0eiIvPiYjeGE7CQk8L2c+JiN4YTsJCTxnIGlkPSJzaGFwZTQ3MDgtMzYiIHRyYW5zZm9ybT0idHJhbnNsYXRlKDYuMjg0MDYsLTI3LjE1MjIpIj4mI3hhOwkJCTx0aXRsZSBpZD0idGl0bGU4NzQyNiI+U2hlZXQuNDcwODwvdGl0bGU+JiN4YTsJCQk8cGF0aCBpZD0icGF0aDg3NDI4IiBpbmtzY2FwZTpjb25uZWN0b3ItY3VydmF0dXJlPSIwIiBzdHlsZT0iZmlsbDojNkU5RTBCOyIgZD0iTTUuODIsMzYuMzZ2MS41M0gwdi0xLjUzSDUuODJ6Ii8+JiN4YTsJCTwvZz4mI3hhOwk8L2c+JiN4YTs8L2c+JiN4YTs8L3N2Zz4=;" vertex="1" parent="MDKrXGUxuNkiesA0UJKx-25">
          <mxGeometry x="141.5" y="159.49" width="34" height="38" as="geometry" />
        </mxCell>
        <mxCell id="MDKrXGUxuNkiesA0UJKx-30" value="" style="image;aspect=fixed;html=1;points=[];align=center;fontSize=12;image=img/lib/azure2/networking/Public_IP_Addresses.svg;" vertex="1" parent="MDKrXGUxuNkiesA0UJKx-25">
          <mxGeometry x="71.5" y="159.49" width="45" height="36" as="geometry" />
        </mxCell>
        <mxCell id="MDKrXGUxuNkiesA0UJKx-33" value="" style="shape=image;verticalLabelPosition=bottom;labelBackgroundColor=#ffffff;verticalAlign=top;aspect=fixed;imageAspect=0;image=data:image/svg+xml,PHN2ZyB4bWxuczpjYz0iaHR0cDovL2NyZWF0aXZlY29tbW9ucy5vcmcvbnMjIiB4bWxuczpkYz0iaHR0cDovL3B1cmwub3JnL2RjL2VsZW1lbnRzLzEuMS8iIHhtbG5zOmlua3NjYXBlPSJodHRwOi8vd3d3Lmlua3NjYXBlLm9yZy9uYW1lc3BhY2VzL2lua3NjYXBlIiB4bWxuczpyZGY9Imh0dHA6Ly93d3cudzMub3JnLzE5OTkvMDIvMjItcmRmLXN5bnRheC1ucyMiIHhtbG5zOnNvZGlwb2RpPSJodHRwOi8vc29kaXBvZGkuc291cmNlZm9yZ2UubmV0L0RURC9zb2RpcG9kaS0wLmR0ZCIgeG1sbnM6c3ZnPSJodHRwOi8vd3d3LnczLm9yZy8yMDAwL3N2ZyIgeG1sbnM9Imh0dHA6Ly93d3cudzMub3JnLzIwMDAvc3ZnIiB4bWxuczp4bGluaz0iaHR0cDovL3d3dy53My5vcmcvMTk5OS94bGluayIgdmVyc2lvbj0iMS4xIiBpZD0ic3ZnODc5NzciIGlua3NjYXBlOnZlcnNpb249IjAuOTIuMyAoMjQwNTU0NiwgMjAxOC0wMy0xMSkiIHNvZGlwb2RpOmRvY25hbWU9Im5ldHdvcmtpbmdfdm5ldF9pbnRlZ3JhdGlvbi5zdmciIHg9IjBweCIgeT0iMHB4IiB2aWV3Qm94PSIwIDAgNDAuMzMgMjEuNjEiIHN0eWxlPSJlbmFibGUtYmFja2dyb3VuZDpuZXcgMCAwIDQwLjMzIDIxLjYxOyIgeG1sOnNwYWNlPSJwcmVzZXJ2ZSI+JiN4YTs8c29kaXBvZGk6bmFtZWR2aWV3IGJvcmRlcmNvbG9yPSIjNjY2NjY2IiBib3JkZXJvcGFjaXR5PSIxIiBmaXQtbWFyZ2luLWJvdHRvbT0iMCIgZml0LW1hcmdpbi1sZWZ0PSIwIiBmaXQtbWFyZ2luLXJpZ2h0PSIwIiBmaXQtbWFyZ2luLXRvcD0iMCIgZ3JpZHRvbGVyYW5jZT0iMTAiIGd1aWRldG9sZXJhbmNlPSIxMCIgaWQ9Im5hbWVkdmlldzg3OTc5IiBpbmtzY2FwZTpjdXJyZW50LWxheWVyPSJzdmc4Nzk3NyIgaW5rc2NhcGU6Y3g9IjE1Ljg1MTY2MSIgaW5rc2NhcGU6Y3k9IjcuOTY2NDg0OSIgaW5rc2NhcGU6cGFnZW9wYWNpdHk9IjAiIGlua3NjYXBlOnBhZ2VzaGFkb3c9IjIiIGlua3NjYXBlOndpbmRvdy1oZWlnaHQ9IjEwMTciIGlua3NjYXBlOndpbmRvdy1tYXhpbWl6ZWQ9IjEiIGlua3NjYXBlOndpbmRvdy13aWR0aD0iMTkyMCIgaW5rc2NhcGU6d2luZG93LXg9Ii04IiBpbmtzY2FwZTp3aW5kb3cteT0iLTgiIGlua3NjYXBlOnpvb209IjE1LjA0NjUxNiIgb2JqZWN0dG9sZXJhbmNlPSIxMCIgcGFnZWNvbG9yPSIjZmZmZmZmIiBzaG93Z3JpZD0iZmFsc2UiPiYjeGE7CTwvc29kaXBvZGk6bmFtZWR2aWV3PiYjeGE7PGcgaWQ9Imc4Nzk3NSI+JiN4YTsJPHRpdGxlIGlkPSJ0aXRsZTg3OTQ1Ij5QYWdlLTE8L3RpdGxlPiYjeGE7CTxnIGlkPSJncm91cDQ2MzgtMSI+JiN4YTsJCTx0aXRsZSBpZD0idGl0bGU4Nzk0NyI+TmV0d29ya2luZy9WTkVUIEludGVncmF0aW9uPC90aXRsZT4mI3hhOwkJPGcgaWQ9InNoYXBlNDYzOS0yIiB0cmFuc2Zvcm09InRyYW5zbGF0ZSgyOC4xMDIzKSI+JiN4YTsJCQk8dGl0bGUgaWQ9InRpdGxlODc5NDkiPlNoZWV0LjQ2Mzk8L3RpdGxlPiYjeGE7CQkJPHBhdGggaWQ9InBhdGg4Nzk1MSIgaW5rc2NhcGU6Y29ubmVjdG9yLWN1cnZhdHVyZT0iMCIgc3R5bGU9ImZpbGw6IzM5OTlDNjsiIGQ9Ik0xMi4yMywxMC42OEw5Ljg0LDguMjlMMS4zOSwwTDAsMS4yNmw5LjU4LDkuNDIgICAgIEwwLDIwLjM1bDEuMzksMS4yNmw4LjQ1LTguM0wxMi4yMywxMC42OHoiLz4mI3hhOwkJPC9nPiYjeGE7CQk8ZyBpZD0ic2hhcGU0NjQwLTQiPiYjeGE7CQkJPHRpdGxlIGlkPSJ0aXRsZTg3OTU0Ij5TaGVldC40NjQwPC90aXRsZT4mI3hhOwkJCTxwYXRoIGlkPSJwYXRoODc5NTYiIGlua3NjYXBlOmNvbm5lY3Rvci1jdXJ2YXR1cmU9IjAiIHN0eWxlPSJmaWxsOiMzOTk5QzY7IiBkPSJNMCwxMC42OGwyLjM5LTIuMzlMMTAuODQsMGwxLjM5LDEuMjYgICAgIGwtOS41OCw5LjQybDkuNTgsOS42N2wtMS4zOSwxLjI2bC04LjQ1LTguM0wwLDEwLjY4eiIvPiYjeGE7CQk8L2c+JiN4YTsJCTxnIGlkPSJzaGFwZTQ2NDEtNiIgdHJhbnNmb3JtPSJ0cmFuc2xhdGUoMTAuMzI5MiwtOC41MzE5NykiPiYjeGE7CQkJPHRpdGxlIGlkPSJ0aXRsZTg3OTU5Ij5TaGVldC40NjQxPC90aXRsZT4mI3hhOwkJCTxwYXRoIGlkPSJwYXRoODc5NjEiIGlua3NjYXBlOmNvbm5lY3Rvci1jdXJ2YXR1cmU9IjAiIHN0eWxlPSJmaWxsOiM3RkJBMDA7IiBkPSJNNC45MywxOS4yMWMwLDEuMzgtMS4xNCwyLjQtMi40MSwyLjQgICAgIGMtMS4yNiwwLTIuNTItMS4xNS0yLjUyLTIuNGMwLTEuMjYsMS4wMi0yLjM4LDIuNTItMi4zOEMzLjkxLDE2LjgzLDQuOTMsMTcuOTUsNC45MywxOS4yMXoiLz4mI3hhOwkJPC9nPiYjeGE7CQk8ZyBpZD0ic2hhcGU0NjQyLTgiIHRyYW5zZm9ybT0idHJhbnNsYXRlKDE3LjY0NTcsLTguNTMxOTcpIj4mI3hhOwkJCTx0aXRsZSBpZD0idGl0bGU4Nzk2NCI+U2hlZXQuNDY0MjwvdGl0bGU+JiN4YTsJCQk8cGF0aCBpZD0icGF0aDg3OTY2IiBpbmtzY2FwZTpjb25uZWN0b3ItY3VydmF0dXJlPSIwIiBzdHlsZT0iZmlsbDojN0ZCQTAwOyIgZD0iTTQuOTEsMTkuMjFjMCwxLjM4LTEuMTMsMi40LTIuMzksMi40ICAgICBTMCwyMC40NiwwLDE5LjIxYzAtMS4yNiwxLjEzLTIuMzgsMi41Mi0yLjM4UzQuOTEsMTcuOTUsNC45MSwxOS4yMXoiLz4mI3hhOwkJPC9nPiYjeGE7CQk8ZyBpZD0ic2hhcGU0NjQzLTEwIiB0cmFuc2Zvcm09InRyYW5zbGF0ZSgyNS4yMDEyLC04LjUzMTk3KSI+JiN4YTsJCQk8dGl0bGUgaWQ9InRpdGxlODc5NjkiPlNoZWV0LjQ2NDM8L3RpdGxlPiYjeGE7CQkJPHBhdGggaWQ9InBhdGg4Nzk3MSIgaW5rc2NhcGU6Y29ubmVjdG9yLWN1cnZhdHVyZT0iMCIgc3R5bGU9ImZpbGw6IzdGQkEwMDsiIGQ9Ik00LjgsMTkuMjFjMC0xLjMyLTEuMDktMi4zOC0yLjQxLTIuMzggICAgIEMxLjA4LDE2LjgzLDAsMTcuODksMCwxOS4yMXMxLjA4LDIuNCwyLjM5LDIuNEMzLjcxLDIxLjYxLDQuOCwyMC41Myw0LjgsMTkuMjF6Ii8+JiN4YTsJCTwvZz4mI3hhOwk8L2c+JiN4YTs8L2c+JiN4YTs8L3N2Zz4=;" vertex="1" parent="MDKrXGUxuNkiesA0UJKx-25">
          <mxGeometry x="140" width="106" height="58.3" as="geometry" />
        </mxCell>
        <mxCell id="MDKrXGUxuNkiesA0UJKx-62" value="VNet Peering&lt;br&gt;" style="text;html=1;strokeColor=none;fillColor=none;align=center;verticalAlign=middle;whiteSpace=wrap;rounded=0;fontStyle=1;fontSize=17;" vertex="1" parent="MDKrXGUxuNkiesA0UJKx-25">
          <mxGeometry x="-151" y="236" width="170" height="44" as="geometry" />
        </mxCell>
        <mxCell id="MDKrXGUxuNkiesA0UJKx-67" value="Management Server" style="text;html=1;strokeColor=none;fillColor=none;align=center;verticalAlign=middle;whiteSpace=wrap;rounded=0;" vertex="1" parent="MDKrXGUxuNkiesA0UJKx-25">
          <mxGeometry x="238" y="236" width="60" height="30" as="geometry" />
        </mxCell>
        <mxCell id="MDKrXGUxuNkiesA0UJKx-69" value="NIC" style="text;html=1;strokeColor=none;fillColor=none;align=center;verticalAlign=middle;whiteSpace=wrap;rounded=0;" vertex="1" parent="MDKrXGUxuNkiesA0UJKx-25">
          <mxGeometry x="128.5" y="206" width="60" height="30" as="geometry" />
        </mxCell>
        <mxCell id="MDKrXGUxuNkiesA0UJKx-71" value="Public IP" style="text;html=1;strokeColor=none;fillColor=none;align=center;verticalAlign=middle;whiteSpace=wrap;rounded=0;" vertex="1" parent="MDKrXGUxuNkiesA0UJKx-25">
          <mxGeometry x="64" y="206.00000000000003" width="60" height="30" as="geometry" />
        </mxCell>
        <mxCell id="MDKrXGUxuNkiesA0UJKx-26" value="" style="swimlane;startSize=0;" vertex="1" parent="1">
          <mxGeometry x="-50" y="215" width="400" height="370" as="geometry" />
        </mxCell>
        <mxCell id="MDKrXGUxuNkiesA0UJKx-2" value="" style="shape=image;verticalLabelPosition=bottom;labelBackgroundColor=#ffffff;verticalAlign=top;aspect=fixed;imageAspect=0;image=data:image/svg+xml,PHN2ZyB4bWxuczpjYz0iaHR0cDovL2NyZWF0aXZlY29tbW9ucy5vcmcvbnMjIiB4bWxuczpkYz0iaHR0cDovL3B1cmwub3JnL2RjL2VsZW1lbnRzLzEuMS8iIHhtbG5zOmlua3NjYXBlPSJodHRwOi8vd3d3Lmlua3NjYXBlLm9yZy9uYW1lc3BhY2VzL2lua3NjYXBlIiB4bWxuczpyZGY9Imh0dHA6Ly93d3cudzMub3JnLzE5OTkvMDIvMjItcmRmLXN5bnRheC1ucyMiIHhtbG5zOnNvZGlwb2RpPSJodHRwOi8vc29kaXBvZGkuc291cmNlZm9yZ2UubmV0L0RURC9zb2RpcG9kaS0wLmR0ZCIgeG1sbnM6c3ZnPSJodHRwOi8vd3d3LnczLm9yZy8yMDAwL3N2ZyIgeG1sbnM9Imh0dHA6Ly93d3cudzMub3JnLzIwMDAvc3ZnIiB4bWxuczp4bGluaz0iaHR0cDovL3d3dy53My5vcmcvMTk5OS94bGluayIgdmVyc2lvbj0iMS4xIiBpZD0ic3ZnODc5NzciIGlua3NjYXBlOnZlcnNpb249IjAuOTIuMyAoMjQwNTU0NiwgMjAxOC0wMy0xMSkiIHNvZGlwb2RpOmRvY25hbWU9Im5ldHdvcmtpbmdfdm5ldF9pbnRlZ3JhdGlvbi5zdmciIHg9IjBweCIgeT0iMHB4IiB2aWV3Qm94PSIwIDAgNDAuMzMgMjEuNjEiIHN0eWxlPSJlbmFibGUtYmFja2dyb3VuZDpuZXcgMCAwIDQwLjMzIDIxLjYxOyIgeG1sOnNwYWNlPSJwcmVzZXJ2ZSI+JiN4YTs8c29kaXBvZGk6bmFtZWR2aWV3IGJvcmRlcmNvbG9yPSIjNjY2NjY2IiBib3JkZXJvcGFjaXR5PSIxIiBmaXQtbWFyZ2luLWJvdHRvbT0iMCIgZml0LW1hcmdpbi1sZWZ0PSIwIiBmaXQtbWFyZ2luLXJpZ2h0PSIwIiBmaXQtbWFyZ2luLXRvcD0iMCIgZ3JpZHRvbGVyYW5jZT0iMTAiIGd1aWRldG9sZXJhbmNlPSIxMCIgaWQ9Im5hbWVkdmlldzg3OTc5IiBpbmtzY2FwZTpjdXJyZW50LWxheWVyPSJzdmc4Nzk3NyIgaW5rc2NhcGU6Y3g9IjE1Ljg1MTY2MSIgaW5rc2NhcGU6Y3k9IjcuOTY2NDg0OSIgaW5rc2NhcGU6cGFnZW9wYWNpdHk9IjAiIGlua3NjYXBlOnBhZ2VzaGFkb3c9IjIiIGlua3NjYXBlOndpbmRvdy1oZWlnaHQ9IjEwMTciIGlua3NjYXBlOndpbmRvdy1tYXhpbWl6ZWQ9IjEiIGlua3NjYXBlOndpbmRvdy13aWR0aD0iMTkyMCIgaW5rc2NhcGU6d2luZG93LXg9Ii04IiBpbmtzY2FwZTp3aW5kb3cteT0iLTgiIGlua3NjYXBlOnpvb209IjE1LjA0NjUxNiIgb2JqZWN0dG9sZXJhbmNlPSIxMCIgcGFnZWNvbG9yPSIjZmZmZmZmIiBzaG93Z3JpZD0iZmFsc2UiPiYjeGE7CTwvc29kaXBvZGk6bmFtZWR2aWV3PiYjeGE7PGcgaWQ9Imc4Nzk3NSI+JiN4YTsJPHRpdGxlIGlkPSJ0aXRsZTg3OTQ1Ij5QYWdlLTE8L3RpdGxlPiYjeGE7CTxnIGlkPSJncm91cDQ2MzgtMSI+JiN4YTsJCTx0aXRsZSBpZD0idGl0bGU4Nzk0NyI+TmV0d29ya2luZy9WTkVUIEludGVncmF0aW9uPC90aXRsZT4mI3hhOwkJPGcgaWQ9InNoYXBlNDYzOS0yIiB0cmFuc2Zvcm09InRyYW5zbGF0ZSgyOC4xMDIzKSI+JiN4YTsJCQk8dGl0bGUgaWQ9InRpdGxlODc5NDkiPlNoZWV0LjQ2Mzk8L3RpdGxlPiYjeGE7CQkJPHBhdGggaWQ9InBhdGg4Nzk1MSIgaW5rc2NhcGU6Y29ubmVjdG9yLWN1cnZhdHVyZT0iMCIgc3R5bGU9ImZpbGw6IzM5OTlDNjsiIGQ9Ik0xMi4yMywxMC42OEw5Ljg0LDguMjlMMS4zOSwwTDAsMS4yNmw5LjU4LDkuNDIgICAgIEwwLDIwLjM1bDEuMzksMS4yNmw4LjQ1LTguM0wxMi4yMywxMC42OHoiLz4mI3hhOwkJPC9nPiYjeGE7CQk8ZyBpZD0ic2hhcGU0NjQwLTQiPiYjeGE7CQkJPHRpdGxlIGlkPSJ0aXRsZTg3OTU0Ij5TaGVldC40NjQwPC90aXRsZT4mI3hhOwkJCTxwYXRoIGlkPSJwYXRoODc5NTYiIGlua3NjYXBlOmNvbm5lY3Rvci1jdXJ2YXR1cmU9IjAiIHN0eWxlPSJmaWxsOiMzOTk5QzY7IiBkPSJNMCwxMC42OGwyLjM5LTIuMzlMMTAuODQsMGwxLjM5LDEuMjYgICAgIGwtOS41OCw5LjQybDkuNTgsOS42N2wtMS4zOSwxLjI2bC04LjQ1LTguM0wwLDEwLjY4eiIvPiYjeGE7CQk8L2c+JiN4YTsJCTxnIGlkPSJzaGFwZTQ2NDEtNiIgdHJhbnNmb3JtPSJ0cmFuc2xhdGUoMTAuMzI5MiwtOC41MzE5NykiPiYjeGE7CQkJPHRpdGxlIGlkPSJ0aXRsZTg3OTU5Ij5TaGVldC40NjQxPC90aXRsZT4mI3hhOwkJCTxwYXRoIGlkPSJwYXRoODc5NjEiIGlua3NjYXBlOmNvbm5lY3Rvci1jdXJ2YXR1cmU9IjAiIHN0eWxlPSJmaWxsOiM3RkJBMDA7IiBkPSJNNC45MywxOS4yMWMwLDEuMzgtMS4xNCwyLjQtMi40MSwyLjQgICAgIGMtMS4yNiwwLTIuNTItMS4xNS0yLjUyLTIuNGMwLTEuMjYsMS4wMi0yLjM4LDIuNTItMi4zOEMzLjkxLDE2LjgzLDQuOTMsMTcuOTUsNC45MywxOS4yMXoiLz4mI3hhOwkJPC9nPiYjeGE7CQk8ZyBpZD0ic2hhcGU0NjQyLTgiIHRyYW5zZm9ybT0idHJhbnNsYXRlKDE3LjY0NTcsLTguNTMxOTcpIj4mI3hhOwkJCTx0aXRsZSBpZD0idGl0bGU4Nzk2NCI+U2hlZXQuNDY0MjwvdGl0bGU+JiN4YTsJCQk8cGF0aCBpZD0icGF0aDg3OTY2IiBpbmtzY2FwZTpjb25uZWN0b3ItY3VydmF0dXJlPSIwIiBzdHlsZT0iZmlsbDojN0ZCQTAwOyIgZD0iTTQuOTEsMTkuMjFjMCwxLjM4LTEuMTMsMi40LTIuMzksMi40ICAgICBTMCwyMC40NiwwLDE5LjIxYzAtMS4yNiwxLjEzLTIuMzgsMi41Mi0yLjM4UzQuOTEsMTcuOTUsNC45MSwxOS4yMXoiLz4mI3hhOwkJPC9nPiYjeGE7CQk8ZyBpZD0ic2hhcGU0NjQzLTEwIiB0cmFuc2Zvcm09InRyYW5zbGF0ZSgyNS4yMDEyLC04LjUzMTk3KSI+JiN4YTsJCQk8dGl0bGUgaWQ9InRpdGxlODc5NjkiPlNoZWV0LjQ2NDM8L3RpdGxlPiYjeGE7CQkJPHBhdGggaWQ9InBhdGg4Nzk3MSIgaW5rc2NhcGU6Y29ubmVjdG9yLWN1cnZhdHVyZT0iMCIgc3R5bGU9ImZpbGw6IzdGQkEwMDsiIGQ9Ik00LjgsMTkuMjFjMC0xLjMyLTEuMDktMi4zOC0yLjQxLTIuMzggICAgIEMxLjA4LDE2LjgzLDAsMTcuODksMCwxOS4yMXMxLjA4LDIuNCwyLjM5LDIuNEMzLjcxLDIxLjYxLDQuOCwyMC41Myw0LjgsMTkuMjF6Ii8+JiN4YTsJCTwvZz4mI3hhOwk8L2c+JiN4YTs8L2c+JiN4YTs8L3N2Zz4=;" vertex="1" parent="MDKrXGUxuNkiesA0UJKx-26">
          <mxGeometry x="140" width="110.91" height="61" as="geometry" />
        </mxCell>
        <mxCell id="MDKrXGUxuNkiesA0UJKx-40" value="" style="edgeStyle=orthogonalEdgeStyle;rounded=0;orthogonalLoop=1;jettySize=auto;html=1;" edge="1" parent="MDKrXGUxuNkiesA0UJKx-26" source="MDKrXGUxuNkiesA0UJKx-21" target="MDKrXGUxuNkiesA0UJKx-13">
          <mxGeometry relative="1" as="geometry" />
        </mxCell>
        <mxCell id="MDKrXGUxuNkiesA0UJKx-21" value="" style="shape=image;verticalLabelPosition=bottom;labelBackgroundColor=#ffffff;verticalAlign=top;aspect=fixed;imageAspect=0;image=data:image/svg+xml,PHN2ZyB4bWxuczpkYz0iaHR0cDovL3B1cmwub3JnL2RjL2VsZW1lbnRzLzEuMS8iIHhtbG5zOmNjPSJodHRwOi8vY3JlYXRpdmVjb21tb25zLm9yZy9ucyMiIHhtbG5zOnJkZj0iaHR0cDovL3d3dy53My5vcmcvMTk5OS8wMi8yMi1yZGYtc3ludGF4LW5zIyIgeG1sbnM6c3ZnPSJodHRwOi8vd3d3LnczLm9yZy8yMDAwL3N2ZyIgeG1sbnM9Imh0dHA6Ly93d3cudzMub3JnLzIwMDAvc3ZnIiB4bWxuczpzb2RpcG9kaT0iaHR0cDovL3NvZGlwb2RpLnNvdXJjZWZvcmdlLm5ldC9EVEQvc29kaXBvZGktMC5kdGQiIHhtbG5zOmlua3NjYXBlPSJodHRwOi8vd3d3Lmlua3NjYXBlLm9yZy9uYW1lc3BhY2VzL2lua3NjYXBlIiB2ZXJzaW9uPSIxLjEiIGlkPSJzdmc0OTI1OSIgaW5rc2NhcGU6dmVyc2lvbj0iMC45Mi4zICgyNDA1NTQ2LCAyMDE4LTAzLTExKSIgc29kaXBvZGk6ZG9jbmFtZT0iYXBwbGljYXRpb25fZ2F0ZXdheS5zdmciIHg9IjBweCIgeT0iMHB4IiB2aWV3Qm94PSIwIDAgMTAwLjMxIDEwMC4xMSIgeG1sOnNwYWNlPSJwcmVzZXJ2ZSIgd2lkdGg9IjEwMC4zMSIgaGVpZ2h0PSIxMDAuMTEiPjxtZXRhZGF0YSBpZD0ibWV0YWRhdGExNjMzNSI+PHJkZjpSREY+PGNjOldvcmsgcmRmOmFib3V0PSIiPjxkYzpmb3JtYXQ+aW1hZ2Uvc3ZnK3htbDwvZGM6Zm9ybWF0PjxkYzp0eXBlIHJkZjpyZXNvdXJjZT0iaHR0cDovL3B1cmwub3JnL2RjL2RjbWl0eXBlL1N0aWxsSW1hZ2UiLz48ZGM6dGl0bGUvPjwvY2M6V29yaz48L3JkZjpSREY+PC9tZXRhZGF0YT48ZGVmcyBpZD0iZGVmczE2MzMzIi8+JiN4YTs8ZmlsdGVyIGlkPSJmaWx0ZXJfMiI+JiN4YTsJPGZlR2F1c3NpYW5CbHVyIGlkPSJmZUdhdXNzaWFuQmx1cjQ5MTg0IiBzdGREZXZpYXRpb249IjIiLz4mI3hhOzwvZmlsdGVyPiYjeGE7PHNvZGlwb2RpOm5hbWVkdmlldyBib3JkZXJjb2xvcj0iIzY2NjY2NiIgYm9yZGVyb3BhY2l0eT0iMSIgZml0LW1hcmdpbi1ib3R0b209IjAiIGZpdC1tYXJnaW4tbGVmdD0iMCIgZml0LW1hcmdpbi1yaWdodD0iMCIgZml0LW1hcmdpbi10b3A9IjAiIGdyaWR0b2xlcmFuY2U9IjEwIiBndWlkZXRvbGVyYW5jZT0iMTAiIGlkPSJuYW1lZHZpZXc0OTI2MSIgaW5rc2NhcGU6Y3VycmVudC1sYXllcj0ic3ZnNDkyNTkiIGlua3NjYXBlOmN4PSIzNy42OTE3NzEiIGlua3NjYXBlOmN5PSI0OC40MTY5MjYiIGlua3NjYXBlOnBhZ2VvcGFjaXR5PSIwIiBpbmtzY2FwZTpwYWdlc2hhZG93PSIyIiBpbmtzY2FwZTp3aW5kb3ctaGVpZ2h0PSIxMDE3IiBpbmtzY2FwZTp3aW5kb3ctbWF4aW1pemVkPSIxIiBpbmtzY2FwZTp3aW5kb3ctd2lkdGg9IjE5MjAiIGlua3NjYXBlOndpbmRvdy14PSItOCIgaW5rc2NhcGU6d2luZG93LXk9Ii04IiBpbmtzY2FwZTp6b29tPSI1LjIxOTMxOTgiIG9iamVjdHRvbGVyYW5jZT0iMTAiIHBhZ2Vjb2xvcj0iI2ZmZmZmZiIgc2hvd2dyaWQ9ImZhbHNlIj4mI3hhOwk8L3NvZGlwb2RpOm5hbWVkdmlldz4mI3hhOyYjeGE7PHBhdGggaWQ9InBhdGg0OTE5NyIgaW5rc2NhcGU6Y29ubmVjdG9yLWN1cnZhdHVyZT0iMCIgc3R5bGU9ImZpbGw6IzdmYmEwMCIgZD0ibSA1MC4wNSwxMDAuMTEgYyAtMi40LDAgLTQuOCwtMS4wMSAtNi42LC0yLjgxIEwgMi44LDU2LjY2IEMgMSw1NC44NiAwLDUyLjQ2IDAsNTAuMDUgYyAwLC0yLjQgMSwtNC44IDIuOCwtNi42IEwgNDMuNDUsMi44IEMgNDUuMjUsMSA0Ny42NSwwIDUwLjA1LDAgYyAyLjQxLDAgNC44MSwxIDYuNjEsMi44IEwgOTcuNSw0My42NSBjIDEuOCwxLjggMi44MSw0IDIuODEsNi42IDAsMi40MSAtMS4wMSw0LjgxIC0yLjgxLDYuNjEgTCA1Ni42Niw5Ny4zIGMgLTEuOCwxLjggLTQuMiwyLjgxIC02LjYxLDIuODEgeiIvPiYjeGE7JiN4YTs8cGF0aCBpZD0icGF0aDQ5MjA1IiBpbmtzY2FwZTpjb25uZWN0b3ItY3VydmF0dXJlPSIwIiBzdHlsZT0iZmlsbDojZmZmZmZmIiBkPSJtIDU5LjU0LDM3LjIgYyAtMi44LDIuMTQgLTYuMDksMy4xOSAtOS4zNywzLjE5IC00LjY0LDAgLTkuMjQsLTIuMDkgLTEyLjI3LC02LjA2IC01LjE5LC02Ljc3IC0zLjkxLC0xNi40NiAyLjg3LC0yMS42NSAyLjgsLTIuMTUgNi4xLC0zLjE4IDkuMzcsLTMuMTggNC42NSwwIDkuMjQsMi4wOSAxMi4yOCw2LjA2IDUuMTgsNi43OCAzLjg5LDE2LjQ2IC0yLjg4LDIxLjY0IHoiLz4mI3hhOyYjeGE7PHBhdGggaWQ9InBhdGg0OTIxMyIgaW5rc2NhcGU6Y29ubmVjdG9yLWN1cnZhdHVyZT0iMCIgc3R5bGU9ImZpbGw6I2ZmZmZmZjtmaWxsLW9wYWNpdHk6MC4xNSIgZD0iTSA1Ni42NiwyLjggQyA1NC44NiwxIDUyLjQ2LDAgNTAuMDUsMCBjIC0yLjQsMCAtNC44LDEgLTYuNiwyLjggTCAyLjgsNDMuNDUgQyAxLDQ1LjI1IDAsNDcuNjUgMCw1MC4wNSBjIDAsMi40MSAxLDQuODEgMi44LDYuNjEgTCAyNS44Myw3OS42OSA2OS4yNywxNS40MiBaIi8+JiN4YTsmI3hhOzxwYXRoIGlkPSJwYXRoNDkyMjEiIGlua3NjYXBlOmNvbm5lY3Rvci1jdXJ2YXR1cmU9IjAiIHN0eWxlPSJmaWxsOiNmZmZmZmYiIGQ9Ik0gNTAuMDUsOTEuMyA2My4yNyw3OC4wOCBIIDUzLjg2IFYgMzguMzQgaCAtNy44MSB2IDM5Ljc0IGggLTkuMjEgeiIvPiYjeGE7JiN4YTs8cGF0aCBpZD0icGF0aDQ5MjI5IiBpbmtzY2FwZTpjb25uZWN0b3ItY3VydmF0dXJlPSIwIiBzdHlsZT0iZmlsbDojZmZmZmZmIiBkPSJNIDc4Ljc0LDY3LjA0IFYgNDguMzUgbCAtNi41MSw2LjUxIC0xNi45MSwtMTYuOTEgLTUuNjYsNS42NyAxNi45MSwxNi45IC02LjUyLDYuNTIgeiIvPiYjeGE7JiN4YTs8cGF0aCBpZD0icGF0aDQ5MjM3IiBpbmtzY2FwZTpjb25uZWN0b3ItY3VydmF0dXJlPSIwIiBzdHlsZT0iZmlsbDojZmZmZmZmIiBkPSJNIDIxLjM5LDY3LjExIEggNDAuMDggTCAzMy41Niw2MC41OSA1MC45NSw0My4yMSA0NS4yOCwzNy41NSAyNy45LDU0LjkzIDIxLjM5LDQ4LjQyIFoiLz4mI3hhOyYjeGE7PHBhdGggaWQ9InBhdGg0OTI0NSIgaW5rc2NhcGU6Y29ubmVjdG9yLWN1cnZhdHVyZT0iMCIgc3R5bGU9ImZpbGw6IzU5YjRkOSIgZD0ibSA1OC4yOSwzNS41OCBjIC0yLjQyLDEuODUgLTUuMjgsMi43NiAtOC4xMiwyLjc2IC00LjAzLDAgLTguMDEsLTEuODEgLTEwLjY0LC01LjI2IC00LjUsLTUuODcgLTMuMzksLTE0LjI3IDIuNDksLTE4Ljc3IDIuNDMsLTEuODYgNS4yOSwtMi43NSA4LjEyLC0yLjc1IDQuMDMsMCA4LjAyLDEuOCAxMC42NSw1LjI1IDQuNSw1Ljg3IDMuMzgsMTQuMjcgLTIuNSwxOC43NyB6Ii8+JiN4YTsmI3hhOzxwYXRoIGlkPSJwYXRoNDkyNTMiIGlua3NjYXBlOmNvbm5lY3Rvci1jdXJ2YXR1cmU9IjAiIHN0eWxlPSJmaWxsOiNmZmZmZmYiIGQ9Im0gNTUuODMsMjcuMyBjIDAuOTgsMS4yNyAyLjc4LDEuNDkgNC4wNCwwLjU0IDAuMDcsLTAuMDUgMC4xMiwtMC4xMiAwLjE4LC0wLjE3IDEuMjksMC45MSAyLjE4LDEuNTEgMi42OSwxLjg1IDAuMTUsLTAuMzkgMC4yNSwtMC43NiAwLjM2LC0xLjE1IC0wLjUzLC0wLjM5IC0xLjI2LC0wLjk1IC0yLjMsLTEuNzkgMC4zNCwtMC45IDAuMjMsLTEuOTUgLTAuMzksLTIuNzggLTAuOSwtMS4xNSAtMi40OCwtMS40NSAtMy43MiwtMC43MyAtMS4zNiwtMS4yMyAtMi44NiwtMi42MyAtNC40NCwtNC4yIDQuOTEsLTIuNjQgOC40LC0yLjI1IDguNCwtMi4yNSAtMC41OSwtMC43NSAtMS4yNCwtMS40IC0xLjkzLC0xLjk4IC0yLjA3LC0wLjMyIC01LjI5LC0wLjI5IC04Ljk3LDEuNjcgViAxNi4zIGMgLTEuMjIsLTEuMjggLTIuNDcsLTIuNjUgLTMuNzQsLTQuMTMgLTAuNiwwLjIgLTEuMiwwLjQ0IC0xLjc3LDAuNzMgMC45MywxLjUzIDIuMiwzLjA3IDMuNjIsNC41OCAwLDAuMDEgMCwwLjAxIDAuMDEsMC4wMSAtMS4xOSwwLjgzIC0yLjUxLDEuOTQgLTMuNzIsMy4yMyAtMC4xNiwwLjE2IC0wLjMxLDAuMzMgLTAuNDUsMC40OSAtMC43MywtMC4xNSAtMS41LC0wLjEgLTIuMjEsMC4xNSAtMS4yMSwtMi42MSAtMS4xMiwtNC43MSAtMC45MiwtNS44IC0wLjUzLDAuNTUgLTEuMDIsMS4xMyAtMS40NSwxLjc1IC0wLjMxLDEuMyAtMC40LDMuMTYgMC41Myw1LjQxIC0xLjA4LDEuNDIgLTEuMTMsMy40MiAwLDQuOSAwLjEsMC4xMiAwLjIsMC4yNCAwLjMsMC4zNSAtMC40OSwxLjY4IC0wLjcxLDMuMyAtMC43OCw0LjY5IDAuMTIsMC4xNyAwLjEyLDAuMzEgMC4yNSwwLjQ4IDAuNjQsMC44MyAxLjQ1LDEuNTIgMi4yMywyLjE1IC0wLjEsLTEuNDcgMC4wMSwtMy42NSAwLjkyLC02LjA5IDAuNjMsMC4wNCAxLjI3LC0wLjA2IDEuODYsLTAuMzEgMC4zNSwwLjMxIDAuNywwLjYxIDEuMDksMC45MiAxLjMxLDEuMDQgMi42MiwxLjg1IDMuOSwyLjQ5IC0wLjA2LDAuNjUgMC4xLDEuMzIgMC41MiwxLjg4IDAuOSwxLjE3IDIuNTcsMS4zOSAzLjc0LDAuNDkgMC4yNCwtMC4xOCAwLjQzLC0wLjQxIDAuNTksLTAuNjUgMi4wOSwwLjQ3IDMuOTEsMC41NSA1LjI2LDAuNTUgMC4yLDAgMS4xNiwtMS4zMSAxLjcxLC0yLjExIC0wLjgyLDAuMTcgLTMuMjYsMC41IC02LjU5LC0wLjQ1IC0wLjA4LC0wLjM4IC0wLjIzLC0wLjc0IC0wLjQ4LC0xLjA3IC0wLjg0LC0xLjEgLTIuMzksLTEuMzUgLTMuNTQsLTAuNiAtMS4xNiwtMC42MyAtMi4zNywtMS40MiAtMy42MiwtMi40MSAtMC4yNiwtMC4yIC0wLjUsLTAuNCAtMC43MywtMC42IDAuNzYsLTEuMiAwLjg0LC0yLjc0IDAuMTcsLTQuMDQgMC4xNSwtMC4xNSAwLjMsLTAuMzEgMC40NiwtMC40NiAxLjI0LC0xLjE2IDIuNDEsLTIuMDggMy41LC0yLjgyIC0wLjA1LC0wLjA0IC0wLjA5LC0wLjA5IC0wLjEzLC0wLjEzIDAuMDQsMC4wNCAwLjA4LDAuMDggMC4xMywwLjEyIHYgMCBjIDEuNjcsMS41NSAzLjQ0LDMuMDIgNS4xMiw0LjMzIC0wLjQ0LDAuOTQgLTAuMzcsMi4wOCAwLjMsMi45NyB6Ii8+JiN4YTs8L3N2Zz4=;" vertex="1" parent="MDKrXGUxuNkiesA0UJKx-26">
          <mxGeometry x="17.049999999999944" y="223.65" width="100" height="100" as="geometry" />
        </mxCell>
        <mxCell id="MDKrXGUxuNkiesA0UJKx-18" value="" style="shape=image;verticalLabelPosition=bottom;labelBackgroundColor=#ffffff;verticalAlign=top;aspect=fixed;imageAspect=0;image=data:image/svg+xml,PHN2ZyB4bWxuczpjYz0iaHR0cDovL2NyZWF0aXZlY29tbW9ucy5vcmcvbnMjIiB4bWxuczpkYz0iaHR0cDovL3B1cmwub3JnL2RjL2VsZW1lbnRzLzEuMS8iIHhtbG5zOmlua3NjYXBlPSJodHRwOi8vd3d3Lmlua3NjYXBlLm9yZy9uYW1lc3BhY2VzL2lua3NjYXBlIiB4bWxuczpyZGY9Imh0dHA6Ly93d3cudzMub3JnLzE5OTkvMDIvMjItcmRmLXN5bnRheC1ucyMiIHhtbG5zOnNvZGlwb2RpPSJodHRwOi8vc29kaXBvZGkuc291cmNlZm9yZ2UubmV0L0RURC9zb2RpcG9kaS0wLmR0ZCIgeG1sbnM6c3ZnPSJodHRwOi8vd3d3LnczLm9yZy8yMDAwL3N2ZyIgeG1sbnM9Imh0dHA6Ly93d3cudzMub3JnLzIwMDAvc3ZnIiB4bWxuczp4bGluaz0iaHR0cDovL3d3dy53My5vcmcvMTk5OS94bGluayIgdmVyc2lvbj0iMS4xIiBpZD0ic3ZnOTkyNDkiIGlua3NjYXBlOnZlcnNpb249IjAuOTIuMyAoMjQwNTU0NiwgMjAxOC0wMy0xMSkiIHNvZGlwb2RpOmRvY25hbWU9InN1Ym5ldHMuc3ZnIiB4PSIwcHgiIHk9IjBweCIgdmlld0JveD0iMCAwIDM0Ljg0IDIxLjYxIiBzdHlsZT0iZW5hYmxlLWJhY2tncm91bmQ6bmV3IDAgMCAzNC44NCAyMS42MTsiIHhtbDpzcGFjZT0icHJlc2VydmUiPiYjeGE7PHNvZGlwb2RpOm5hbWVkdmlldyBib3JkZXJjb2xvcj0iIzY2NjY2NiIgYm9yZGVyb3BhY2l0eT0iMSIgZml0LW1hcmdpbi1ib3R0b209IjAiIGZpdC1tYXJnaW4tbGVmdD0iMCIgZml0LW1hcmdpbi1yaWdodD0iMCIgZml0LW1hcmdpbi10b3A9IjAiIGdyaWR0b2xlcmFuY2U9IjEwIiBndWlkZXRvbGVyYW5jZT0iMTAiIGlkPSJuYW1lZHZpZXc5OTI1MSIgaW5rc2NhcGU6Y3VycmVudC1sYXllcj0ic3ZnOTkyNDkiIGlua3NjYXBlOmN4PSI0MC45MTcxNDUiIGlua3NjYXBlOmN5PSIwLjYzNzUyNTg2IiBpbmtzY2FwZTpwYWdlb3BhY2l0eT0iMCIgaW5rc2NhcGU6cGFnZXNoYWRvdz0iMiIgaW5rc2NhcGU6d2luZG93LWhlaWdodD0iMTAxNyIgaW5rc2NhcGU6d2luZG93LW1heGltaXplZD0iMSIgaW5rc2NhcGU6d2luZG93LXdpZHRoPSIxOTIwIiBpbmtzY2FwZTp3aW5kb3cteD0iLTgiIGlua3NjYXBlOndpbmRvdy15PSItOCIgaW5rc2NhcGU6em9vbT0iMTAuNjM5NDk0IiBvYmplY3R0b2xlcmFuY2U9IjEwIiBwYWdlY29sb3I9IiNmZmZmZmYiIHNob3dncmlkPSJmYWxzZSI+JiN4YTsJPC9zb2RpcG9kaTpuYW1lZHZpZXc+JiN4YTs8ZyBpZD0iZzk5MjQ3IiB0cmFuc2Zvcm09InRyYW5zbGF0ZSgtNC4yMzMxNzQ5ZS01KSI+JiN4YTsJPHRpdGxlIGlkPSJ0aXRsZTk5MjI3Ij5QYWdlLTE8L3RpdGxlPiYjeGE7CTxnIGlkPSJncm91cDQ2NTQtMSI+JiN4YTsJCTx0aXRsZSBpZD0idGl0bGU5OTIyOSI+U3VibmV0czwvdGl0bGU+JiN4YTsJCTxnIGlkPSJzaGFwZTQ2NTUtMiIgdHJhbnNmb3JtPSJ0cmFuc2xhdGUoMjIuNjEzKSI+JiN4YTsJCQk8dGl0bGUgaWQ9InRpdGxlOTkyMzEiPlNoZWV0LjQ2NTU8L3RpdGxlPiYjeGE7CQkJPHBhdGggaWQ9InBhdGg5OTIzMyIgaW5rc2NhcGU6Y29ubmVjdG9yLWN1cnZhdHVyZT0iMCIgc3R5bGU9ImZpbGw6IzM5OTlDNjsiIGQ9Ik0xMi4yMywxMC42OEw5Ljg0LDguMjlMMS4zOSwwTDAsMS4yNmw5LjU4LDkuNDIgICAgIEwwLDIwLjM1bDEuMzksMS4yNmw4LjQ1LTguM0wxMi4yMywxMC42OHoiLz4mI3hhOwkJPC9nPiYjeGE7CQk8ZyBpZD0ic2hhcGU0NjU2LTQiPiYjeGE7CQkJPHRpdGxlIGlkPSJ0aXRsZTk5MjM2Ij5TaGVldC40NjU2PC90aXRsZT4mI3hhOwkJCTxwYXRoIGlkPSJwYXRoOTkyMzgiIGlua3NjYXBlOmNvbm5lY3Rvci1jdXJ2YXR1cmU9IjAiIHN0eWxlPSJmaWxsOiMzOTk5QzY7IiBkPSJNMCwxMC42OGwyLjM5LTIuMzlMMTAuODQsMGwxLjM5LDEuMjYgICAgIGwtOS41OCw5LjQybDkuNTgsOS42N2wtMS4zOSwxLjI2bC04LjQ1LTguM0wwLDEwLjY4eiIvPiYjeGE7CQk8L2c+JiN4YTsJCTxnIGlkPSJzaGFwZTQ2NTctNiIgdHJhbnNmb3JtPSJ0cmFuc2xhdGUoMTQuODY4NSwtOC41MzE5NykiPiYjeGE7CQkJPHRpdGxlIGlkPSJ0aXRsZTk5MjQxIj5TaGVldC40NjU3PC90aXRsZT4mI3hhOwkJCTxwYXRoIGlkPSJwYXRoOTkyNDMiIGlua3NjYXBlOmNvbm5lY3Rvci1jdXJ2YXR1cmU9IjAiIHN0eWxlPSJmaWxsOiM3RkJBMDA7IiBkPSJNNC45MSwxOS4yMWMwLDEuMzgtMS4xMywyLjQtMi4zOSwyLjQgICAgIFMwLDIwLjQ2LDAsMTkuMjFjMC0xLjI2LDEuMTMtMi4zOCwyLjUyLTIuMzhTNC45MSwxNy45NSw0LjkxLDE5LjIxeiIvPiYjeGE7CQk8L2c+JiN4YTsJPC9nPiYjeGE7PC9nPiYjeGE7PC9zdmc+;" vertex="1" parent="MDKrXGUxuNkiesA0UJKx-26">
          <mxGeometry x="117.05" y="80" width="42.95" height="27" as="geometry" />
        </mxCell>
        <mxCell id="MDKrXGUxuNkiesA0UJKx-57" style="edgeStyle=orthogonalEdgeStyle;rounded=0;orthogonalLoop=1;jettySize=auto;html=1;entryX=1;entryY=0.5;entryDx=0;entryDy=0;" edge="1" parent="MDKrXGUxuNkiesA0UJKx-26" source="MDKrXGUxuNkiesA0UJKx-3" target="MDKrXGUxuNkiesA0UJKx-14">
          <mxGeometry relative="1" as="geometry" />
        </mxCell>
        <mxCell id="MDKrXGUxuNkiesA0UJKx-3" value="" style="shape=image;verticalLabelPosition=bottom;labelBackgroundColor=#ffffff;verticalAlign=top;aspect=fixed;imageAspect=0;image=data:image/svg+xml,PHN2ZyB4bWxuczpkYz0iaHR0cDovL3B1cmwub3JnL2RjL2VsZW1lbnRzLzEuMS8iIHhtbG5zOmNjPSJodHRwOi8vY3JlYXRpdmVjb21tb25zLm9yZy9ucyMiIHhtbG5zOnJkZj0iaHR0cDovL3d3dy53My5vcmcvMTk5OS8wMi8yMi1yZGYtc3ludGF4LW5zIyIgeG1sbnM6c3ZnPSJodHRwOi8vd3d3LnczLm9yZy8yMDAwL3N2ZyIgeG1sbnM9Imh0dHA6Ly93d3cudzMub3JnLzIwMDAvc3ZnIiB4bWxuczpzb2RpcG9kaT0iaHR0cDovL3NvZGlwb2RpLnNvdXJjZWZvcmdlLm5ldC9EVEQvc29kaXBvZGktMC5kdGQiIHhtbG5zOmlua3NjYXBlPSJodHRwOi8vd3d3Lmlua3NjYXBlLm9yZy9uYW1lc3BhY2VzL2lua3NjYXBlIiB2ZXJzaW9uPSIxLjEiIGlkPSJzdmc2NjA5NiIgaW5rc2NhcGU6dmVyc2lvbj0iMC45Mi4zICgyNDA1NTQ2LCAyMDE4LTAzLTExKSIgc29kaXBvZGk6ZG9jbmFtZT0iYXp1cmVfdm1fc2NhbGVfc2V0LnN2ZyIgeD0iMHB4IiB5PSIwcHgiIHZpZXdCb3g9IjAgMCAzNy41IDM3LjUiIHhtbDpzcGFjZT0icHJlc2VydmUiIHdpZHRoPSIzNy41IiBoZWlnaHQ9IjM3LjUiPjxtZXRhZGF0YSBpZD0ibWV0YWRhdGEyMDk1NyI+PHJkZjpSREY+PGNjOldvcmsgcmRmOmFib3V0PSIiPjxkYzpmb3JtYXQ+aW1hZ2Uvc3ZnK3htbDwvZGM6Zm9ybWF0PjxkYzp0eXBlIHJkZjpyZXNvdXJjZT0iaHR0cDovL3B1cmwub3JnL2RjL2RjbWl0eXBlL1N0aWxsSW1hZ2UiLz48ZGM6dGl0bGUvPjwvY2M6V29yaz48L3JkZjpSREY+PC9tZXRhZGF0YT48ZGVmcyBpZD0iZGVmczIwOTU1Ii8+JiN4YTs8ZmlsdGVyIGlkPSJmaWx0ZXJfMiI+JiN4YTsJPGZlR2F1c3NpYW5CbHVyIGlkPSJmZUdhdXNzaWFuQmx1cjY1OTMzIiBzdGREZXZpYXRpb249IjIiLz4mI3hhOzwvZmlsdGVyPiYjeGE7PHNvZGlwb2RpOm5hbWVkdmlldyBib3JkZXJjb2xvcj0iIzY2NjY2NiIgYm9yZGVyb3BhY2l0eT0iMSIgZml0LW1hcmdpbi1ib3R0b209IjAiIGZpdC1tYXJnaW4tbGVmdD0iMCIgZml0LW1hcmdpbi1yaWdodD0iMCIgZml0LW1hcmdpbi10b3A9IjAiIGdyaWR0b2xlcmFuY2U9IjEwIiBndWlkZXRvbGVyYW5jZT0iMTAiIGlkPSJuYW1lZHZpZXc2NjA5OCIgaW5rc2NhcGU6Y3VycmVudC1sYXllcj0ic3ZnNjYwOTYiIGlua3NjYXBlOmN4PSItNS43MTM2Mjk5IiBpbmtzY2FwZTpjeT0iOC42NTU1MTUzIiBpbmtzY2FwZTpwYWdlb3BhY2l0eT0iMCIgaW5rc2NhcGU6cGFnZXNoYWRvdz0iMiIgaW5rc2NhcGU6d2luZG93LWhlaWdodD0iMTAxNyIgaW5rc2NhcGU6d2luZG93LW1heGltaXplZD0iMSIgaW5rc2NhcGU6d2luZG93LXdpZHRoPSIxOTIwIiBpbmtzY2FwZTp3aW5kb3cteD0iLTgiIGlua3NjYXBlOndpbmRvdy15PSItOCIgaW5rc2NhcGU6em9vbT0iMTAuNTcwMDIyIiBvYmplY3R0b2xlcmFuY2U9IjEwIiBwYWdlY29sb3I9IiNmZmZmZmYiIHNob3dncmlkPSJmYWxzZSI+JiN4YTsJPC9zb2RpcG9kaTpuYW1lZHZpZXc+JiN4YTsmI3hhOzxwYXRoIGlkPSJwYXRoNjU5NDYiIGlua3NjYXBlOmNvbm5lY3Rvci1jdXJ2YXR1cmU9IjAiIHN0eWxlPSJmaWxsOiNhMGExYTIiIGQ9Ik0gMjYuNzksMCBIIDEuNTUgQyAwLjY5LDAgMCwwLjc3IDAsMS42MiBWIDE5LjIgYyAwLDAuODUgMC42OSwxLjYxIDEuNTUsMS42MSBoIDI1LjI0IGMgMC44NiwwIDEuNzIsLTAuNzYgMS43MiwtMS42MSBWIDEuNjIgQyAyOC41MSwwLjc2IDI3LjY1LDAgMjYuNzksMCBaIi8+JiN4YTsmI3hhOzxwYXRoIGlkPSJwYXRoNjU5NTQiIGlua3NjYXBlOmNvbm5lY3Rvci1jdXJ2YXR1cmU9IjAiIHN0eWxlPSJmaWxsOiNmZmZmZmY7ZmlsbC1vcGFjaXR5OjAuMiIgZD0iTSAyNi44MSwwIEMgMjYuOCwwIDI2LjgsMCAyNi43OSwwIEggMS41NSBDIDAuNjksMCAwLDAuNzcgMCwxLjYyIFYgMTkuMiBjIDAsMC44NSAwLjY5LDEuNjEgMS41NSwxLjYxIGggMC42IHoiLz4mI3hhOyYjeGE7PHBhdGggaWQ9InBhdGg2NTk2MiIgaW5rc2NhcGU6Y29ubmVjdG9yLWN1cnZhdHVyZT0iMCIgc3R5bGU9ImZpbGw6IzU5YjRkOSIgZD0iTSAyNi4zNSwxOC42MiBIIDIuMTYgViAyLjE5IEwgMjYuMzUsMi4xNiBaIi8+JiN4YTsmI3hhOzxwYXRoIGlkPSJwYXRoNjU5NzAiIGlua3NjYXBlOmNvbm5lY3Rvci1jdXJ2YXR1cmU9IjAiIHN0eWxlPSJmaWxsOiNiOGQ0MzIiIGQ9Im0gMTQuNTUsMS4yIGMgMCwwLjIyIC0wLjE4LDAuNCAtMC40MSwwLjQgLTAuMjIsMCAtMC40LC0wLjE4IC0wLjQsLTAuNCAwLC0wLjIzIDAuMTgsLTAuNDEgMC40LC0wLjQxIDAuMjMsMCAwLjQxLDAuMTggMC40MSwwLjQxIHoiLz4mI3hhOyYjeGE7PHBhdGggaWQ9InBhdGg2NTk3OCIgaW5rc2NhcGU6Y29ubmVjdG9yLWN1cnZhdHVyZT0iMCIgc3R5bGU9ImZpbGw6I2ZmZmZmZiIgZD0iTSAxNC41Nyw5LjkxIEMgMTQuNTUsOS45MSAxNC41Miw5LjkgMTQuNSw5Ljg5IEwgOS40Nyw2Ljk5IEMgOS40Myw2Ljk3IDkuNCw2LjkyIDkuNCw2Ljg2IDkuNCw2LjgxIDkuNDMsNi43NiA5LjQ3LDYuNzMgbCA1LC0yLjg3IGMgMC4wNCwtMC4wMyAwLjEsLTAuMDMgMC4xNSwwIGwgNS4wMiwyLjg5IGMgMC4wNCwwLjAzIDAuMDcsMC4wOCAwLjA3LDAuMTMgMCwwLjA2IC0wLjAyLDAuMTEgLTAuMDcsMC4xMyBMIDE0LjY1LDkuODkgQyAxNC42Myw5LjkgMTQuNiw5LjkxIDE0LjU3LDkuOTEgWiIvPiYjeGE7JiN4YTs8cGF0aCBpZD0icGF0aDY1OTg2IiBpbmtzY2FwZTpjb25uZWN0b3ItY3VydmF0dXJlPSIwIiBzdHlsZT0iZmlsbDojYTBhMWEyIiBkPSJNIDMxLjI1LDUuNTkgSCA2LjAxIGMgLTAuODYsMCAtMS41NSwwLjc3IC0xLjU1LDEuNjIgdiAxNy41OCBjIDAsMC44NSAwLjY5LDEuNjEgMS41NSwxLjYxIGggMjUuMjQgYyAwLjg2LDAgMS43MiwtMC43NiAxLjcyLC0xLjYxIFYgNy4yMSBjIDAsLTAuODYgLTAuODYsLTEuNjIgLTEuNzIsLTEuNjIgeiIvPiYjeGE7JiN4YTs8cGF0aCBpZD0icGF0aDY1OTk0IiBpbmtzY2FwZTpjb25uZWN0b3ItY3VydmF0dXJlPSIwIiBzdHlsZT0iZmlsbDojZmZmZmZmO2ZpbGwtb3BhY2l0eTowLjIiIGQ9Im0gMzEuMjcsNS41OSBjIC0wLjAxLDAgLTAuMDEsMCAtMC4wMiwwIEggNi4wMSBjIC0wLjg2LDAgLTEuNTUsMC43NyAtMS41NSwxLjYyIHYgMTcuNTggYyAwLDAuODUgMC42OSwxLjYxIDEuNTUsMS42MSBoIDAuNiB6Ii8+JiN4YTsmI3hhOzxwYXRoIGlkPSJwYXRoNjYwMDIiIGlua3NjYXBlOmNvbm5lY3Rvci1jdXJ2YXR1cmU9IjAiIHN0eWxlPSJmaWxsOiM1OWI0ZDkiIGQ9Ik0gMzAuODEsMjQuMjEgSCA2LjYyIFYgNy43OCBMIDMwLjgxLDcuNzUgYyAwLDAgMCwxNi40NiAwLDE2LjQ2IHoiLz4mI3hhOyYjeGE7PHBhdGggaWQ9InBhdGg2NjAxMCIgaW5rc2NhcGU6Y29ubmVjdG9yLWN1cnZhdHVyZT0iMCIgc3R5bGU9ImZpbGw6I2I4ZDQzMiIgZD0ibSAxOS4wMSw2Ljc5IGMgMCwwLjIyIC0wLjE4LDAuNCAtMC40MSwwLjQgLTAuMjIsMCAtMC40LC0wLjE4IC0wLjQsLTAuNCAwLC0wLjIzIDAuMTgsLTAuNDEgMC40LC0wLjQxIDAuMjMsMCAwLjQxLDAuMTggMC40MSwwLjQxIHoiLz4mI3hhOyYjeGE7PHBhdGggaWQ9InBhdGg2NjAxOCIgaW5rc2NhcGU6Y29ubmVjdG9yLWN1cnZhdHVyZT0iMCIgc3R5bGU9ImZpbGw6I2ZmZmZmZiIgZD0ibSAxOS4wMywxNS41IGMgLTAuMDIsMCAtMC4wNSwtMC4wMSAtMC4wNywtMC4wMiBsIC01LjAzLC0yLjkgYyAtMC4wNCwtMC4wMiAtMC4wNywtMC4wNyAtMC4wNywtMC4xMyAwLC0wLjA1IDAuMDMsLTAuMSAwLjA3LC0wLjEzIGwgNSwtMi44NyBjIDAuMDQsLTAuMDMgMC4xLC0wLjAzIDAuMTUsMCBsIDUuMDIsMi44OSBjIDAuMDQsMC4wMyAwLjA3LDAuMDggMC4wNywwLjEzIDAsMC4wNiAtMC4wMiwwLjExIC0wLjA3LDAuMTMgbCAtNC45OSwyLjg4IGMgLTAuMDMsMC4wMSAtMC4wNSwwLjAyIC0wLjA4LDAuMDIgeiIvPiYjeGE7JiN4YTs8cGF0aCBpZD0icGF0aDY2MDI2IiBpbmtzY2FwZTpjb25uZWN0b3ItY3VydmF0dXJlPSIwIiBzdHlsZT0iZmlsbDojN2E3YTdhIiBkPSJNIDI3LjQ4LDMyLjAyIEggMjYuOCAyMC4wNyAxOS43MiBjIDAuOTMsMy4yOSAtMC4zMiwzLjc2IC01LjgsMy43NiB2IDEuNzIgaCA2Ljk3IDUuMDkgNi41OCB2IC0xLjcyIGMgLTUuNDgsMCAtNi4wMiwtMC40NyAtNS4wOCwtMy43NiB6Ii8+JiN4YTsmI3hhOzxwYXRoIGlkPSJwYXRoNjYwMzQiIGlua3NjYXBlOmNvbm5lY3Rvci1jdXJ2YXR1cmU9IjAiIHN0eWxlPSJmaWxsOiNhMGExYTIiIGQ9Ik0gMzUuNzgsMTEuMjIgSCAxMC41NCBjIC0wLjg2LDAgLTEuNTUsMC43NyAtMS41NSwxLjYyIHYgMTcuNTggYyAwLDAuODUgMC42OSwxLjYxIDEuNTUsMS42MSBoIDI1LjI0IGMgMC44NiwwIDEuNzIsLTAuNzYgMS43MiwtMS42MSBWIDEyLjg0IGMgMCwtMC44NSAtMC44NiwtMS42MiAtMS43MiwtMS42MiB6Ii8+JiN4YTsmI3hhOzxwYXRoIGlkPSJwYXRoNjYwNDIiIGlua3NjYXBlOmNvbm5lY3Rvci1jdXJ2YXR1cmU9IjAiIHN0eWxlPSJmaWxsOiNmZmZmZmY7ZmlsbC1vcGFjaXR5OjAuMiIgZD0ibSAzNS43OSwxMS4yMiBjIC0wLjAxLDAgLTAuMDEsMCAtMC4wMiwwIEggMTAuNTMgYyAtMC44NiwwIC0xLjU1LDAuNzcgLTEuNTUsMS42MiB2IDE3LjU4IGMgMCwwLjg1IDAuNjksMS42MSAxLjU1LDEuNjEgaCAwLjYgeiIvPiYjeGE7JiN4YTs8cGF0aCBpZD0icGF0aDY2MDUwIiBpbmtzY2FwZTpjb25uZWN0b3ItY3VydmF0dXJlPSIwIiBzdHlsZT0iZmlsbDojNTliNGQ5IiBkPSJNIDM1LjM0LDI5Ljg0IEggMTEuMTUgViAxMy40MSBsIDI0LjE5LC0wLjAzIHoiLz4mI3hhOyYjeGE7PHJlY3QgaWQ9InJlY3Q2NjA1OCIgeD0iMTMuOTE5OTk4IiB5PSIzNS43Nzk5OTkiIHN0eWxlPSJmaWxsOiNhMGExYTIiIHdpZHRoPSIxOC42Mzk5OTkiIGhlaWdodD0iMS43MiIvPiYjeGE7JiN4YTs8cGF0aCBpZD0icGF0aDY2MDY2IiBpbmtzY2FwZTpjb25uZWN0b3ItY3VydmF0dXJlPSIwIiBzdHlsZT0iZmlsbDojYjhkNDMyIiBkPSJtIDIzLjU0LDEyLjQxIGMgMCwwLjIyIC0wLjE4LDAuNCAtMC40MSwwLjQgLTAuMjIsMCAtMC40LC0wLjE4IC0wLjQsLTAuNCAwLC0wLjIzIDAuMTgsLTAuNDEgMC40LC0wLjQxIDAuMjMsMCAwLjQxLDAuMTggMC40MSwwLjQxIHoiLz4mI3hhOyYjeGE7PHBhdGggaWQ9InBhdGg2NjA3NCIgaW5rc2NhcGU6Y29ubmVjdG9yLWN1cnZhdHVyZT0iMCIgc3R5bGU9ImZpbGw6I2ZmZmZmZiIgZD0ibSAyMy41NSwyMS4xMiBjIC0wLjAyLDAgLTAuMDUsLTAuMDEgLTAuMDcsLTAuMDIgbCAtNS4wMywtMi45IGMgLTAuMDQsLTAuMDIgLTAuMDcsLTAuMDcgLTAuMDcsLTAuMTMgMCwtMC4wNSAwLjAzLC0wLjEgMC4wNywtMC4xMyBsIDUsLTIuODcgYyAwLjA0LC0wLjAzIDAuMSwtMC4wMyAwLjE1LDAgbCA1LjAyLDIuODkgYyAwLjA0LDAuMDMgMC4wNywwLjA4IDAuMDcsMC4xMyAwLDAuMDYgLTAuMDIsMC4xMSAtMC4wNywwLjEzIGwgLTQuOTksMi44OCBjIC0wLjAyLDAuMDEgLTAuMDUsMC4wMiAtMC4wOCwwLjAyIHoiLz4mI3hhOyYjeGE7PHBhdGggaWQ9InBhdGg2NjA4MiIgaW5rc2NhcGU6Y29ubmVjdG9yLWN1cnZhdHVyZT0iMCIgc3R5bGU9ImZpbGw6I2ZmZmZmZjtmaWxsLW9wYWNpdHk6MC43IiBkPSJtIDIyLjgzLDI4LjE2IGMgLTAuMDMsMCAtMC4wNSwtMC4wMSAtMC4wOCwtMC4wMiBsIC01LC0yLjg5IEMgMTcuNywyNS4yMyAxNy42NywyNS4xOCAxNy42NywyNS4xMiB2IC01Ljc5IGMgMCwtMC4wNSAwLjAzLC0wLjEgMC4wOCwtMC4xMyAwLjA0LC0wLjAzIDAuMSwtMC4wMyAwLjE1LDAgbCA1LjAxLDIuODkgYyAwLjA0LDAuMDMgMC4wNywwLjA3IDAuMDcsMC4xMyB2IDUuNzkgYyAwLDAuMDUgLTAuMDMsMC4xIC0wLjA3LDAuMTMgLTAuMDMsMC4wMSAtMC4wNSwwLjAyIC0wLjA4LDAuMDIgeiIvPiYjeGE7JiN4YTs8cGF0aCBpZD0icGF0aDY2MDkwIiBpbmtzY2FwZTpjb25uZWN0b3ItY3VydmF0dXJlPSIwIiBzdHlsZT0iZmlsbDojZmZmZmZmO2ZpbGwtb3BhY2l0eTowLjQiIGQ9Im0gMjQuMjUsMjguMTYgYyAtMC4wMywwIC0wLjA1LC0wLjAxIC0wLjA4LC0wLjAyIC0wLjA0LC0wLjAzIC0wLjA3LC0wLjA4IC0wLjA3LC0wLjEzIHYgLTUuNzYgYyAwLC0wLjA1IDAuMDMsLTAuMSAwLjA3LC0wLjEzIGwgNS4wMSwtMi44OCBjIDAuMDUsLTAuMDMgMC4xLC0wLjAzIDAuMTUsMCAwLjA1LDAuMDMgMC4wOCwwLjA4IDAuMDgsMC4xMyB2IDUuNzUgYyAwLDAuMDYgLTAuMDMsMC4xMSAtMC4wOCwwLjE0IGwgLTUsMi44OCBjIC0wLjAzLDAuMDEgLTAuMDUsMC4wMiAtMC4wOCwwLjAyIHoiLz4mI3hhOzwvc3ZnPg==;" vertex="1" parent="MDKrXGUxuNkiesA0UJKx-26">
          <mxGeometry x="290" y="223.65" width="90" height="90" as="geometry" />
        </mxCell>
        <mxCell id="MDKrXGUxuNkiesA0UJKx-19" value="" style="shape=image;verticalLabelPosition=bottom;labelBackgroundColor=#ffffff;verticalAlign=top;aspect=fixed;imageAspect=0;image=data:image/svg+xml,PHN2ZyB4bWxuczpjYz0iaHR0cDovL2NyZWF0aXZlY29tbW9ucy5vcmcvbnMjIiB4bWxuczpkYz0iaHR0cDovL3B1cmwub3JnL2RjL2VsZW1lbnRzLzEuMS8iIHhtbG5zOmlua3NjYXBlPSJodHRwOi8vd3d3Lmlua3NjYXBlLm9yZy9uYW1lc3BhY2VzL2lua3NjYXBlIiB4bWxuczpyZGY9Imh0dHA6Ly93d3cudzMub3JnLzE5OTkvMDIvMjItcmRmLXN5bnRheC1ucyMiIHhtbG5zOnNvZGlwb2RpPSJodHRwOi8vc29kaXBvZGkuc291cmNlZm9yZ2UubmV0L0RURC9zb2RpcG9kaS0wLmR0ZCIgeG1sbnM6c3ZnPSJodHRwOi8vd3d3LnczLm9yZy8yMDAwL3N2ZyIgeG1sbnM9Imh0dHA6Ly93d3cudzMub3JnLzIwMDAvc3ZnIiB4bWxuczp4bGluaz0iaHR0cDovL3d3dy53My5vcmcvMTk5OS94bGluayIgdmVyc2lvbj0iMS4xIiBpZD0ic3ZnOTkyNDkiIGlua3NjYXBlOnZlcnNpb249IjAuOTIuMyAoMjQwNTU0NiwgMjAxOC0wMy0xMSkiIHNvZGlwb2RpOmRvY25hbWU9InN1Ym5ldHMuc3ZnIiB4PSIwcHgiIHk9IjBweCIgdmlld0JveD0iMCAwIDM0Ljg0IDIxLjYxIiBzdHlsZT0iZW5hYmxlLWJhY2tncm91bmQ6bmV3IDAgMCAzNC44NCAyMS42MTsiIHhtbDpzcGFjZT0icHJlc2VydmUiPiYjeGE7PHNvZGlwb2RpOm5hbWVkdmlldyBib3JkZXJjb2xvcj0iIzY2NjY2NiIgYm9yZGVyb3BhY2l0eT0iMSIgZml0LW1hcmdpbi1ib3R0b209IjAiIGZpdC1tYXJnaW4tbGVmdD0iMCIgZml0LW1hcmdpbi1yaWdodD0iMCIgZml0LW1hcmdpbi10b3A9IjAiIGdyaWR0b2xlcmFuY2U9IjEwIiBndWlkZXRvbGVyYW5jZT0iMTAiIGlkPSJuYW1lZHZpZXc5OTI1MSIgaW5rc2NhcGU6Y3VycmVudC1sYXllcj0ic3ZnOTkyNDkiIGlua3NjYXBlOmN4PSI0MC45MTcxNDUiIGlua3NjYXBlOmN5PSIwLjYzNzUyNTg2IiBpbmtzY2FwZTpwYWdlb3BhY2l0eT0iMCIgaW5rc2NhcGU6cGFnZXNoYWRvdz0iMiIgaW5rc2NhcGU6d2luZG93LWhlaWdodD0iMTAxNyIgaW5rc2NhcGU6d2luZG93LW1heGltaXplZD0iMSIgaW5rc2NhcGU6d2luZG93LXdpZHRoPSIxOTIwIiBpbmtzY2FwZTp3aW5kb3cteD0iLTgiIGlua3NjYXBlOndpbmRvdy15PSItOCIgaW5rc2NhcGU6em9vbT0iMTAuNjM5NDk0IiBvYmplY3R0b2xlcmFuY2U9IjEwIiBwYWdlY29sb3I9IiNmZmZmZmYiIHNob3dncmlkPSJmYWxzZSI+JiN4YTsJPC9zb2RpcG9kaTpuYW1lZHZpZXc+JiN4YTs8ZyBpZD0iZzk5MjQ3IiB0cmFuc2Zvcm09InRyYW5zbGF0ZSgtNC4yMzMxNzQ5ZS01KSI+JiN4YTsJPHRpdGxlIGlkPSJ0aXRsZTk5MjI3Ij5QYWdlLTE8L3RpdGxlPiYjeGE7CTxnIGlkPSJncm91cDQ2NTQtMSI+JiN4YTsJCTx0aXRsZSBpZD0idGl0bGU5OTIyOSI+U3VibmV0czwvdGl0bGU+JiN4YTsJCTxnIGlkPSJzaGFwZTQ2NTUtMiIgdHJhbnNmb3JtPSJ0cmFuc2xhdGUoMjIuNjEzKSI+JiN4YTsJCQk8dGl0bGUgaWQ9InRpdGxlOTkyMzEiPlNoZWV0LjQ2NTU8L3RpdGxlPiYjeGE7CQkJPHBhdGggaWQ9InBhdGg5OTIzMyIgaW5rc2NhcGU6Y29ubmVjdG9yLWN1cnZhdHVyZT0iMCIgc3R5bGU9ImZpbGw6IzM5OTlDNjsiIGQ9Ik0xMi4yMywxMC42OEw5Ljg0LDguMjlMMS4zOSwwTDAsMS4yNmw5LjU4LDkuNDIgICAgIEwwLDIwLjM1bDEuMzksMS4yNmw4LjQ1LTguM0wxMi4yMywxMC42OHoiLz4mI3hhOwkJPC9nPiYjeGE7CQk8ZyBpZD0ic2hhcGU0NjU2LTQiPiYjeGE7CQkJPHRpdGxlIGlkPSJ0aXRsZTk5MjM2Ij5TaGVldC40NjU2PC90aXRsZT4mI3hhOwkJCTxwYXRoIGlkPSJwYXRoOTkyMzgiIGlua3NjYXBlOmNvbm5lY3Rvci1jdXJ2YXR1cmU9IjAiIHN0eWxlPSJmaWxsOiMzOTk5QzY7IiBkPSJNMCwxMC42OGwyLjM5LTIuMzlMMTAuODQsMGwxLjM5LDEuMjYgICAgIGwtOS41OCw5LjQybDkuNTgsOS42N2wtMS4zOSwxLjI2bC04LjQ1LTguM0wwLDEwLjY4eiIvPiYjeGE7CQk8L2c+JiN4YTsJCTxnIGlkPSJzaGFwZTQ2NTctNiIgdHJhbnNmb3JtPSJ0cmFuc2xhdGUoMTQuODY4NSwtOC41MzE5NykiPiYjeGE7CQkJPHRpdGxlIGlkPSJ0aXRsZTk5MjQxIj5TaGVldC40NjU3PC90aXRsZT4mI3hhOwkJCTxwYXRoIGlkPSJwYXRoOTkyNDMiIGlua3NjYXBlOmNvbm5lY3Rvci1jdXJ2YXR1cmU9IjAiIHN0eWxlPSJmaWxsOiM3RkJBMDA7IiBkPSJNNC45MSwxOS4yMWMwLDEuMzgtMS4xMywyLjQtMi4zOSwyLjQgICAgIFMwLDIwLjQ2LDAsMTkuMjFjMC0xLjI2LDEuMTMtMi4zOCwyLjUyLTIuMzhTNC45MSwxNy45NSw0LjkxLDE5LjIxeiIvPiYjeGE7CQk8L2c+JiN4YTsJPC9nPiYjeGE7PC9nPiYjeGE7PC9zdmc+;" vertex="1" parent="MDKrXGUxuNkiesA0UJKx-26">
          <mxGeometry x="230" y="82.5" width="38.98" height="24.5" as="geometry" />
        </mxCell>
        <mxCell id="MDKrXGUxuNkiesA0UJKx-43" value="" style="edgeStyle=orthogonalEdgeStyle;rounded=0;orthogonalLoop=1;jettySize=auto;html=1;" edge="1" parent="MDKrXGUxuNkiesA0UJKx-26" source="MDKrXGUxuNkiesA0UJKx-13" target="MDKrXGUxuNkiesA0UJKx-2">
          <mxGeometry relative="1" as="geometry" />
        </mxCell>
        <mxCell id="MDKrXGUxuNkiesA0UJKx-13" value="" style="shape=image;verticalLabelPosition=bottom;labelBackgroundColor=#ffffff;verticalAlign=top;aspect=fixed;imageAspect=0;image=data:image/svg+xml,PHN2ZyB4bWxuczpjYz0iaHR0cDovL2NyZWF0aXZlY29tbW9ucy5vcmcvbnMjIiB4bWxuczpkYz0iaHR0cDovL3B1cmwub3JnL2RjL2VsZW1lbnRzLzEuMS8iIHhtbG5zOmlua3NjYXBlPSJodHRwOi8vd3d3Lmlua3NjYXBlLm9yZy9uYW1lc3BhY2VzL2lua3NjYXBlIiB4bWxuczpyZGY9Imh0dHA6Ly93d3cudzMub3JnLzE5OTkvMDIvMjItcmRmLXN5bnRheC1ucyMiIHhtbG5zOnNvZGlwb2RpPSJodHRwOi8vc29kaXBvZGkuc291cmNlZm9yZ2UubmV0L0RURC9zb2RpcG9kaS0wLmR0ZCIgeG1sbnM6c3ZnPSJodHRwOi8vd3d3LnczLm9yZy8yMDAwL3N2ZyIgeG1sbnM9Imh0dHA6Ly93d3cudzMub3JnLzIwMDAvc3ZnIiB4bWxuczp4bGluaz0iaHR0cDovL3d3dy53My5vcmcvMTk5OS94bGluayIgdmVyc2lvbj0iMS4xIiBpZD0ic3ZnODc3MDAiIGlua3NjYXBlOnZlcnNpb249IjAuOTIuMyAoMjQwNTU0NiwgMjAxOC0wMy0xMSkiIHNvZGlwb2RpOmRvY25hbWU9Im5ldHdvcmtfc2VjdXJpdHlfZ3JvdXAuc3ZnIiB4PSIwcHgiIHk9IjBweCIgdmlld0JveD0iMCAwIDIyLjgzIDMxLjEyIiBzdHlsZT0iZW5hYmxlLWJhY2tncm91bmQ6bmV3IDAgMCAyMi44MyAzMS4xMjsiIHhtbDpzcGFjZT0icHJlc2VydmUiPiYjeGE7PHNvZGlwb2RpOm5hbWVkdmlldyBib3JkZXJjb2xvcj0iIzY2NjY2NiIgYm9yZGVyb3BhY2l0eT0iMSIgZml0LW1hcmdpbi1ib3R0b209IjAiIGZpdC1tYXJnaW4tbGVmdD0iMCIgZml0LW1hcmdpbi1yaWdodD0iMCIgZml0LW1hcmdpbi10b3A9IjAiIGdyaWR0b2xlcmFuY2U9IjEwIiBndWlkZXRvbGVyYW5jZT0iMTAiIGlkPSJuYW1lZHZpZXc4NzcwMiIgaW5rc2NhcGU6Y3VycmVudC1sYXllcj0ic3ZnODc3MDAiIGlua3NjYXBlOmN4PSI3Ljc4MzU0ODIiIGlua3NjYXBlOmN5PSIxNi4yMjc2MjMiIGlua3NjYXBlOnBhZ2VvcGFjaXR5PSIwIiBpbmtzY2FwZTpwYWdlc2hhZG93PSIyIiBpbmtzY2FwZTp3aW5kb3ctaGVpZ2h0PSIxMDE3IiBpbmtzY2FwZTp3aW5kb3ctbWF4aW1pemVkPSIxIiBpbmtzY2FwZTp3aW5kb3ctd2lkdGg9IjE5MjAiIGlua3NjYXBlOndpbmRvdy14PSItOCIgaW5rc2NhcGU6d2luZG93LXk9Ii04IiBpbmtzY2FwZTp6b29tPSIxNC4wOTU3MzQiIG9iamVjdHRvbGVyYW5jZT0iMTAiIHBhZ2Vjb2xvcj0iI2ZmZmZmZiIgc2hvd2dyaWQ9ImZhbHNlIj4mI3hhOwk8L3NvZGlwb2RpOm5hbWVkdmlldz4mI3hhOzxnIGlkPSJnODc2OTgiIHRyYW5zZm9ybT0idHJhbnNsYXRlKC0wLjc1LC0wLjc1KSI+JiN4YTsJPHRpdGxlIGlkPSJ0aXRsZTg3NjQyIj5QYWdlLTE8L3RpdGxlPiYjeGE7CTxnIGlkPSJncm91cDU2NjktMSIgdHJhbnNmb3JtPSJ0cmFuc2xhdGUoMC43NSwtMC43NSkiPiYjeGE7CQk8dGl0bGUgaWQ9InRpdGxlODc2NDQiPk5ldHdvcmsgU2VjdXJpdHkgR3JvdXA8L3RpdGxlPiYjeGE7CQk8ZyBpZD0ic2hhcGU1NjcwLTIiPiYjeGE7CQkJPHRpdGxlIGlkPSJ0aXRsZTg3NjQ2Ij5TaGVldC41NjcwPC90aXRsZT4mI3hhOwkJCTxwYXRoIGlkPSJwYXRoODc2NDgiIGlua3NjYXBlOmNvbm5lY3Rvci1jdXJ2YXR1cmU9IjAiIHN0eWxlPSJmaWxsOiMzOTk5QzY7IiBkPSJNMTkuNDYsNS4yNEMxMi42LDQuNDksMTEuNDEsMS41LDExLjQxLDEuNSAgICAgUzkuODUsNS4zNywwLDUuMzd2MTUuOTZjMCwxLjkzLDEuMDYsMy43NCwyLjU2LDUuM2MzLjM2LDMuNTYsOC44NSw1Ljk5LDguODUsNS45OXMxMS40Mi00Ljk5LDExLjQyLTExLjI5VjUuMzcgICAgIEMyMS41OCw1LjM3LDIwLjQ2LDUuMywxOS40Niw1LjI0eiIvPiYjeGE7CQk8L2c+JiN4YTsJCTxnIGlkPSJzaGFwZTU2NzEtNCIgdHJhbnNmb3JtPSJ0cmFuc2xhdGUoMCwtNS45ODY5MikiPiYjeGE7CQkJPHRpdGxlIGlkPSJ0aXRsZTg3NjUxIj5TaGVldC41NjcxPC90aXRsZT4mI3hhOwkJCTxwYXRoIGlkPSJwYXRoODc2NTMiIGlua3NjYXBlOmNvbm5lY3Rvci1jdXJ2YXR1cmU9IjAiIHN0eWxlPSJmaWxsOiM1OUI0RDk7ZmlsbC1vcGFjaXR5OjAuNDsiIGQ9Ik0xNC4yOCwxNy43OGw1LjE4LTYuNTUgICAgIGMtNi44Ni0wLjc1LTguMDUtMy43NC04LjA1LTMuNzRTOS44NSwxMS4zNSwwLDExLjM1djE1Ljk3YzAsMS45MywxLjA2LDMuNzQsMi41Niw1LjNsMy44Ni00Ljg2TDE0LjI4LDE3Ljc4eiIvPiYjeGE7CQk8L2c+JiN4YTsJCTxnIGlkPSJncm91cDU2NzItNiIgdHJhbnNmb3JtPSJ0cmFuc2xhdGUoMi4zMDc0NiwtMy4xMTgxOSkiPiYjeGE7CQkJPHRpdGxlIGlkPSJ0aXRsZTg3NjU2Ij5TaGVldC41NjcyPC90aXRsZT4mI3hhOwkJCTxnIGlkPSJzaGFwZTU2NzMtNyIgdHJhbnNmb3JtPSJ0cmFuc2xhdGUoMC4wNjIzNjM3KSI+JiN4YTsJCQkJPHRpdGxlIGlkPSJ0aXRsZTg3NjU4Ij5TaGVldC41NjczPC90aXRsZT4mI3hhOwkJCQk8cGF0aCBpZD0icGF0aDg3NjYwIiBpbmtzY2FwZTpjb25uZWN0b3ItY3VydmF0dXJlPSIwIiBzdHlsZT0iZmlsbDojRkZGRkZGO2ZpbGwtb3BhY2l0eTowLjM7IiBkPSJNMCwxOS44M3YzLjgxICAgICAgYzAsMS41NiwwLjg3LDIuOTksMi4wNiw0LjI0YzIuNjgsMi44Nyw3LjA1LDQuNzQsNy4wNSw0Ljc0VjE5LjgzSDB6Ii8+JiN4YTsJCQk8L2c+JiN4YTsJCQk8ZyBpZD0ic2hhcGU1Njc0LTkiIHRyYW5zZm9ybT0idHJhbnNsYXRlKDkuMTA1MSkiPiYjeGE7CQkJCTx0aXRsZSBpZD0idGl0bGU4NzY2MyI+U2hlZXQuNTY3NDwvdGl0bGU+JiN4YTsJCQkJPHBhdGggaWQ9InBhdGg4NzY2NSIgaW5rc2NhcGU6Y29ubmVjdG9yLWN1cnZhdHVyZT0iMCIgc3R5bGU9ImZpbGw6I0ZGRkZGRjtmaWxsLW9wYWNpdHk6MC43OyIgZD0iTTAsMzIuNjIgICAgICBjMCwwLDkuMTEtMy45OSw5LjExLTguOTh2LTMuODFIMFYzMi42MnoiLz4mI3hhOwkJCTwvZz4mI3hhOwkJCTxnIGlkPSJzaGFwZTU2NzUtMTEiIHRyYW5zZm9ybT0idHJhbnNsYXRlKDAsLTEyLjc4NDYpIj4mI3hhOwkJCQk8dGl0bGUgaWQ9InRpdGxlODc2NjgiPlNoZWV0LjU2NzU8L3RpdGxlPiYjeGE7CQkJCTxwYXRoIGlkPSJwYXRoODc2NzAiIGlua3NjYXBlOmNvbm5lY3Rvci1jdXJ2YXR1cmU9IjAiIHN0eWxlPSJmaWxsOiNGRkZGRkY7ZmlsbC1vcGFjaXR5OjAuNzsiIGQ9Ik05LjExLDIwLjU4ICAgICAgYzAsMC0xLjI1LDMuMTItOS4xMSwzLjEydjguOTJoOS4xMVYyMC41OHoiLz4mI3hhOwkJCTwvZz4mI3hhOwkJCTxnIGlkPSJzaGFwZTU2NzYtMTMiIHRyYW5zZm9ybT0idHJhbnNsYXRlKDkuMTA1MSwtMTIuNzg0NikiPiYjeGE7CQkJCTx0aXRsZSBpZD0idGl0bGU4NzY3MyI+U2hlZXQuNTY3NjwvdGl0bGU+JiN4YTsJCQkJPHBhdGggaWQ9InBhdGg4NzY3NSIgaW5rc2NhcGU6Y29ubmVjdG9yLWN1cnZhdHVyZT0iMCIgc3R5bGU9ImZpbGw6I0ZGRkZGRjtmaWxsLW9wYWNpdHk6MC4zOyIgZD0iTTYuMzYsMjMuNTggICAgICBDMC45NCwyMi45NSwwLDIwLjY1LDAsMjAuNjV2MTEuOTdoOS4xMVYyMy43QzguMTEsMjMuNyw3LjE3LDIzLjY0LDYuMzYsMjMuNTh6Ii8+JiN4YTsJCQk8L2c+JiN4YTsJCTwvZz4mI3hhOwkJPGcgaWQ9Imdyb3VwNTY3Ny0xNSIgdHJhbnNmb3JtPSJ0cmFuc2xhdGUoMy4xMjQ0MiwtMTIuNzc0NikiPiYjeGE7CQkJPHRpdGxlIGlkPSJ0aXRsZTg3Njc5Ij5TaGVldC41Njc3PC90aXRsZT4mI3hhOwkJCTxnIGlkPSJzaGFwZTU2NzgtMTYiIHRyYW5zZm9ybT0idHJhbnNsYXRlKDAsLTAuMTAyOSkiPiYjeGE7CQkJCTx0aXRsZSBpZD0idGl0bGU4NzY4MSI+U2hlZXQuNTY3ODwvdGl0bGU+JiN4YTsJCQkJPHBhdGggaWQ9InBhdGg4NzY4MyIgaW5rc2NhcGU6Y29ubmVjdG9yLWN1cnZhdHVyZT0iMCIgc3R5bGU9ImZpbGw6IzNFM0UzRTsiIGQ9Ik01LjE4LDMyLjYyaC0xLjFsLTIuOTMtNC40OSAgICAgIGMtMC4wNy0wLjEyLTAuMTMtMC4yNC0wLjE4LTAuMzZIMC45NWMwLjAyLDAuMTMsMC4wMywwLjQxLDAuMDMsMC44NHY0LjAxSDB2LTYuMTFoMS4xOEw0LDMwLjg5YzAuMTIsMC4xOCwwLjIsMC4zMSwwLjIzLDAuMzggICAgICBoMC4wMmMtMC4wMy0wLjE2LTAuMDQtMC40NC0wLjA0LTAuODJ2LTMuOTRoMC45N0w1LjE4LDMyLjYyeiIvPiYjeGE7CQkJPC9nPiYjeGE7CQkJPGcgaWQ9InNoYXBlNTY3OS0xOCIgdHJhbnNmb3JtPSJ0cmFuc2xhdGUoNi40MTA5OSkiPiYjeGE7CQkJCTx0aXRsZSBpZD0idGl0bGU4NzY4NiI+U2hlZXQuNTY3OTwvdGl0bGU+JiN4YTsJCQkJPHBhdGggaWQ9InBhdGg4NzY4OCIgaW5rc2NhcGU6Y29ubmVjdG9yLWN1cnZhdHVyZT0iMCIgc3R5bGU9ImZpbGw6IzNFM0UzRTsiIGQ9Ik0wLDMyLjI3di0xLjA0YzAuMSwwLjA4LDAuMjEsMC4xNiwwLjM0LDAuMjMgICAgICBzMC4yNywwLjEyLDAuNDEsMC4xN2MwLjE1LDAuMDUsMC4yOSwwLjA4LDAuNDQsMC4xMWMwLjE0LDAuMDMsMC4yNywwLjA0LDAuNCwwLjA0YzAuNDIsMCwwLjc0LTAuMDcsMC45NS0wLjIyICAgICAgYzAuMjEtMC4xNCwwLjMxLTAuMzQsMC4zMS0wLjYxYzAtMC4xNS0wLjAzLTAuMjctMC4xLTAuMzhjLTAuMDctMC4xMS0wLjE3LTAuMi0wLjI5LTAuMjljLTAuMTMtMC4wOS0wLjI4LTAuMTgtMC40NS0wLjI2ICAgICAgYy0wLjE2LTAuMDgtMC4zNS0wLjE2LTAuNTQtMC4yNWMtMC4yMS0wLjExLTAuNC0wLjIyLTAuNTgtMC4zNGMtMC4xOC0wLjExLTAuMzMtMC4yNC0wLjQ3LTAuMzdjLTAuMTMtMC4xNC0wLjIzLTAuMy0wLjMxLTAuNDcgICAgICBDMC4wNCwyOC40MiwwLDI4LjIxLDAsMjcuOThjMC0wLjI5LDAuMDYtMC41NCwwLjE5LTAuNzVjMC4xMy0wLjIxLDAuMy0wLjM5LDAuNTItMC41MmMwLjIxLTAuMTQsMC40NS0wLjI0LDAuNzItMC4zMSAgICAgIHMwLjU0LTAuMSwwLjgzLTAuMWMwLjYzLDAsMS4xLDAuMDcsMS4zOSwwLjIydjFjLTAuMzQtMC4yNS0wLjc5LTAuMzgtMS4zNC0wLjM4Yy0wLjE1LDAtMC4zLDAuMDItMC40NCwwLjA1ICAgICAgYy0wLjE1LDAuMDItMC4yOSwwLjA3LTAuNDEsMC4xNGMtMC4xMSwwLjA2LTAuMjEsMC4xNS0wLjI4LDAuMjVjLTAuMDgsMC4xLTAuMTEsMC4yMy0wLjExLDAuMzdjMCwwLjE0LDAuMDIsMC4yNSwwLjA4LDAuMzUgICAgICBjMC4wNiwwLjEsMC4xNCwwLjE5LDAuMjUsMC4yOGMwLjExLDAuMDgsMC4yNCwwLjE2LDAuNCwwLjI0czAuMzQsMC4xNiwwLjU1LDAuMjVjMC4yMSwwLjExLDAuNDEsMC4yMywwLjYsMC4zNSAgICAgIGMwLjE5LDAuMTIsMC4zNiwwLjI2LDAuNSwwLjQxYzAuMTUsMC4xNCwwLjI2LDAuMzEsMC4zNCwwLjQ5YzAuMDksMC4xOCwwLjEzLDAuMzgsMC4xMywwLjYyYzAsMC4zLTAuMDYsMC41Ny0wLjE5LDAuNzggICAgICBjLTAuMTIsMC4yMS0wLjI5LDAuMzktMC41LDAuNTJjLTAuMjIsMC4xMy0wLjQ2LDAuMjMtMC43NCwwLjI5Yy0wLjI3LDAuMDYtMC41NiwwLjA5LTAuODcsMC4wOWMtMC4xLDAtMC4yMy0wLjAxLTAuMzgtMC4wMiAgICAgIGMtMC4xNS0wLjAyLTAuMy0wLjA0LTAuNDUtMC4wN2MtMC4xNi0wLjAzLTAuMzEtMC4wNy0wLjQ1LTAuMTFDMC4yLDMyLjM4LDAuMDksMzIuMzMsMCwzMi4yN3oiLz4mI3hhOwkJCTwvZz4mI3hhOwkJCTxnIGlkPSJzaGFwZTU2ODAtMjAiIHRyYW5zZm9ybT0idHJhbnNsYXRlKDExLjA1ODMsLTAuMDAxMjQ3MjcpIj4mI3hhOwkJCQk8dGl0bGUgaWQ9InRpdGxlODc2OTEiPlNoZWV0LjU2ODA8L3RpdGxlPiYjeGE7CQkJCTxwYXRoIGlkPSJwYXRoODc2OTMiIGlua3NjYXBlOmNvbm5lY3Rvci1jdXJ2YXR1cmU9IjAiIHN0eWxlPSJmaWxsOiMzRTNFM0U7IiBkPSJNNS4xNiwzMi4xYy0wLjYzLDAuMzUtMS4zNCwwLjUyLTIuMTIsMC41MiAgICAgIGMtMC45MSwwLTEuNjQtMC4yOC0yLjItMC44NEMwLjI4LDMxLjIxLDAsMzAuNDcsMCwyOS41NGMwLTAuOTUsMC4zMS0xLjcyLDAuOTItMi4zM2MwLjYxLTAuNjEsMS4zOS0wLjkxLDIuMzMtMC45MSAgICAgIGMwLjY4LDAsMS4yNSwwLjEsMS43MiwwLjN2MS4wNGMtMC40Ny0wLjMxLTEuMDMtMC40Ni0xLjY4LTAuNDZzLTEuMTgsMC4yMS0xLjYsMC42NHMtMC42MiwwLjk4LTAuNjIsMS42NyAgICAgIGMwLDAuNywwLjE3LDEuMjUsMC41MywxLjY1czAuODUsMC42MSwxLjQ2LDAuNjFjMC40MiwwLDAuNzktMC4wOSwxLjA5LTAuMjV2LTEuNDVIMi44NlYyOS4yaDIuM0M1LjE2LDI5LjIsNS4xNiwzMi4xLDUuMTYsMzIuMSAgICAgIHoiLz4mI3hhOwkJCTwvZz4mI3hhOwkJPC9nPiYjeGE7CTwvZz4mI3hhOzwvZz4mI3hhOzwvc3ZnPg==;" vertex="1" parent="MDKrXGUxuNkiesA0UJKx-26">
          <mxGeometry x="127.02999999999997" y="76" width="23" height="31" as="geometry" />
        </mxCell>
        <mxCell id="MDKrXGUxuNkiesA0UJKx-42" value="" style="edgeStyle=orthogonalEdgeStyle;rounded=0;orthogonalLoop=1;jettySize=auto;html=1;" edge="1" parent="MDKrXGUxuNkiesA0UJKx-26" source="MDKrXGUxuNkiesA0UJKx-14" target="MDKrXGUxuNkiesA0UJKx-2">
          <mxGeometry relative="1" as="geometry" />
        </mxCell>
        <mxCell id="MDKrXGUxuNkiesA0UJKx-14" value="" style="shape=image;verticalLabelPosition=bottom;labelBackgroundColor=#ffffff;verticalAlign=top;aspect=fixed;imageAspect=0;image=data:image/svg+xml,PHN2ZyB4bWxuczpjYz0iaHR0cDovL2NyZWF0aXZlY29tbW9ucy5vcmcvbnMjIiB4bWxuczpkYz0iaHR0cDovL3B1cmwub3JnL2RjL2VsZW1lbnRzLzEuMS8iIHhtbG5zOmlua3NjYXBlPSJodHRwOi8vd3d3Lmlua3NjYXBlLm9yZy9uYW1lc3BhY2VzL2lua3NjYXBlIiB4bWxuczpyZGY9Imh0dHA6Ly93d3cudzMub3JnLzE5OTkvMDIvMjItcmRmLXN5bnRheC1ucyMiIHhtbG5zOnNvZGlwb2RpPSJodHRwOi8vc29kaXBvZGkuc291cmNlZm9yZ2UubmV0L0RURC9zb2RpcG9kaS0wLmR0ZCIgeG1sbnM6c3ZnPSJodHRwOi8vd3d3LnczLm9yZy8yMDAwL3N2ZyIgeG1sbnM9Imh0dHA6Ly93d3cudzMub3JnLzIwMDAvc3ZnIiB4bWxuczp4bGluaz0iaHR0cDovL3d3dy53My5vcmcvMTk5OS94bGluayIgdmVyc2lvbj0iMS4xIiBpZD0ic3ZnODc3MDAiIGlua3NjYXBlOnZlcnNpb249IjAuOTIuMyAoMjQwNTU0NiwgMjAxOC0wMy0xMSkiIHNvZGlwb2RpOmRvY25hbWU9Im5ldHdvcmtfc2VjdXJpdHlfZ3JvdXAuc3ZnIiB4PSIwcHgiIHk9IjBweCIgdmlld0JveD0iMCAwIDIyLjgzIDMxLjEyIiBzdHlsZT0iZW5hYmxlLWJhY2tncm91bmQ6bmV3IDAgMCAyMi44MyAzMS4xMjsiIHhtbDpzcGFjZT0icHJlc2VydmUiPiYjeGE7PHNvZGlwb2RpOm5hbWVkdmlldyBib3JkZXJjb2xvcj0iIzY2NjY2NiIgYm9yZGVyb3BhY2l0eT0iMSIgZml0LW1hcmdpbi1ib3R0b209IjAiIGZpdC1tYXJnaW4tbGVmdD0iMCIgZml0LW1hcmdpbi1yaWdodD0iMCIgZml0LW1hcmdpbi10b3A9IjAiIGdyaWR0b2xlcmFuY2U9IjEwIiBndWlkZXRvbGVyYW5jZT0iMTAiIGlkPSJuYW1lZHZpZXc4NzcwMiIgaW5rc2NhcGU6Y3VycmVudC1sYXllcj0ic3ZnODc3MDAiIGlua3NjYXBlOmN4PSI3Ljc4MzU0ODIiIGlua3NjYXBlOmN5PSIxNi4yMjc2MjMiIGlua3NjYXBlOnBhZ2VvcGFjaXR5PSIwIiBpbmtzY2FwZTpwYWdlc2hhZG93PSIyIiBpbmtzY2FwZTp3aW5kb3ctaGVpZ2h0PSIxMDE3IiBpbmtzY2FwZTp3aW5kb3ctbWF4aW1pemVkPSIxIiBpbmtzY2FwZTp3aW5kb3ctd2lkdGg9IjE5MjAiIGlua3NjYXBlOndpbmRvdy14PSItOCIgaW5rc2NhcGU6d2luZG93LXk9Ii04IiBpbmtzY2FwZTp6b29tPSIxNC4wOTU3MzQiIG9iamVjdHRvbGVyYW5jZT0iMTAiIHBhZ2Vjb2xvcj0iI2ZmZmZmZiIgc2hvd2dyaWQ9ImZhbHNlIj4mI3hhOwk8L3NvZGlwb2RpOm5hbWVkdmlldz4mI3hhOzxnIGlkPSJnODc2OTgiIHRyYW5zZm9ybT0idHJhbnNsYXRlKC0wLjc1LC0wLjc1KSI+JiN4YTsJPHRpdGxlIGlkPSJ0aXRsZTg3NjQyIj5QYWdlLTE8L3RpdGxlPiYjeGE7CTxnIGlkPSJncm91cDU2NjktMSIgdHJhbnNmb3JtPSJ0cmFuc2xhdGUoMC43NSwtMC43NSkiPiYjeGE7CQk8dGl0bGUgaWQ9InRpdGxlODc2NDQiPk5ldHdvcmsgU2VjdXJpdHkgR3JvdXA8L3RpdGxlPiYjeGE7CQk8ZyBpZD0ic2hhcGU1NjcwLTIiPiYjeGE7CQkJPHRpdGxlIGlkPSJ0aXRsZTg3NjQ2Ij5TaGVldC41NjcwPC90aXRsZT4mI3hhOwkJCTxwYXRoIGlkPSJwYXRoODc2NDgiIGlua3NjYXBlOmNvbm5lY3Rvci1jdXJ2YXR1cmU9IjAiIHN0eWxlPSJmaWxsOiMzOTk5QzY7IiBkPSJNMTkuNDYsNS4yNEMxMi42LDQuNDksMTEuNDEsMS41LDExLjQxLDEuNSAgICAgUzkuODUsNS4zNywwLDUuMzd2MTUuOTZjMCwxLjkzLDEuMDYsMy43NCwyLjU2LDUuM2MzLjM2LDMuNTYsOC44NSw1Ljk5LDguODUsNS45OXMxMS40Mi00Ljk5LDExLjQyLTExLjI5VjUuMzcgICAgIEMyMS41OCw1LjM3LDIwLjQ2LDUuMywxOS40Niw1LjI0eiIvPiYjeGE7CQk8L2c+JiN4YTsJCTxnIGlkPSJzaGFwZTU2NzEtNCIgdHJhbnNmb3JtPSJ0cmFuc2xhdGUoMCwtNS45ODY5MikiPiYjeGE7CQkJPHRpdGxlIGlkPSJ0aXRsZTg3NjUxIj5TaGVldC41NjcxPC90aXRsZT4mI3hhOwkJCTxwYXRoIGlkPSJwYXRoODc2NTMiIGlua3NjYXBlOmNvbm5lY3Rvci1jdXJ2YXR1cmU9IjAiIHN0eWxlPSJmaWxsOiM1OUI0RDk7ZmlsbC1vcGFjaXR5OjAuNDsiIGQ9Ik0xNC4yOCwxNy43OGw1LjE4LTYuNTUgICAgIGMtNi44Ni0wLjc1LTguMDUtMy43NC04LjA1LTMuNzRTOS44NSwxMS4zNSwwLDExLjM1djE1Ljk3YzAsMS45MywxLjA2LDMuNzQsMi41Niw1LjNsMy44Ni00Ljg2TDE0LjI4LDE3Ljc4eiIvPiYjeGE7CQk8L2c+JiN4YTsJCTxnIGlkPSJncm91cDU2NzItNiIgdHJhbnNmb3JtPSJ0cmFuc2xhdGUoMi4zMDc0NiwtMy4xMTgxOSkiPiYjeGE7CQkJPHRpdGxlIGlkPSJ0aXRsZTg3NjU2Ij5TaGVldC41NjcyPC90aXRsZT4mI3hhOwkJCTxnIGlkPSJzaGFwZTU2NzMtNyIgdHJhbnNmb3JtPSJ0cmFuc2xhdGUoMC4wNjIzNjM3KSI+JiN4YTsJCQkJPHRpdGxlIGlkPSJ0aXRsZTg3NjU4Ij5TaGVldC41NjczPC90aXRsZT4mI3hhOwkJCQk8cGF0aCBpZD0icGF0aDg3NjYwIiBpbmtzY2FwZTpjb25uZWN0b3ItY3VydmF0dXJlPSIwIiBzdHlsZT0iZmlsbDojRkZGRkZGO2ZpbGwtb3BhY2l0eTowLjM7IiBkPSJNMCwxOS44M3YzLjgxICAgICAgYzAsMS41NiwwLjg3LDIuOTksMi4wNiw0LjI0YzIuNjgsMi44Nyw3LjA1LDQuNzQsNy4wNSw0Ljc0VjE5LjgzSDB6Ii8+JiN4YTsJCQk8L2c+JiN4YTsJCQk8ZyBpZD0ic2hhcGU1Njc0LTkiIHRyYW5zZm9ybT0idHJhbnNsYXRlKDkuMTA1MSkiPiYjeGE7CQkJCTx0aXRsZSBpZD0idGl0bGU4NzY2MyI+U2hlZXQuNTY3NDwvdGl0bGU+JiN4YTsJCQkJPHBhdGggaWQ9InBhdGg4NzY2NSIgaW5rc2NhcGU6Y29ubmVjdG9yLWN1cnZhdHVyZT0iMCIgc3R5bGU9ImZpbGw6I0ZGRkZGRjtmaWxsLW9wYWNpdHk6MC43OyIgZD0iTTAsMzIuNjIgICAgICBjMCwwLDkuMTEtMy45OSw5LjExLTguOTh2LTMuODFIMFYzMi42MnoiLz4mI3hhOwkJCTwvZz4mI3hhOwkJCTxnIGlkPSJzaGFwZTU2NzUtMTEiIHRyYW5zZm9ybT0idHJhbnNsYXRlKDAsLTEyLjc4NDYpIj4mI3hhOwkJCQk8dGl0bGUgaWQ9InRpdGxlODc2NjgiPlNoZWV0LjU2NzU8L3RpdGxlPiYjeGE7CQkJCTxwYXRoIGlkPSJwYXRoODc2NzAiIGlua3NjYXBlOmNvbm5lY3Rvci1jdXJ2YXR1cmU9IjAiIHN0eWxlPSJmaWxsOiNGRkZGRkY7ZmlsbC1vcGFjaXR5OjAuNzsiIGQ9Ik05LjExLDIwLjU4ICAgICAgYzAsMC0xLjI1LDMuMTItOS4xMSwzLjEydjguOTJoOS4xMVYyMC41OHoiLz4mI3hhOwkJCTwvZz4mI3hhOwkJCTxnIGlkPSJzaGFwZTU2NzYtMTMiIHRyYW5zZm9ybT0idHJhbnNsYXRlKDkuMTA1MSwtMTIuNzg0NikiPiYjeGE7CQkJCTx0aXRsZSBpZD0idGl0bGU4NzY3MyI+U2hlZXQuNTY3NjwvdGl0bGU+JiN4YTsJCQkJPHBhdGggaWQ9InBhdGg4NzY3NSIgaW5rc2NhcGU6Y29ubmVjdG9yLWN1cnZhdHVyZT0iMCIgc3R5bGU9ImZpbGw6I0ZGRkZGRjtmaWxsLW9wYWNpdHk6MC4zOyIgZD0iTTYuMzYsMjMuNTggICAgICBDMC45NCwyMi45NSwwLDIwLjY1LDAsMjAuNjV2MTEuOTdoOS4xMVYyMy43QzguMTEsMjMuNyw3LjE3LDIzLjY0LDYuMzYsMjMuNTh6Ii8+JiN4YTsJCQk8L2c+JiN4YTsJCTwvZz4mI3hhOwkJPGcgaWQ9Imdyb3VwNTY3Ny0xNSIgdHJhbnNmb3JtPSJ0cmFuc2xhdGUoMy4xMjQ0MiwtMTIuNzc0NikiPiYjeGE7CQkJPHRpdGxlIGlkPSJ0aXRsZTg3Njc5Ij5TaGVldC41Njc3PC90aXRsZT4mI3hhOwkJCTxnIGlkPSJzaGFwZTU2NzgtMTYiIHRyYW5zZm9ybT0idHJhbnNsYXRlKDAsLTAuMTAyOSkiPiYjeGE7CQkJCTx0aXRsZSBpZD0idGl0bGU4NzY4MSI+U2hlZXQuNTY3ODwvdGl0bGU+JiN4YTsJCQkJPHBhdGggaWQ9InBhdGg4NzY4MyIgaW5rc2NhcGU6Y29ubmVjdG9yLWN1cnZhdHVyZT0iMCIgc3R5bGU9ImZpbGw6IzNFM0UzRTsiIGQ9Ik01LjE4LDMyLjYyaC0xLjFsLTIuOTMtNC40OSAgICAgIGMtMC4wNy0wLjEyLTAuMTMtMC4yNC0wLjE4LTAuMzZIMC45NWMwLjAyLDAuMTMsMC4wMywwLjQxLDAuMDMsMC44NHY0LjAxSDB2LTYuMTFoMS4xOEw0LDMwLjg5YzAuMTIsMC4xOCwwLjIsMC4zMSwwLjIzLDAuMzggICAgICBoMC4wMmMtMC4wMy0wLjE2LTAuMDQtMC40NC0wLjA0LTAuODJ2LTMuOTRoMC45N0w1LjE4LDMyLjYyeiIvPiYjeGE7CQkJPC9nPiYjeGE7CQkJPGcgaWQ9InNoYXBlNTY3OS0xOCIgdHJhbnNmb3JtPSJ0cmFuc2xhdGUoNi40MTA5OSkiPiYjeGE7CQkJCTx0aXRsZSBpZD0idGl0bGU4NzY4NiI+U2hlZXQuNTY3OTwvdGl0bGU+JiN4YTsJCQkJPHBhdGggaWQ9InBhdGg4NzY4OCIgaW5rc2NhcGU6Y29ubmVjdG9yLWN1cnZhdHVyZT0iMCIgc3R5bGU9ImZpbGw6IzNFM0UzRTsiIGQ9Ik0wLDMyLjI3di0xLjA0YzAuMSwwLjA4LDAuMjEsMC4xNiwwLjM0LDAuMjMgICAgICBzMC4yNywwLjEyLDAuNDEsMC4xN2MwLjE1LDAuMDUsMC4yOSwwLjA4LDAuNDQsMC4xMWMwLjE0LDAuMDMsMC4yNywwLjA0LDAuNCwwLjA0YzAuNDIsMCwwLjc0LTAuMDcsMC45NS0wLjIyICAgICAgYzAuMjEtMC4xNCwwLjMxLTAuMzQsMC4zMS0wLjYxYzAtMC4xNS0wLjAzLTAuMjctMC4xLTAuMzhjLTAuMDctMC4xMS0wLjE3LTAuMi0wLjI5LTAuMjljLTAuMTMtMC4wOS0wLjI4LTAuMTgtMC40NS0wLjI2ICAgICAgYy0wLjE2LTAuMDgtMC4zNS0wLjE2LTAuNTQtMC4yNWMtMC4yMS0wLjExLTAuNC0wLjIyLTAuNTgtMC4zNGMtMC4xOC0wLjExLTAuMzMtMC4yNC0wLjQ3LTAuMzdjLTAuMTMtMC4xNC0wLjIzLTAuMy0wLjMxLTAuNDcgICAgICBDMC4wNCwyOC40MiwwLDI4LjIxLDAsMjcuOThjMC0wLjI5LDAuMDYtMC41NCwwLjE5LTAuNzVjMC4xMy0wLjIxLDAuMy0wLjM5LDAuNTItMC41MmMwLjIxLTAuMTQsMC40NS0wLjI0LDAuNzItMC4zMSAgICAgIHMwLjU0LTAuMSwwLjgzLTAuMWMwLjYzLDAsMS4xLDAuMDcsMS4zOSwwLjIydjFjLTAuMzQtMC4yNS0wLjc5LTAuMzgtMS4zNC0wLjM4Yy0wLjE1LDAtMC4zLDAuMDItMC40NCwwLjA1ICAgICAgYy0wLjE1LDAuMDItMC4yOSwwLjA3LTAuNDEsMC4xNGMtMC4xMSwwLjA2LTAuMjEsMC4xNS0wLjI4LDAuMjVjLTAuMDgsMC4xLTAuMTEsMC4yMy0wLjExLDAuMzdjMCwwLjE0LDAuMDIsMC4yNSwwLjA4LDAuMzUgICAgICBjMC4wNiwwLjEsMC4xNCwwLjE5LDAuMjUsMC4yOGMwLjExLDAuMDgsMC4yNCwwLjE2LDAuNCwwLjI0czAuMzQsMC4xNiwwLjU1LDAuMjVjMC4yMSwwLjExLDAuNDEsMC4yMywwLjYsMC4zNSAgICAgIGMwLjE5LDAuMTIsMC4zNiwwLjI2LDAuNSwwLjQxYzAuMTUsMC4xNCwwLjI2LDAuMzEsMC4zNCwwLjQ5YzAuMDksMC4xOCwwLjEzLDAuMzgsMC4xMywwLjYyYzAsMC4zLTAuMDYsMC41Ny0wLjE5LDAuNzggICAgICBjLTAuMTIsMC4yMS0wLjI5LDAuMzktMC41LDAuNTJjLTAuMjIsMC4xMy0wLjQ2LDAuMjMtMC43NCwwLjI5Yy0wLjI3LDAuMDYtMC41NiwwLjA5LTAuODcsMC4wOWMtMC4xLDAtMC4yMy0wLjAxLTAuMzgtMC4wMiAgICAgIGMtMC4xNS0wLjAyLTAuMy0wLjA0LTAuNDUtMC4wN2MtMC4xNi0wLjAzLTAuMzEtMC4wNy0wLjQ1LTAuMTFDMC4yLDMyLjM4LDAuMDksMzIuMzMsMCwzMi4yN3oiLz4mI3hhOwkJCTwvZz4mI3hhOwkJCTxnIGlkPSJzaGFwZTU2ODAtMjAiIHRyYW5zZm9ybT0idHJhbnNsYXRlKDExLjA1ODMsLTAuMDAxMjQ3MjcpIj4mI3hhOwkJCQk8dGl0bGUgaWQ9InRpdGxlODc2OTEiPlNoZWV0LjU2ODA8L3RpdGxlPiYjeGE7CQkJCTxwYXRoIGlkPSJwYXRoODc2OTMiIGlua3NjYXBlOmNvbm5lY3Rvci1jdXJ2YXR1cmU9IjAiIHN0eWxlPSJmaWxsOiMzRTNFM0U7IiBkPSJNNS4xNiwzMi4xYy0wLjYzLDAuMzUtMS4zNCwwLjUyLTIuMTIsMC41MiAgICAgIGMtMC45MSwwLTEuNjQtMC4yOC0yLjItMC44NEMwLjI4LDMxLjIxLDAsMzAuNDcsMCwyOS41NGMwLTAuOTUsMC4zMS0xLjcyLDAuOTItMi4zM2MwLjYxLTAuNjEsMS4zOS0wLjkxLDIuMzMtMC45MSAgICAgIGMwLjY4LDAsMS4yNSwwLjEsMS43MiwwLjN2MS4wNGMtMC40Ny0wLjMxLTEuMDMtMC40Ni0xLjY4LTAuNDZzLTEuMTgsMC4yMS0xLjYsMC42NHMtMC42MiwwLjk4LTAuNjIsMS42NyAgICAgIGMwLDAuNywwLjE3LDEuMjUsMC41MywxLjY1czAuODUsMC42MSwxLjQ2LDAuNjFjMC40MiwwLDAuNzktMC4wOSwxLjA5LTAuMjV2LTEuNDVIMi44NlYyOS4yaDIuM0M1LjE2LDI5LjIsNS4xNiwzMi4xLDUuMTYsMzIuMSAgICAgIHoiLz4mI3hhOwkJCTwvZz4mI3hhOwkJPC9nPiYjeGE7CTwvZz4mI3hhOzwvZz4mI3hhOzwvc3ZnPg==;" vertex="1" parent="MDKrXGUxuNkiesA0UJKx-26">
          <mxGeometry x="237.99" y="78" width="23" height="31" as="geometry" />
        </mxCell>
        <mxCell id="MDKrXGUxuNkiesA0UJKx-52" style="edgeStyle=orthogonalEdgeStyle;rounded=0;orthogonalLoop=1;jettySize=auto;html=1;entryX=0.5;entryY=1;entryDx=0;entryDy=0;" edge="1" parent="MDKrXGUxuNkiesA0UJKx-26" source="MDKrXGUxuNkiesA0UJKx-12" target="MDKrXGUxuNkiesA0UJKx-14">
          <mxGeometry relative="1" as="geometry" />
        </mxCell>
        <mxCell id="MDKrXGUxuNkiesA0UJKx-12" value="" style="shape=image;verticalLabelPosition=bottom;labelBackgroundColor=#ffffff;verticalAlign=top;aspect=fixed;imageAspect=0;image=data:image/svg+xml,PHN2ZyB4bWxuczpkYz0iaHR0cDovL3B1cmwub3JnL2RjL2VsZW1lbnRzLzEuMS8iIHhtbG5zOmNjPSJodHRwOi8vY3JlYXRpdmVjb21tb25zLm9yZy9ucyMiIHhtbG5zOnJkZj0iaHR0cDovL3d3dy53My5vcmcvMTk5OS8wMi8yMi1yZGYtc3ludGF4LW5zIyIgeG1sbnM6c3ZnPSJodHRwOi8vd3d3LnczLm9yZy8yMDAwL3N2ZyIgeG1sbnM9Imh0dHA6Ly93d3cudzMub3JnLzIwMDAvc3ZnIiB4bWxuczpzb2RpcG9kaT0iaHR0cDovL3NvZGlwb2RpLnNvdXJjZWZvcmdlLm5ldC9EVEQvc29kaXBvZGktMC5kdGQiIHhtbG5zOmlua3NjYXBlPSJodHRwOi8vd3d3Lmlua3NjYXBlLm9yZy9uYW1lc3BhY2VzL2lua3NjYXBlIiB2ZXJzaW9uPSIxLjEiIGlkPSJzdmc4NjU5MCIgaW5rc2NhcGU6dmVyc2lvbj0iMC45Mi4zICgyNDA1NTQ2LCAyMDE4LTAzLTExKSIgc29kaXBvZGk6ZG9jbmFtZT0ibXlzcWwuc3ZnIiB4PSIwcHgiIHk9IjBweCIgdmlld0JveD0iMCAwIDI4LjUxIDM3LjUiIHhtbDpzcGFjZT0icHJlc2VydmUiIHdpZHRoPSIyOC41MSIgaGVpZ2h0PSIzNy41Ij48bWV0YWRhdGEgaWQ9Im1ldGFkYXRhNTY4MSI+PHJkZjpSREY+PGNjOldvcmsgcmRmOmFib3V0PSIiPjxkYzpmb3JtYXQ+aW1hZ2Uvc3ZnK3htbDwvZGM6Zm9ybWF0PjxkYzp0eXBlIHJkZjpyZXNvdXJjZT0iaHR0cDovL3B1cmwub3JnL2RjL2RjbWl0eXBlL1N0aWxsSW1hZ2UiLz48ZGM6dGl0bGUvPjwvY2M6V29yaz48L3JkZjpSREY+PC9tZXRhZGF0YT48ZGVmcyBpZD0iZGVmczU2NzkiPiYjeGE7CSYjeGE7JiN4YTsJJiN4YTsmI3hhOwkmI3hhOyYjeGE7CSYjeGE7JiN4YTsJJiN4YTsmI3hhOwkmI3hhOyYjeGE7CSYjeGE7JiN4YTsJJiN4YTs8L2RlZnM+JiN4YTs8ZmlsdGVyIGlkPSJmaWx0ZXJfMiI+JiN4YTsJPGZlR2F1c3NpYW5CbHVyIGlkPSJmZUdhdXNzaWFuQmx1cjg2NTE1IiBzdGREZXZpYXRpb249IjIiLz4mI3hhOzwvZmlsdGVyPiYjeGE7PHNvZGlwb2RpOm5hbWVkdmlldyBib3JkZXJjb2xvcj0iIzY2NjY2NiIgYm9yZGVyb3BhY2l0eT0iMSIgZml0LW1hcmdpbi1ib3R0b209IjAiIGZpdC1tYXJnaW4tbGVmdD0iMCIgZml0LW1hcmdpbi1yaWdodD0iMCIgZml0LW1hcmdpbi10b3A9IjAiIGdyaWR0b2xlcmFuY2U9IjEwIiBndWlkZXRvbGVyYW5jZT0iMTAiIGlkPSJuYW1lZHZpZXc4NjU5MiIgaW5rc2NhcGU6Y3VycmVudC1sYXllcj0ic3ZnODY1OTAiIGlua3NjYXBlOmN4PSItMjguMDU4Mzc2IiBpbmtzY2FwZTpjeT0iMjQuNzM0MjY3IiBpbmtzY2FwZTpwYWdlb3BhY2l0eT0iMCIgaW5rc2NhcGU6cGFnZXNoYWRvdz0iMiIgaW5rc2NhcGU6d2luZG93LWhlaWdodD0iMTAxNyIgaW5rc2NhcGU6d2luZG93LW1heGltaXplZD0iMSIgaW5rc2NhcGU6d2luZG93LXdpZHRoPSIxOTIwIiBpbmtzY2FwZTp3aW5kb3cteD0iLTgiIGlua3NjYXBlOndpbmRvdy15PSItOCIgaW5rc2NhcGU6em9vbT0iMTAuNTcwMDIyIiBvYmplY3R0b2xlcmFuY2U9IjEwIiBwYWdlY29sb3I9IiNmZmZmZmYiIHNob3dncmlkPSJmYWxzZSI+JiN4YTsJPC9zb2RpcG9kaTpuYW1lZHZpZXc+JiN4YTsmI3hhOzxwYXRoIGlkPSJwYXRoODY1MjgiIGlua3NjYXBlOmNvbm5lY3Rvci1jdXJ2YXR1cmU9IjAiIHN0eWxlPSJmaWxsOiMwMDcyYzYiIGQ9Im0gMCw1LjEyIHYgMjcuMjYgYyAwLDIuODMgNi4zOCw1LjEyIDE0LjI1LDUuMTIgViA1LjEyIFoiLz4mI3hhOyYjeGE7PHBhdGggaWQ9InBhdGg4NjUzNiIgaW5rc2NhcGU6Y29ubmVjdG9yLWN1cnZhdHVyZT0iMCIgc3R5bGU9ImZpbGw6IzAwNzJjNiIgZD0ibSAxNC4wNiwzNy41IGggMC4xOSBjIDcuODcsMCAxNC4yNiwtMi4yOSAxNC4yNiwtNS4xMiBWIDUuMTIgSCAxNC4wNiBaIi8+JiN4YTsmI3hhOzxwYXRoIGlkPSJwYXRoODY1NDQiIGlua3NjYXBlOmNvbm5lY3Rvci1jdXJ2YXR1cmU9IjAiIHN0eWxlPSJmaWxsOiNmZmZmZmY7ZmlsbC1vcGFjaXR5OjAuMTUiIGQ9Im0gMTQuMDYsMzcuNSBoIDAuMTkgYyA3Ljg3LDAgMTQuMjYsLTIuMjkgMTQuMjYsLTUuMTIgViA1LjEyIEggMTQuMDYgWiIvPiYjeGE7JiN4YTs8cGF0aCBpZD0icGF0aDg2NTUyIiBpbmtzY2FwZTpjb25uZWN0b3ItY3VydmF0dXJlPSIwIiBzdHlsZT0iZmlsbDojZmZmZmZmIiBkPSJtIDI4LjUsNS4xMyBjIDAsMi44MyAtNi4zOCw1LjEyIC0xNC4yNSw1LjEyIEMgNi4zOCwxMC4yNSAwLDcuOTYgMCw1LjEzIDAsMi4zIDYuMzgsMCAxNC4yNSwwIDIyLjEyLDAgMjguNSwyLjMgMjguNSw1LjEzIFoiLz4mI3hhOyYjeGE7PHBhdGggaWQ9InBhdGg4NjU2MCIgaW5rc2NhcGU6Y29ubmVjdG9yLWN1cnZhdHVyZT0iMCIgc3R5bGU9ImZpbGw6I2RkNTkwMCIgZD0iTSAyNS41OCw0LjgzIEMgMjUuNTgsNi43IDIwLjUxLDguMjEgMTQuMjUsOC4yMSA3Ljk5LDguMjEgMi45MSw2LjcgMi45MSw0LjgzIGMgMCwtMS44NyA1LjA4LC0zLjM4IDExLjM0LC0zLjM4IDYuMjYsMCAxMS4zMywxLjUxIDExLjMzLDMuMzggeiIvPiYjeGE7JiN4YTs8cGF0aCBpZD0icGF0aDg2NTY4IiBpbmtzY2FwZTpjb25uZWN0b3ItY3VydmF0dXJlPSIwIiBzdHlsZT0iZmlsbDojZmY4YzAwIiBkPSJNIDIzLjIxLDYuOSBDIDI0LjY5LDYuMzMgMjUuNTgsNS42MSAyNS41OCw0Ljg0IDI1LjU4LDIuOTcgMjAuNTEsMS40NiAxNC4yNSwxLjQ2IDcuOTksMS40NiAyLjkxLDIuOTcgMi45MSw0Ljg0IDIuOTEsNS42MSAzLjgsNi4zMyA1LjI5LDYuOSA3LjM2LDYuMSAxMC42LDUuNTkgMTQuMjUsNS41OSBjIDMuNjUsMCA2Ljg4LDAuNTEgOC45NiwxLjMxIHoiLz4mI3hhOyYjeGE7PHBhdGggaWQ9InBhdGg4NjU3NiIgaW5rc2NhcGU6Y29ubmVjdG9yLWN1cnZhdHVyZT0iMCIgc3R5bGU9ImZpbGw6I2ZmZmZmZiIgZD0ibSAyLjk2LDI1LjE5IGggMS44IHYgLTcuMTIgbCAyLjc5LDYuMiBjIDAuMzMsMC43NSAwLjc4LDEuMDIgMS42NywxLjAyIDAuODgsMCAxLjMxLC0wLjI3IDEuNjQsLTEuMDIgbCAyLjc5LC02LjIgdiA3LjEyIGggMS44MSB2IC03LjExIGMgMCwtMC42OSAtMC4yOCwtMS4wMyAtMC44NSwtMS4yIC0xLjM3LC0wLjQzIC0yLjI5LC0wLjA2IC0yLjcxLDAuODcgTCA5LjE2LDIzLjg3IDYuNTEsMTcuNzUgYyAtMC40LC0wLjkzIC0xLjMzLC0xLjMgLTIuNywtMC44NyAtMC41NywwLjE3IC0wLjg1LDAuNTEgLTAuODUsMS4yIHoiLz4mI3hhOyYjeGE7PHBhdGggaWQ9InBhdGg4NjU4NCIgaW5rc2NhcGU6Y29ubmVjdG9yLWN1cnZhdHVyZT0iMCIgc3R5bGU9ImZpbGw6I2ZmZmZmZiIgZD0ibSAxNi45NSwxOS40IGggMS44IHYgMy45MiBjIC0wLjAyLDAuMjEgMC4wNywwLjcxIDEuMDYsMC43MyAwLjUsMC4wMSAzLjg4LDAgMy45MiwwIHYgLTQuNjcgaCAxLjggYyAwLjAxLDAgMCw2LjM3IDAsNi4zOSAwLjAxLDEuNTcgLTEuOTUsMS45MSAtMi44NSwxLjk0IEggMTYuOTkgViAyNi41IGMgMC4wMSwwIDUuNjksMCA1LjcsMCAxLjE2LC0wLjEyIDEuMDIsLTAuNyAxLjAyLC0wLjkgdiAtMC40NyBoIC0zLjgzIGMgLTEuNzgsLTAuMDEgLTIuOTIsLTAuNzkgLTIuOTMsLTEuNjkgMCwtMC4wOCAwLjA0LC00IDAsLTQuMDQgeiIvPiYjeGE7PC9zdmc+;" vertex="1" parent="MDKrXGUxuNkiesA0UJKx-26">
          <mxGeometry x="191.91" y="235" width="59" height="77.31" as="geometry" />
        </mxCell>
        <mxCell id="MDKrXGUxuNkiesA0UJKx-63" value="Virtual Machine Scale Set" style="text;html=1;strokeColor=none;fillColor=none;align=center;verticalAlign=middle;whiteSpace=wrap;rounded=0;" vertex="1" parent="MDKrXGUxuNkiesA0UJKx-26">
          <mxGeometry x="310" y="323.65" width="60" height="30" as="geometry" />
        </mxCell>
        <mxCell id="MDKrXGUxuNkiesA0UJKx-64" value="Azure DB for MySQL" style="text;html=1;strokeColor=none;fillColor=none;align=center;verticalAlign=middle;whiteSpace=wrap;rounded=0;" vertex="1" parent="MDKrXGUxuNkiesA0UJKx-26">
          <mxGeometry x="191.91" y="323.65" width="60" height="30" as="geometry" />
        </mxCell>
        <mxCell id="MDKrXGUxuNkiesA0UJKx-65" value="Application Gateway&lt;br&gt;" style="text;html=1;strokeColor=none;fillColor=none;align=center;verticalAlign=middle;whiteSpace=wrap;rounded=0;" vertex="1" parent="MDKrXGUxuNkiesA0UJKx-26">
          <mxGeometry x="37.04999999999998" y="333.65" width="60" height="30" as="geometry" />
        </mxCell>
        <mxCell id="MDKrXGUxuNkiesA0UJKx-46" style="edgeStyle=orthogonalEdgeStyle;rounded=0;orthogonalLoop=1;jettySize=auto;html=1;entryX=0.5;entryY=0;entryDx=0;entryDy=0;" edge="1" parent="1" source="MDKrXGUxuNkiesA0UJKx-33" target="MDKrXGUxuNkiesA0UJKx-16">
          <mxGeometry relative="1" as="geometry" />
        </mxCell>
        <mxCell id="MDKrXGUxuNkiesA0UJKx-60" value="VNet1" style="text;html=1;strokeColor=none;fillColor=none;align=center;verticalAlign=middle;whiteSpace=wrap;rounded=0;fontStyle=1;fontSize=17;" vertex="1" parent="1">
          <mxGeometry x="50" y="171" width="170" height="44" as="geometry" />
        </mxCell>
        <mxCell id="MDKrXGUxuNkiesA0UJKx-61" value="VNet2" style="text;html=1;strokeColor=none;fillColor=none;align=center;verticalAlign=middle;whiteSpace=wrap;rounded=0;fontStyle=1;fontSize=17;" vertex="1" parent="1">
          <mxGeometry x="580" y="171" width="170" height="44" as="geometry" />
        </mxCell>
        <mxCell id="MDKrXGUxuNkiesA0UJKx-72" value="Recovery Services Vault" style="text;html=1;strokeColor=none;fillColor=none;align=center;verticalAlign=middle;whiteSpace=wrap;rounded=0;" vertex="1" parent="1">
          <mxGeometry x="350" y="720" width="60" height="30" as="geometry" />
        </mxCell>
        <mxCell id="MDKrXGUxuNkiesA0UJKx-73" value="Storage Account&lt;br&gt;" style="text;html=1;strokeColor=none;fillColor=none;align=center;verticalAlign=middle;whiteSpace=wrap;rounded=0;" vertex="1" parent="1">
          <mxGeometry x="216.83" y="720" width="60" height="30" as="geometry" />
        </mxCell>
        <mxCell id="MDKrXGUxuNkiesA0UJKx-74" value="Key Vault" style="text;html=1;strokeColor=none;fillColor=none;align=center;verticalAlign=middle;whiteSpace=wrap;rounded=0;" vertex="1" parent="1">
          <mxGeometry x="85" y="720" width="60" height="30" as="geometry" />
        </mxCell>
      </root>
    </mxGraphModel>
  </diagram>
</mxfile>
